<svg width="512" height="512" viewBox="0 0 512 512" fill="none" xmlns="http://www.w3.org/2000/svg">
<g clip-path="url(#clip0_723_4)">
<path fill-rule="evenodd" clip-rule="evenodd" d="M289.742 38.6762L442.462 127.426C443.065 127.777 443.565 128.28 443.913 128.884C444.262 129.488 444.446 130.173 444.448 130.871C444.45 131.568 444.27 132.254 443.925 132.86C443.58 133.466 443.083 133.972 442.482 134.326L259.642 241.906C259.027 242.269 258.326 242.46 257.612 242.46C256.898 242.46 256.197 242.269 255.582 241.906L72.7021 134.326C72.1006 133.973 71.6018 133.469 71.2553 132.864C70.9087 132.259 70.7263 131.574 70.7263 130.876C70.7263 130.179 70.9087 129.494 71.2552 128.888C71.6018 128.283 72.1006 127.779 72.7021 127.426L225.412 38.6762C235.185 33.0114 246.281 30.0281 257.577 30.0281C268.873 30.0281 279.969 33.0114 289.742 38.6762ZM55.5821 161.536L239.582 268.866C240.19 269.217 240.694 269.721 241.045 270.329C241.396 270.936 241.581 271.625 241.582 272.326L241.582 474.076C241.581 474.778 241.396 475.467 241.045 476.075C240.693 476.682 240.188 477.187 239.58 477.537C238.972 477.888 238.283 478.072 237.581 478.072C236.879 478.072 236.19 477.887 235.582 477.536L73.4221 380.306C66.1812 376.088 60.1707 370.048 55.9882 362.787C51.8058 355.526 49.5972 347.296 49.5821 338.916L49.5821 164.996C49.5828 164.294 49.7682 163.605 50.1195 162.998C50.4709 162.39 50.9759 161.886 51.5839 161.535C52.1918 161.185 52.8813 161 53.5831 161C54.2849 161.001 54.9743 161.185 55.5821 161.536ZM275.582 269.616L459.582 161.566C460.192 161.214 460.884 161.029 461.589 161.03C462.293 161.031 462.985 161.219 463.593 161.573C464.202 161.927 464.707 162.435 465.056 163.047C465.405 163.659 465.587 164.352 465.582 165.056L465.582 338.916C465.563 347.294 463.351 355.52 459.167 362.778C454.983 370.035 448.972 376.071 441.732 380.286L279.582 477.516C278.974 477.867 278.285 478.052 277.583 478.052C276.881 478.052 276.192 477.868 275.584 477.517C274.976 477.167 274.471 476.662 274.12 476.055C273.768 475.447 273.583 474.758 273.582 474.056L273.582 273.066C273.585 272.366 273.771 271.68 274.122 271.074C274.472 270.469 274.976 269.966 275.582 269.616ZM150.779 319.515L150.777 271.632L134.936 262.485L134.938 310.368L93.47 286.425L93.4707 304.717L134.938 328.661L134.94 376.544L150.782 385.691L150.78 337.808L192.247 361.751L192.247 343.459L150.779 319.515ZM335.003 348.575C335.003 345.813 336.942 342.456 339.333 341.075L429.45 289.041C431.841 287.661 433.78 288.78 433.78 291.541L433.779 299.834C433.779 302.595 431.84 305.953 429.449 307.334L339.333 359.367C336.941 360.748 335.003 359.629 335.003 356.868L335.003 348.575Z" fill="currentColor"/>
</g>
<defs>
<clipPath id="clip0_723_4">
<rect width="512" height="512" fill="currentColor"/>
</clipPath>
</defs>
</svg>
