<svg width="24" height="24" viewBox="0 0 24 24" fill="none" xmlns="http://www.w3.org/2000/svg">
<path d="M13.1288 0C14.6503 0.147541 16.0736 0.557377 17.3988 1.22951C18.7239 1.90164 19.8773 2.77459 20.8589 3.84836C21.8405 4.92213 22.6094 6.15164 23.1656 7.53689C23.7219 8.92213 24 10.4016 24 11.9754C24 12.7951 23.91 13.6393 23.7301 14.5082L21.4724 11.4344C21.4233 10.4836 21.2352 9.57377 20.908 8.70492C20.5808 7.83607 20.1513 7.03689 19.6196 6.30738C19.0879 5.57787 18.4622 4.93852 17.7423 4.38934C17.0225 3.84016 16.2372 3.40164 15.3865 3.07377L13.1288 0ZM2.50307 11.4344C2.55215 10.4836 2.74029 9.57377 3.06748 8.70492C3.39468 7.83607 3.82822 7.03689 4.3681 6.30738C4.90798 5.57787 5.53783 4.93852 6.25767 4.38934C6.9775 3.84016 7.76278 3.40164 8.6135 3.07377L10.8466 0C9.32515 0.147541 7.90593 0.557377 6.58896 1.22951C5.27198 1.90164 4.1227 2.77459 3.1411 3.84836C2.15951 4.92213 1.39059 6.15164 0.834356 7.53689C0.278119 8.92213 0 10.4016 0 11.9754C0 12.7951 0.0899795 13.6393 0.269939 14.5082L2.50307 11.4344ZM21.0552 14.877C20.7117 15.9426 20.2045 16.9098 19.5337 17.7787C18.863 18.6475 18.0613 19.377 17.1288 19.9672V22.8443C17.9305 22.4508 18.6789 21.9795 19.3742 21.4303C20.0695 20.8811 20.6994 20.2705 21.2638 19.5984C21.8282 18.9262 22.3108 18.1926 22.7117 17.3975C23.1125 16.6025 23.4192 15.7623 23.6319 14.877H21.0552ZM6.84663 19.9672C5.93047 19.377 5.13701 18.6475 4.46626 17.7787C3.7955 16.9098 3.28834 15.9426 2.94479 14.877H0.343558C0.785276 16.6475 1.57873 18.2213 2.72393 19.5984C3.86912 20.9754 5.24335 22.0574 6.84663 22.8443V19.9672ZM1.96319 13.8689H7.85276V24H16.1472V13.8689H22.0123L12 0.147541L1.96319 13.8689ZM10.6748 10.1557V6.19672H13.3006V10.1557H17.2515V12.7869H13.3006V16.7213H10.6748V12.7869H6.74847V10.1557H10.6748Z" fill="currentColor"/>
</svg>
