<svg width="24" height="24" viewBox="0 0 24 24" fill="none" xmlns="http://www.w3.org/2000/svg">
<path d="M9.78313 0.269939C10.6345 0.0899795 11.4618 0 12.2651 0C13.8072 0 15.257 0.278119 16.6145 0.834356C17.9719 1.39059 19.1767 2.15951 20.2289 3.1411C21.2811 4.1227 22.1365 5.27607 22.7952 6.60123C23.4538 7.92638 23.8554 9.34969 24 10.8712L20.988 8.6135C20.6667 7.76278 20.2369 6.9775 19.6988 6.25767C19.1606 5.53783 18.5382 4.90798 17.8313 4.3681C17.1245 3.82822 16.3454 3.39877 15.494 3.07975C14.6426 2.76074 13.751 2.57669 12.8193 2.52761L9.78313 0.269939ZM4.43373 6.84663C5.01205 5.93047 5.72691 5.13701 6.57831 4.46626C7.42972 3.7955 8.37751 3.28834 9.42169 2.94479V0.343558C7.68675 0.785276 6.14458 1.57873 4.79518 2.72393C3.44578 3.86912 2.38554 5.24335 1.61446 6.84663H4.43373ZM9.42169 21.0552C8.37751 20.7117 7.42972 20.2045 6.57831 19.5337C5.72691 18.863 5.01205 18.0695 4.43373 17.1534H1.61446C2.38554 18.7566 3.44578 20.1309 4.79518 21.2761C6.14458 22.4213 7.68675 23.2147 9.42169 23.6564V21.0552ZM20.988 15.3865C20.6667 16.2372 20.2369 17.0225 19.6988 17.7423C19.1606 18.4622 18.5382 19.092 17.8313 19.6319C17.1245 20.1718 16.3454 20.6012 15.494 20.9202C14.6426 21.2393 13.751 21.4233 12.8193 21.4724L9.78313 23.7301C10.6345 23.91 11.4618 24 12.2651 24C13.8072 24 15.257 23.7219 16.6145 23.1656C17.9719 22.6094 19.1767 21.8405 20.2289 20.8589C21.2811 19.8773 22.1365 18.7239 22.7952 17.3988C23.4538 16.0736 23.8554 14.6503 24 13.1288L20.988 15.3865ZM10.4096 1.96319V7.85276H0V16.1472H10.4096V22.0368L23.8554 12L10.4096 1.96319ZM10.506 9.76687L12.0723 9.61963L14.3133 7.68098L17.0361 8.14724L17.253 11.1656L16.0723 10.5767L15.8554 9.20245L15.3735 9.47239L14.9639 11.9264L13.4217 13.3006L15.1084 13.0552L15.9277 15.2147L17.7349 15.4847L17.012 16.0736L14.3614 15.7791L12.2892 14.9939H10.5783L10.1446 10.8957L0 10.0368L10.506 9.76687ZM19.5904 8.95706L19.7108 9.59509L19.5904 10.1104L17.6867 10.3067L17.6145 8.76074L19.5904 8.95706ZM15.7108 11.1656L17.5422 11.8282L17.6867 10.5767L19.5904 10.773L19.7108 11.4847L19.5904 12.1718L17.1084 12.3681L15.6867 11.6564L15.7108 11.1656ZM17.2048 12.7117L19.0361 12.6871L19.1807 13.1534L19.0361 13.6933L17.2771 13.8405L15.9036 13.3497V12.4663L17.2048 12.7117ZM16.0964 13.9386L17.3253 14.2577L18.6265 14.1595L18.7711 14.5276L18.6265 14.9693L17.6145 15.1902L16.2651 14.7485L16.0964 13.9386ZM2.36145 11.7301H9.68675L9.85542 12.8098L2.36145 11.7301ZM3.46988 13.4724L9.68675 13.546L9.85542 14.5276L3.46988 13.4724Z" fill="currentColor"/>
</svg>
