<svg width="24" height="24" viewBox="0 0 24 24" fill="none" xmlns="http://www.w3.org/2000/svg">
<path d="M7.79317 0.678103C9.10031 0.226034 10.4571 0 11.8635 0C12.9555 0 13.9938 0.133199 14.9783 0.399596C15.9628 0.665994 16.9018 1.0333 17.7952 1.50151C17.4147 1.5338 17.0259 1.55802 16.6287 1.57417C16.2316 1.59031 15.818 1.59839 15.3878 1.59839C14.2461 1.59839 13.0962 1.52573 11.938 1.38042C11.0941 1.25126 10.3247 1.13017 9.62978 1.01715C8.93485 0.904137 8.32265 0.79112 7.79317 0.678103ZM2.606 9.34813C2.788 8.67003 3.0486 8.02825 3.3878 7.42281C3.72699 6.81736 4.12823 6.25631 4.59152 5.73966C4.64116 5.06155 4.69493 4.41978 4.75284 3.81433C4.81075 3.20888 4.85626 2.6559 4.88935 2.1554C3.6484 2.99495 2.606 4.03229 1.76215 5.26741C0.918304 6.50252 0.33092 7.86276 0 9.34813H2.606ZM21.4685 4.62563C21.4354 5.35217 21.3981 6.12714 21.3568 6.95055C21.3154 7.77397 21.2534 8.62159 21.1706 9.49344C21.3692 10.2523 21.4685 11.0353 21.4685 11.8426C21.4685 13.1181 21.2244 14.3169 20.7363 15.439C20.2482 16.561 19.5739 17.5499 18.7135 18.4057C17.9524 19.6165 17.0962 20.6458 16.1448 21.4934C15.1934 22.3411 14.2875 23.0394 13.4271 23.5883C14.9162 23.3946 16.3061 22.9586 17.5967 22.2805C18.8873 21.6024 20.0041 20.7427 20.9473 19.7013C21.8904 18.6599 22.635 17.4652 23.181 16.1171C23.727 14.7689 24 13.3441 24 11.8426C24 10.4702 23.7766 9.17457 23.3299 7.9556C22.8831 6.73663 22.2627 5.62664 21.4685 4.62563ZM6.20476 19.3986C5.32782 18.7851 4.57911 18.0424 3.95863 17.1705C3.33816 16.2987 2.88728 15.3461 2.606 14.3128H0C0.231644 15.3946 0.608066 16.4117 1.12927 17.3643C1.65047 18.3169 2.28749 19.1806 3.04033 19.9556C3.79317 20.7306 4.64116 21.4006 5.58428 21.9657C6.5274 22.5308 7.53671 22.9586 8.6122 23.2492C8.23164 22.7649 7.8304 22.1998 7.40848 21.554C6.98656 20.9082 6.58532 20.1897 6.20476 19.3986ZM8.83557 14.3128H5.53464C5.61737 14.7003 5.7001 15.0757 5.78283 15.439C5.86556 15.8022 5.97311 16.1615 6.10548 16.5166L8.83557 14.3128ZM15.3878 2.59132C14.7425 2.59132 14.122 2.57114 13.5264 2.53078C12.9307 2.49041 12.3599 2.42987 11.8139 2.34914C10.4074 2.1554 9.22854 1.96973 8.27715 1.79213C7.32575 1.61453 6.56877 1.46115 6.0062 1.33199C5.95657 1.76791 5.90279 2.30474 5.84488 2.94248C5.78697 3.58022 5.72906 4.25832 5.67115 4.97679C5.61324 5.69526 5.55533 6.43391 5.49741 7.19273C5.4395 7.95156 5.394 8.6781 5.36091 9.37235H8.83557L5.80765 6.90212L10.3495 8.13724V4.43189L14.8914 9.37235V14.3128L10.3495 19.2533V15.5479L6.15512 16.6862C6.46949 17.5903 6.82937 18.4299 7.23475 19.2048C7.64012 19.9798 8.04964 20.6781 8.46329 21.2997C8.87694 21.9213 9.26991 22.4622 9.64219 22.9223C10.0145 23.3824 10.3247 23.7417 10.5729 24C10.9369 23.8385 11.4209 23.5964 12.0248 23.2735C12.6287 22.9506 13.2782 22.5308 13.9731 22.0141C16.7694 19.9475 18.5646 17.4289 19.3588 14.4581C19.5905 13.6186 19.7808 12.6256 19.9297 11.4793C20.0786 10.333 20.1944 9.18264 20.2771 8.02825C20.3599 6.87386 20.4219 5.77598 20.4633 4.73461C20.5047 3.69324 20.5253 2.84965 20.5253 2.20383C19.9462 2.28456 19.2099 2.36932 18.3164 2.45812C17.423 2.54692 16.4467 2.59132 15.3878 2.59132Z" fill="black"/>
</svg>
