<svg width="24" height="24" viewBox="0 0 24 24" fill="none" xmlns="http://www.w3.org/2000/svg">
<path d="M24 20.15C24 20.6833 23.9 21.1833 23.7 21.65C23.5 22.1167 23.225 22.525 22.875 22.875C22.525 23.225 22.1167 23.5 21.65 23.7C21.1833 23.9 20.6833 24 20.15 24H3.85C3.31667 24 2.81667 23.9 2.35 23.7C1.88333 23.5 1.475 23.225 1.125 22.875C0.775 22.525 0.5 22.1167 0.3 21.65C0.1 21.1833 0 20.6833 0 20.15V3.85C0 3.31667 0.1 2.81667 0.3 2.35C0.5 1.88333 0.775 1.475 1.125 1.125C1.475 0.775 1.88333 0.5 2.35 0.3C2.81667 0.1 3.31667 0 3.85 0H20.15C20.6833 0 21.1833 0.1 21.65 0.3C22.1167 0.5 22.525 0.775 22.875 1.125C23.225 1.475 23.5 1.88333 23.7 2.35C23.9 2.81667 24 3.31667 24 3.85V20.15Z" fill="black"/>
</svg>
