<svg width="24" height="24" viewBox="0 0 24 24" fill="none" xmlns="http://www.w3.org/2000/svg">
<path d="M23.6564 15.4322C23.4274 16.3983 23.092 17.3136 22.6503 18.178C22.2086 19.0424 21.6769 19.839 21.0552 20.5678V19.0169L23.6564 15.4322ZM3.92638 21.6356C2.71575 20.4831 1.75869 19.1186 1.05521 17.5424C0.351738 15.9661 0 14.2627 0 12.4322C0 10.7203 0.314928 9.11017 0.944785 7.60169C1.57464 6.09322 2.43354 4.77542 3.52147 3.6483C4.60941 2.52119 5.88139 1.63136 7.33742 0.978814C8.79346 0.326271 10.3476 0 12 0C13.6524 0 15.2065 0.326271 16.6626 0.978814C18.1186 1.63136 19.3906 2.52119 20.4785 3.6483C21.5665 4.77542 22.4254 6.09322 23.0552 7.60169C23.6851 9.11017 24 10.7203 24 12.4322C24 12.7203 23.9877 13.0042 23.9632 13.2839C23.9386 13.5636 23.91 13.839 23.8773 14.1102L21.4479 13.5C21.4642 13.3136 21.4765 13.1356 21.4847 12.9661C21.4928 12.7966 21.4969 12.6186 21.4969 12.4322C21.4969 11.0763 21.2474 9.80085 20.7485 8.60593C20.2495 7.41102 19.5706 6.36864 18.7117 5.47881C17.8528 4.58898 16.8466 3.88559 15.6933 3.36864C14.5399 2.85169 13.3088 2.59322 12 2.59322C10.6912 2.59322 9.46012 2.85169 8.30675 3.36864C7.15337 3.88559 6.14724 4.58898 5.28834 5.47881C4.42945 6.36864 3.75051 7.41102 3.25153 8.60593C2.75256 9.80085 2.50307 11.0763 2.50307 12.4322C2.50307 13.3983 2.62577 14.3136 2.87117 15.178C3.11656 16.0424 3.4683 16.8559 3.92638 17.6186V21.6356ZM5.79141 9.71186C6.00409 9.18644 6.26994 8.66102 6.58896 8.13559C6.90798 7.61017 7.28834 7.13136 7.73006 6.69915C8.17178 6.26695 8.67894 5.91102 9.25153 5.63136C9.82413 5.35169 10.4703 5.19492 11.1902 5.16102L13.4969 5.84746C12.9243 6.13559 12.4254 6.51695 12 6.99153C11.5746 7.4661 11.2147 7.97458 10.9202 8.51695L8.58896 7.85593L5.79141 9.71186ZM20.0736 20.4407V24H4.93252V11.5424L8.76074 8.97458L15.0184 10.7797C15.1002 11.2034 15.1411 11.6102 15.1411 12L10.1104 10.8814L19.411 21.3305L20.0736 20.4407ZM16.2209 13.2966L16.1963 12.661C16.1963 12.6441 16.1759 12.411 16.135 11.9619C16.0941 11.5127 15.9959 10.9534 15.8405 10.2839C15.6851 9.61441 15.4519 8.89407 15.1411 8.12288C14.8303 7.35169 14.4131 6.64407 13.8896 6L16.5153 6.66102C17.0389 6.9322 17.4928 7.29661 17.8773 7.75424C18.2618 8.21186 18.593 8.70763 18.8712 9.24153C19.1493 9.77542 19.3742 10.3178 19.546 10.8686C19.7178 11.4195 19.8528 11.9195 19.9509 12.3686C20.0491 12.8178 20.1186 13.1864 20.1595 13.4746C20.2004 13.7627 20.2209 13.9153 20.2209 13.9322L20.2699 14.2881L22.7485 14.8983L19.3374 19.7034L12.9816 12.5847L16.2209 13.2966Z" fill="black"/>
</svg>
