<svg width="24" height="24" viewBox="0 0 24 24" fill="none" xmlns="http://www.w3.org/2000/svg">
<g clip-path="url(#clip0_672_81)">
<path fill-rule="evenodd" clip-rule="evenodd" d="M1.45681 1.45689C0.99498 1.91825 0.628605 2.46611 0.378634 3.06917C0.128663 3.67222 0 4.31863 0 4.97144C0 5.62426 0.128663 6.27067 0.378634 6.87372C0.628605 7.47677 0.99498 8.02464 1.45681 8.486L15.5155 22.5442C16.4476 23.4763 17.7118 24 19.0299 24C19.6826 24 20.3289 23.8714 20.9319 23.6217C21.5349 23.3719 22.0828 23.0058 22.5443 22.5442C23.0058 22.0827 23.3719 21.5348 23.6217 20.9317C23.8714 20.3287 24 19.6824 24 19.0297C24 18.377 23.8714 17.7306 23.6217 17.1276C23.3719 16.5246 23.0058 15.9767 22.5443 15.5151L8.48437 1.45689C8.02304 0.99503 7.4752 0.628636 6.87218 0.378653C6.26915 0.12867 5.62277 0 4.96999 0C4.31721 0 3.67084 0.12867 3.06781 0.378653C2.46479 0.628636 1.91695 0.99503 1.45561 1.45689M8.81314 7.47807C8.72626 7.3864 8.62189 7.31306 8.50621 7.26239C8.39052 7.21172 8.26585 7.18475 8.13957 7.18306C8.01328 7.18136 7.88794 7.20499 7.77094 7.25254C7.65393 7.30009 7.54764 7.3706 7.45834 7.45991C7.36903 7.54922 7.29853 7.65552 7.25098 7.77253C7.20343 7.88954 7.1798 8.01489 7.1815 8.14118C7.18319 8.26747 7.21016 8.39214 7.26083 8.50783C7.3115 8.62352 7.38483 8.72789 7.4765 8.81478C7.6539 8.9922 7.89452 9.09187 8.14542 9.09187C8.39631 9.09187 8.63693 8.9922 8.81434 8.81478C8.99174 8.63736 9.09141 8.39673 9.09141 8.14582C9.09141 7.89492 8.99174 7.65429 8.81434 7.47687M12.1547 8.59039C12.067 8.50262 11.9628 8.433 11.8481 8.3855C11.7334 8.338 11.6105 8.31355 11.4864 8.31355C11.3623 8.31355 11.2394 8.338 11.1247 8.3855C11.0101 8.433 10.9059 8.50262 10.8181 8.59039C10.7303 8.67816 10.6607 8.78236 10.6132 8.89704C10.5657 9.01171 10.5413 9.13462 10.5413 9.25875C10.5413 9.38287 10.5657 9.50578 10.6132 9.62046C10.6607 9.73513 10.7303 9.83933 10.8181 9.9271C10.9953 10.1044 11.2357 10.2039 11.4864 10.2039C11.7371 10.2039 11.9775 10.1044 12.1547 9.9271C12.332 9.74984 12.4316 9.50943 12.4316 9.25875C12.4316 9.00807 12.332 8.76765 12.1547 8.59039ZM16.6086 13.0445C16.7003 13.1314 16.7736 13.2357 16.8243 13.3514C16.8749 13.4671 16.9019 13.5918 16.9036 13.7181C16.9053 13.8444 16.8817 13.9697 16.8341 14.0867C16.7866 14.2037 16.7161 14.31 16.6268 14.3993C16.5375 14.4887 16.4312 14.5592 16.3142 14.6067C16.1972 14.6543 16.0718 14.6779 15.9455 14.6762C15.8192 14.6745 15.6946 14.6475 15.5789 14.5969C15.4632 14.5462 15.3588 14.4729 15.272 14.3812C15.1025 14.2024 15.0095 13.9644 15.0128 13.7181C15.0161 13.4717 15.1154 13.2364 15.2896 13.0622C15.4639 12.8879 15.6992 12.7886 15.9455 12.7853C16.1919 12.782 16.4298 12.875 16.6086 13.0445ZM17.7233 17.723C17.811 17.6352 17.8807 17.531 17.9282 17.4163C17.9757 17.3016 18.0001 17.1787 18.0001 17.0546C18.0001 16.9305 17.9757 16.8076 17.9282 16.6929C17.8807 16.5782 17.811 16.474 17.7233 16.3863C17.6355 16.2985 17.5313 16.2289 17.4166 16.1814C17.302 16.1339 17.1791 16.1094 17.055 16.1094C16.9308 16.1094 16.8079 16.1339 16.6933 16.1814C16.5786 16.2289 16.4744 16.2985 16.3866 16.3863C16.2094 16.5635 16.1098 16.8039 16.1098 17.0546C16.1098 17.3053 16.2094 17.5457 16.3866 17.723C16.5639 17.9002 16.8043 17.9998 17.055 17.9998C17.3056 17.9998 17.546 17.9002 17.7233 17.723ZM13.2682 13.2677C13.4455 13.0906 13.5451 12.8503 13.5452 12.5997C13.5453 12.3492 13.4459 12.1088 13.2688 11.9316C13.0917 11.7543 12.8515 11.6547 12.6009 11.6545C12.3504 11.6544 12.11 11.7539 11.9328 11.931C11.845 12.0187 11.7754 12.1228 11.7278 12.2374C11.6803 12.352 11.6558 12.4748 11.6558 12.5989C11.6556 12.8495 11.7551 13.0898 11.9322 13.2671C12.1093 13.4443 12.3495 13.544 12.6001 13.5441C12.8506 13.5442 13.091 13.4448 13.2682 13.2677ZM14.3817 15.2715C14.4733 15.3584 14.5467 15.4628 14.5973 15.5785C14.648 15.6942 14.675 15.8188 14.6767 15.9451C14.6784 16.0714 14.6547 16.1968 14.6072 16.3138C14.5596 16.4308 14.4891 16.5371 14.3998 16.6264C14.3105 16.7157 14.2042 16.7862 14.0872 16.8338C13.9702 16.8813 13.8449 16.9049 13.7186 16.9033C13.5923 16.9016 13.4676 16.8746 13.352 16.8239C13.2363 16.7732 13.1319 16.6999 13.045 16.6082C12.8795 16.4287 12.7899 16.1921 12.7949 15.9479C12.7999 15.7038 12.8992 15.4711 13.0719 15.2985C13.2447 15.1259 13.4775 15.0268 13.7216 15.022C13.9658 15.0172 14.2023 15.1071 14.3817 15.2727M8.59236 10.8198C8.76961 10.6426 9.01001 10.543 9.26068 10.543C9.51135 10.543 9.75175 10.6426 9.929 10.8198C10.1063 10.9971 10.2058 11.2375 10.2058 11.4882C10.2058 11.7389 10.1063 11.9793 9.929 12.1565C9.75175 12.3338 9.51135 12.4334 9.26068 12.4334C9.01001 12.4334 8.76961 12.3338 8.59236 12.1565C8.41511 11.9793 8.31554 11.7389 8.31554 11.4882C8.31554 11.2375 8.41511 10.9971 8.59236 10.8198Z" fill="currentColor"/>
<path d="M3.69739 13.2713L1.45584 15.5151C0.523683 16.4473 0 17.7115 0 19.0297C0 20.3479 0.523683 21.6121 1.45584 22.5442C2.38801 23.4763 3.65229 24 4.97056 24C6.28884 24 7.55312 23.4763 8.48528 22.5442L10.7268 20.3028L3.69739 13.2713ZM20.3026 10.7275L22.5442 8.48486C23.4763 7.55274 24 6.28852 24 4.97031C24 3.65211 23.4763 2.38789 22.5442 1.45577C21.612 0.523657 20.3477 9.82142e-09 19.0294 0C17.7112 -9.82142e-09 16.4469 0.523657 15.5147 1.45577L13.272 3.69721L20.3026 10.7275Z" fill="black"/>
</g>
<defs>
<clipPath id="clip0_672_81">
<rect width="24" height="24"/>
</clipPath>
</defs>
</svg>
