<svg width="24" height="24" viewBox="0 0 24 24" fill="none" xmlns="http://www.w3.org/2000/svg">
<path d="M23.5911 15.1058C23.0459 17.1405 21.9748 18.9958 20.4853 20.4853C18.9958 21.9748 17.1405 23.0459 15.1058 23.5911L14.4847 21.2729C16.1124 20.8367 17.5966 19.9798 18.7882 18.7882C19.9798 17.5966 20.8367 16.1124 21.2729 14.4847L23.5911 15.1058Z" fill="currentColor"/>
<path d="M15.1058 0.408893C17.1405 0.95408 18.9958 2.02524 20.4853 3.51472C21.9748 5.0042 23.0459 6.85951 23.5911 8.89417L21.2729 9.51534C20.8367 7.88761 19.9798 6.40336 18.7882 5.21178C17.5966 4.02019 16.1124 3.16326 14.4847 2.72711L15.1058 0.408893Z" fill="currentColor"/>
<path d="M0.408893 8.89418C0.954079 6.85951 2.02524 5.0042 3.51472 3.51472C5.0042 2.02525 6.85951 0.954082 8.89417 0.408895L9.51534 2.72712C7.88761 3.16327 6.40336 4.0202 5.21178 5.21178C4.02019 6.40336 3.16326 7.88761 2.72711 9.51534L0.408893 8.89418Z" fill="currentColor"/>
<path d="M8.89418 23.5911C6.85951 23.0459 5.0042 21.9748 3.51472 20.4853C2.02525 18.9958 0.954083 17.1405 0.408896 15.1058L2.72712 14.4847C3.16327 16.1124 4.0202 17.5966 5.21178 18.7882C6.40336 19.9798 7.88761 20.8367 9.51534 21.2729L8.89418 23.5911Z" fill="currentColor"/>
<path fill-rule="evenodd" clip-rule="evenodd" d="M12.0001 0.600098L10.8001 8.4001L9.0001 6.0001L9.6001 9.6001L6.0001 8.4001L8.4001 10.8001L0.600098 12.0001L8.4001 13.2001L6.0001 15.6001L9.6001 14.4001L9.0001 18.0001L10.8001 15.6001L12.0001 23.4001L13.2001 15.6001L15.0001 18.0001L14.4001 14.4001L18.0001 15.6001L15.6001 13.2001L23.4001 12.0001L15.6001 10.8001L18.0001 8.4001L14.4001 9.6001L15.0001 6.0001L13.2001 8.4001L12.0001 0.600098ZM12.0001 14.4001C13.3256 14.4001 14.4001 13.3256 14.4001 12.0001C14.4001 10.6746 13.3256 9.6001 12.0001 9.6001C10.6746 9.6001 9.6001 10.6746 9.6001 12.0001C9.6001 13.3256 10.6746 14.4001 12.0001 14.4001Z" fill="currentColor"/>
</svg>
