<svg width="24" height="24" viewBox="0 0 24 24" fill="none" xmlns="http://www.w3.org/2000/svg">
<path d="M12.1979 1.01953C10.5382 1.01953 9.24363 1.26281 8.33796 1.62159C7.88515 1.80098 7.53771 2.00691 7.27015 2.25145C7.13627 2.3738 7.01913 2.51067 6.93612 2.66161C5.96548 3.55158 5.25073 4.947 4.78713 6.49223C4.34416 7.9688 4.13852 9.58762 4.24948 11.0655C4.16604 12.1327 4.75048 13.6491 5.41995 14.8638L5.4229 14.8697L5.4243 14.8711C7.01398 16.51 9.3364 17.7224 11.7671 18.0381V6.07617C11.9094 6.08114 12.0528 6.08498 12.1979 6.08498C12.3481 6.08498 12.496 6.08086 12.6432 6.07467V18.0264C15.548 17.6226 18.2929 15.9392 19.7959 13.7988C20.0917 12.9265 20.2189 11.996 20.1402 11.2266C20.2792 9.70603 20.0749 8.02247 19.6158 6.49219C19.1489 4.93594 18.4286 3.53156 17.4478 2.64258C17.3656 2.49914 17.2536 2.3685 17.1255 2.25145C16.8579 2.00691 16.5105 1.80098 16.0577 1.62164C15.1519 1.26291 13.8574 1.01958 12.1978 1.01958L12.1979 1.01953ZM12.1979 1.89553C13.7716 1.89553 14.9662 2.14097 15.7295 2.44336C16.1112 2.59448 16.3937 2.73858 16.5499 2.88136C16.7061 3.024 16.7139 3.13833 16.7139 3.15525C16.7139 3.64931 16.3246 4.14656 15.5098 4.55119C14.6951 4.95581 13.5095 5.20894 12.1978 5.20894C10.8807 5.20894 9.69738 4.97081 8.88574 4.57903C8.07415 4.18739 7.68021 3.71386 7.68021 3.15525C7.68021 3.13837 7.71584 3.024 7.87212 2.88131C8.0283 2.73848 8.28434 2.59444 8.66604 2.44327C9.4294 2.14092 10.624 1.89539 12.1978 1.89539L12.1979 1.89553ZM17.4185 3.92288C17.9721 4.65788 18.4497 5.65022 18.7779 6.74414C19.1337 7.93008 19.3216 9.2303 19.3039 10.4297C18.5421 9.80142 17.9659 8.80467 17.587 7.73878C17.1808 6.59634 16.9976 5.34816 17.2106 4.27734C17.2911 4.16613 17.3608 4.04741 17.4185 3.92283V3.92288ZM6.97127 3.94041C6.99766 4.00136 7.02698 4.06101 7.05912 4.11914C7.31702 5.33662 7.10412 6.68962 6.6431 7.88086C6.27077 8.84273 5.74423 9.70992 5.09763 10.3066C5.09388 9.1417 5.28129 7.88963 5.62498 6.74414C5.95057 5.65884 6.42316 4.67367 6.97127 3.94041ZM18.3178 16.5659C16.6036 17.8798 14.4422 18.7686 12.1978 18.9595L12.1611 18.9623L12.1231 18.9595C9.90429 18.7703 7.77321 17.8955 6.07034 16.6068C6.02552 16.7498 6.00293 16.8932 6.00293 17.0361C6.00293 17.7648 6.59112 18.5117 7.71096 19.0957C8.8308 19.6796 10.43 20.0595 12.2006 20.0595C13.9714 20.0595 15.5706 19.6796 16.6905 19.0957C17.8103 18.5117 18.3985 17.7648 18.3985 17.0361C18.3985 16.8796 18.3716 16.7221 18.3178 16.5659ZM5.39651 18.1259C4.58229 18.7284 4.15137 19.4136 4.15137 20.0874C4.15137 20.6281 4.63385 21.4605 5.37748 22.1075C6.03579 22.6803 6.87199 23.102 7.59513 23.1915C8.04982 22.1283 8.54445 21.2436 9.07905 20.5459C8.42688 20.3724 7.82909 20.1453 7.30516 19.8721C6.44149 19.4217 5.75388 18.8274 5.39641 18.126L5.39651 18.1259ZM19.0034 18.1304C18.6454 18.83 17.9582 19.4226 17.0962 19.8721C16.5699 20.1465 15.969 20.3736 15.3134 20.5474C15.8477 21.2445 16.3428 22.1292 16.7974 23.19C17.4858 23.0964 18.3234 22.6773 18.9874 22.1074C19.7426 21.459 20.2412 20.6224 20.2412 20.0874C20.2412 19.4156 19.8132 18.7316 19.0034 18.1304Z" fill="currentColor"/>
</svg>
