<svg width="24" height="24" viewBox="0 0 24 24" fill="none" xmlns="http://www.w3.org/2000/svg">
<path d="M13.347 1.3694C13.2376 1.36868 13.1276 1.36945 13.0172 1.3717C11.4715 1.40282 9.83977 1.72307 8.40858 2.36695C6.77287 3.10279 5.40591 4.24959 4.65956 5.8672C3.95644 7.3912 3.79894 9.36365 4.542 11.8806C4.74972 11.7856 4.96083 11.6982 5.17491 11.6185C4.71244 9.55786 4.91161 7.85704 5.56402 6.50868C6.28889 5.01065 7.55452 3.9704 8.98355 3.30703C10.4125 2.6436 12.0109 2.34637 13.4713 2.325C13.5625 2.32368 13.6532 2.32339 13.7433 2.3241C14.8143 2.33282 15.7971 2.48789 16.5846 2.78517C16.9184 2.62767 17.2226 2.46201 17.4712 2.27648C16.5127 1.75565 15.1565 1.42551 13.6736 1.37592C13.5648 1.37226 13.4559 1.37012 13.347 1.3694ZM13.7357 3.16814C13.6523 3.16723 13.5682 3.16742 13.4836 3.1687C12.1298 3.18843 10.6359 3.4701 9.33886 4.07231C8.04178 4.67451 6.94762 5.58651 6.32353 6.87628C5.76797 8.02448 5.57109 9.49064 5.98406 11.3714C6.564 11.2352 7.0972 11.2076 7.55742 11.3153C8.02289 11.4243 8.44411 11.7441 8.57611 12.2206C8.59045 12.2724 8.60048 12.3254 8.60897 12.3787L13.3997 7.58793C12.8439 6.69778 12.6578 5.95743 12.827 5.31843C13.0148 4.60945 13.5976 4.16353 14.2355 3.82795C14.5841 3.64457 14.9615 3.48051 15.3393 3.3217C14.8545 3.22917 14.3101 3.17404 13.7357 3.16814ZM17.629 6.37092L15.3552 6.82565L13.7501 8.43075H15.5692V10.2497L17.1743 8.64464L17.629 6.37092ZM21.7235 6.52875C21.538 6.77723 21.3724 7.08131 21.215 7.41492C21.5373 8.26865 21.6921 9.3525 21.6749 10.5287C21.6536 11.9891 21.3563 13.5875 20.6929 15.0164C20.0295 16.4454 18.9893 17.7111 17.4912 18.4359C16.1429 19.0883 14.4421 19.2875 12.3814 18.825C12.3017 19.0391 12.2143 19.2502 12.1193 19.4579C14.6363 20.201 16.6087 20.0435 18.1328 19.3404C19.7504 18.594 20.8972 17.2271 21.633 15.5914C22.3688 13.9557 22.682 12.0581 22.624 10.3264C22.5744 8.84339 22.2443 7.4872 21.7235 6.52875ZM20.6783 8.66062C20.5194 9.03843 20.3553 9.41587 20.172 9.76443C19.8364 10.4023 19.3905 10.9852 18.6815 11.1729C18.0425 11.3422 17.3022 11.156 16.412 10.6002L11.6212 15.391C11.6746 15.3995 11.7275 15.4095 11.7794 15.4238C12.2558 15.5558 12.5756 15.9771 12.6846 16.4425C12.7924 16.9027 12.7647 17.4359 12.6286 18.0159C14.5093 18.4289 15.9755 18.232 17.1237 17.6764C18.4134 17.0523 19.3254 15.9582 19.9276 14.6611C20.5298 13.364 20.8115 11.8701 20.8312 10.5164C20.841 9.84942 20.7842 9.2159 20.6783 8.66062ZM13.1535 9.2745V10.8464H14.7255V9.2745H13.1535ZM12.3098 9.87107L10.7046 11.4763L10.25 13.75L12.5237 13.2953L14.1289 11.6902H12.3098V9.87107ZM9.62902 12.5519L7.89305 14.2879L9.71208 16.1069L11.4481 14.3709L9.17433 14.8256L9.62902 12.5519ZM7.29652 14.8844L6.08128 16.0995L7.90045 17.9187L9.11555 16.7035L7.29652 14.8844ZM5.48475 16.6961L0.75 21.4309V23.2499H2.56908L7.30378 18.5152L5.48475 16.6961Z" fill="currentColor"/>
</svg>
