<svg width="24" height="24" viewBox="0 0 24 24" fill="none" xmlns="http://www.w3.org/2000/svg">
<path d="M5.96191 0.858445C5.57651 0.858445 5.18848 1.03891 4.78854 1.44143C4.3886 1.84395 3.99916 2.46213 3.6694 3.24612C3.01005 4.81409 2.58691 7.03484 2.58691 9.48781C2.58691 11.9408 3.01005 14.1615 3.66945 15.7295C3.99921 16.5135 4.38865 17.1317 4.78863 17.5342C5.18862 17.9367 5.5766 18.1187 5.96191 18.1187V18.1143L10.3858 18.0996C9.50501 15.8779 9.16399 13.4376 9.28132 10.916C9.42663 7.79285 8.37654 5.09154 7.40773 4.16463C7.1322 3.90082 6.89435 3.81588 6.6739 3.82179C6.45345 3.8277 6.21138 3.93148 5.94438 4.19538C5.41048 4.72305 4.86841 5.88551 4.61726 7.5807C4.42601 8.87163 4.44288 10.3279 4.6421 11.5592C4.84151 12.7904 5.26109 13.7904 5.66463 14.149C5.8069 14.2754 5.90229 14.2976 5.9898 14.291C6.07746 14.2845 6.19371 14.2377 6.33855 14.0875C6.61685 13.7986 6.92852 13.1373 7.07684 12.1656C7.07524 12.1671 7.07393 12.1686 7.07238 12.17C7.13599 11.884 7.17344 11.5496 7.17344 11.1901C7.17344 10.1476 6.86491 9.30185 6.48504 9.30185C6.1233 9.30185 5.82846 10.0689 5.80095 11.0421C5.72946 10.7128 5.68816 10.3397 5.68816 9.94343C5.68816 8.61771 6.13995 7.54249 6.69738 7.54249C6.84176 7.54249 6.97901 7.61491 7.10318 7.74471C7.1043 7.74555 7.10515 7.74668 7.10618 7.74752C7.5859 8.15955 7.78798 8.83427 7.92063 9.60799C8.05751 10.4066 8.07579 11.3218 7.9616 12.1655C7.80565 13.3181 7.47251 14.1721 6.96841 14.6953C6.71637 14.9569 6.40263 15.1378 6.05435 15.1641C5.70607 15.1903 5.35905 15.0488 5.0831 14.8037C4.36723 14.1676 3.99326 13.0292 3.77801 11.6997C3.56276 10.3703 3.54551 8.84473 3.75162 7.45315C4.02007 5.6419 4.56607 4.32415 5.32784 3.57129C5.70874 3.19488 6.16596 2.95873 6.65205 2.94584C7.13815 2.93295 7.61337 3.14941 8.01284 3.53177C9.32815 4.79037 10.3109 7.62724 10.156 10.9571C10.0157 13.9724 10.5497 16.8146 11.9021 19.2803C12.3573 20.0808 12.9023 20.8268 13.5266 21.5039L13.5398 21.5186L15.0881 23.2471L15.7399 22.6612L15.3401 22.2159L15.9773 21.6504L15.283 20.8697C15.5648 20.775 15.862 20.7004 16.1708 20.6367C16.2221 20.6913 16.2844 20.7609 16.3611 20.8447C16.527 21.0259 16.7389 21.2598 16.9456 21.4907C17.3591 21.9526 17.7556 22.4018 17.7556 22.4018L18.4119 21.8217C18.4119 21.8217 18.0131 21.3722 17.5975 20.9077C17.4773 20.7735 17.3582 20.6418 17.2445 20.5151C17.2508 20.5187 17.2541 20.5203 17.2606 20.524C17.5402 20.6803 17.9002 20.8826 18.2551 21.0835C18.965 21.4854 19.6555 21.879 19.6555 21.879L20.0701 21.151C20.4798 21.3833 20.8895 21.6157 21.2991 21.8482L21.7341 21.0865C21.7341 21.0865 21.0422 20.6923 20.3308 20.2896C20.1033 20.1609 19.9019 20.0473 19.6921 19.9293C19.9033 19.8577 20.1101 19.7764 20.3118 19.6818L22.7595 19.7681L22.7888 18.8921L21.4204 18.8438C19.09 18.353 17.3407 15.3586 17.2631 12.0205C17.3761 11.22 17.4375 10.3697 17.4375 9.48785C17.4375 7.0886 16.9833 4.92063 16.2715 3.36916C15.5616 1.82182 14.6216 0.95257 13.7226 0.887695L5.96187 0.862852V0.858398L5.96191 0.858445Z" fill="currentColor"/>
</svg>
