<svg width="24" height="24" viewBox="0 0 24 24" fill="none" xmlns="http://www.w3.org/2000/svg">
<path d="M12.0002 5.95166C7.95186 5.95166 1.42686 7.78461 1.00329 11.106C0.542606 15.3631 4.65889 16.9356 7.79431 17.1442V13.4602C5.35058 13.4602 4.50031 12.3994 4.66892 11.106C5.00993 8.48994 9.36204 8.12413 12.0002 8.12413C14.6383 8.12413 18.9904 8.48999 19.3314 11.106C19.5 12.3993 18.6498 13.4602 16.206 13.4602V17.1442C19.3415 16.9356 23.4577 15.3631 22.997 11.106C22.7344 7.41482 16.0485 5.95166 12.0002 5.95166ZM15.359 13.0887L8.64129 13.0896V18.0407L15.359 18.0481V13.0887ZM14.5321 14.0968V15.2034H10.6747V16.1218H14.5321V17.1306H9.65145V14.0999H11.1669L14.5321 14.0968Z" fill="currentColor"/>
</svg>
