<svg width="24" height="24" viewBox="0 0 24 24" fill="none" xmlns="http://www.w3.org/2000/svg">
<path d="M5.99987 1.06792C5.47952 1.58078 5.07072 2.36167 4.77756 2.99931C5.06087 3.93976 5.29708 4.91504 6.06845 5.57397C6.95261 4.91701 7.33642 3.99184 7.71784 2.93251C7.2482 2.39795 6.76919 1.61111 5.99987 1.06792ZM17.9999 1.06792C17.2306 1.61106 16.7515 2.39795 16.2819 2.93251C16.6633 3.99184 17.0471 4.91701 17.9313 5.57397C18.7027 4.91504 18.9389 3.93976 19.2222 2.99931C18.929 2.36167 18.5202 1.58078 17.9999 1.06792ZM10.4169 2.16118C9.87569 2.29004 9.24747 2.50004 8.68066 2.75556C8.2765 4.11025 7.65297 5.3507 6.52605 6.25872L7.30183 14.5606L6.36747 14.1651L5.68262 6.30006C4.92498 5.54978 4.37008 4.28336 3.88309 2.95857C3.71692 2.85057 3.55108 2.76404 3.38523 2.70432C3.67759 6.59148 4.57309 11.4574 5.58864 15.5758C5.70789 15.5215 5.85798 15.4633 5.99758 15.4137C7.3787 15.7567 8.66922 16.7898 9.8342 17.9012C8.99987 12.7501 11.9999 7.50006 10.4169 2.16118ZM13.5828 2.16118C11.9999 7.50006 14.9999 12.7501 14.1655 17.9012C15.3305 16.7897 16.621 15.7566 18.0021 15.4136C18.1417 15.4633 18.2918 15.5214 18.4111 15.5758C19.4266 11.4574 20.3222 6.59143 20.6145 2.70428C20.4486 2.764 20.2828 2.85053 20.1167 2.95853C19.6296 4.28331 19.0747 5.54978 18.3171 6.30001L17.6322 14.165L16.6979 14.5606L17.4737 6.25867C16.3468 5.3507 15.7232 4.1102 15.3191 2.75546C14.7522 2.5 14.124 2.29 13.5828 2.16109L13.5828 2.16118ZM6.04694 16.3046C5.42303 16.5705 4.73842 17.165 4.49941 17.9296C5.61152 18.1489 6.97478 18.7924 8.03959 19.8228L8.22461 21.0822L9.79337 20.5162L9.73103 19.153C8.80525 17.8076 7.33698 16.6724 6.04694 16.3046ZM17.9528 16.3046C16.6628 16.6724 15.1945 17.8076 14.2687 19.153L14.2064 20.5162L15.7751 21.0822L15.9602 19.8228C17.025 18.7924 18.3883 18.1489 19.5003 17.9296C19.2613 17.165 18.5767 16.5705 17.9528 16.3046ZM4.25097 18.7361L1.80142 20.577C1.31805 21.2919 1.19566 22.1056 1.39562 22.7875C3.85933 23.2232 5.53244 22.6335 7.44452 21.5764L7.24412 20.2131C6.55492 19.5036 5.66608 18.9777 4.25097 18.7361ZM19.7489 18.7361C18.3338 18.9777 17.4449 19.5036 16.7557 20.2131L16.5553 21.5764C18.4674 22.6334 20.1405 23.2232 22.6042 22.7875C22.8042 22.1055 22.6818 21.2919 22.1984 20.577L19.7489 18.7361Z" fill="currentColor"/>
</svg>
