<svg width="24" height="24" viewBox="0 0 24 24" fill="none" xmlns="http://www.w3.org/2000/svg">
<path d="M19.341 1.27734C16.4121 1.88034 14.2329 3.38344 12.3744 5.13047C11.9764 5.54227 11.5935 5.97394 11.224 6.42234C11.4536 6.51394 11.6661 6.61523 11.8476 6.75469C11.8623 6.73617 11.8804 6.7125 11.8947 6.69441C12.1892 6.32034 12.3849 6.07176 12.5126 5.93864L13.1214 6.5227C13.0967 6.54858 12.8483 6.84708 12.5577 7.21626C12.2672 7.58545 11.9053 8.05364 11.5486 8.52361C11.192 8.99344 10.8402 9.46551 10.5708 9.84051C10.4362 10.028 10.3219 10.1916 10.2398 10.3154C10.1577 10.4391 10.0998 10.5584 10.1187 10.5091L9.33158 10.2054C9.38783 10.0596 9.44478 9.98751 9.53666 9.849C9.58737 9.77259 9.64775 9.68494 9.71356 9.59091C9.52653 9.48825 9.32778 9.39356 9.12467 9.32512C8.56944 10.1857 8.04092 11.0757 7.52942 11.9787C7.75161 12.0209 7.96934 12.0795 8.16927 12.1706C8.19495 12.1823 8.22058 12.1946 8.24614 12.2074C8.35278 12.0283 8.45005 11.868 8.53067 11.7411C8.62081 11.5994 8.67355 11.5114 8.76177 11.4135L9.38867 11.9782C9.40292 11.9625 9.32502 12.0644 9.24275 12.1938C9.16044 12.3232 9.05506 12.4965 8.93609 12.6975C8.78834 12.947 8.61861 13.2414 8.44316 13.5507C8.40003 13.6274 8.3555 13.7064 8.30638 13.7926C8.24389 13.9037 8.18112 14.0156 8.11859 14.128C7.83209 14.6433 7.55159 15.1613 7.33887 15.5716C7.23247 15.7768 7.14294 15.9554 7.07933 16.0901C7.01567 16.2247 6.97466 16.3503 6.98591 16.3024L6.16466 16.1089C6.19967 15.9605 6.24538 15.8799 6.31639 15.7296C6.36373 15.6296 6.42373 15.5096 6.48875 15.3814C6.4805 15.3771 6.473 15.3727 6.46236 15.3678C6.39683 15.3372 6.27927 15.3097 6.12908 15.2996C6.00814 15.2914 5.86892 15.2942 5.72061 15.3007C5.39436 15.9126 5.06998 16.5216 4.74505 17.122C5.88055 16.9473 7.07942 17.1635 8.15366 17.6501C9.33537 18.1854 10.3761 19.0487 11.0213 20.1241C11.4718 19.5945 11.9147 19.0586 12.35 18.5165C12.0674 18.1862 11.7442 17.8835 11.3856 17.6022C11.2085 17.8547 10.813 18.4183 10.813 18.4183L10.1218 17.9341C10.1218 17.9341 10.8627 16.8762 11.6141 15.8079C11.9611 15.314 12.3091 14.8207 12.658 14.328C12.8029 14.1235 12.9257 13.951 13.0157 13.826C13.0607 13.7634 13.0973 13.7128 13.1254 13.6747C13.1395 13.6557 13.1514 13.6399 13.1623 13.6256C13.1733 13.6113 13.1639 13.6155 13.2144 13.565L13.8109 14.1617C13.8254 14.1472 13.8257 14.1465 13.8294 14.1425C13.8241 14.1493 13.8156 14.1605 13.8041 14.176C13.7799 14.2089 13.7444 14.2577 13.7005 14.3187C13.5819 14.484 13.4638 14.6498 13.3462 14.8159C13.3242 14.847 13.2898 14.8961 13.2669 14.9285C13.6726 15.2141 14.0373 15.5591 14.3431 15.9362C15.0307 15.0131 15.6972 14.0857 16.3517 13.1555C16.0578 12.803 15.7186 12.4816 15.3397 12.1843C15.1626 12.4368 14.7669 13.0003 14.7669 13.0003L14.0758 12.5162C14.0758 12.5162 14.8167 11.4583 15.5681 10.3899C15.9152 9.89604 16.2631 9.40276 16.612 8.91009C16.757 8.70553 16.8798 8.53303 16.9698 8.40797C17.0148 8.34534 17.0513 8.29495 17.0795 8.2568C17.0936 8.23777 17.1053 8.22201 17.1163 8.20772C17.1274 8.19342 17.1179 8.19755 17.1684 8.14711L17.765 8.74383C17.7793 8.72944 17.7795 8.72883 17.7832 8.72475C17.7779 8.73156 17.7696 8.74266 17.7582 8.75803C17.7338 8.79098 17.6984 8.83978 17.6546 8.90076C17.5667 9.02278 17.4446 9.19434 17.3002 9.39801C17.2782 9.42905 17.2438 9.47808 17.2208 9.51051C17.5983 9.7762 17.9404 10.0933 18.2324 10.4399C18.9262 9.42619 19.6161 8.41078 20.3132 7.39533C19.9305 6.705 19.6752 5.70853 19.5038 4.58752C19.3393 3.5122 19.2777 2.34394 19.3408 1.27739L19.341 1.27734ZM18.1722 2.40178L18.1737 2.98453C18.1769 4.21898 18.185 5.68805 18.5609 6.81478L18.7505 7.38323L18.1514 7.37011C17.157 7.34822 16.1853 7.06626 15.3943 6.67509C14.6034 6.28392 13.9814 5.81569 13.7107 5.22262L13.5804 4.93716L13.8163 4.73034C14.8037 3.86409 16.2216 3.04819 17.619 2.58506L18.1722 2.40178ZM17.3339 3.5902C16.3648 3.98048 15.3976 4.54364 14.6645 5.12419C14.8878 5.36873 15.2743 5.67441 15.7684 5.91872C16.2997 6.18155 16.9408 6.387 17.5947 6.47672C17.3743 5.51831 17.3402 4.50502 17.3339 3.5902ZM10.0519 6.98723L9.14745 8.4502C9.54402 8.54536 9.88967 8.71477 10.1795 8.88253C10.314 8.69344 10.4446 8.51137 10.7054 8.13666C10.8914 7.86933 11.0761 7.60031 11.2087 7.39945C11.2139 7.39172 11.2155 7.38867 11.2205 7.38117C11.0847 7.29848 10.9074 7.20187 10.7215 7.13311C10.4499 7.03261 10.1935 6.99919 10.0518 6.98723H10.0519ZM16.7822 10.2401L15.8905 11.5455C16.5878 12.0986 17.1815 12.7485 17.6241 13.5181L18.3542 12.4149C18.1666 11.709 17.555 10.8165 16.7822 10.2402L16.7822 10.2401ZM6.7378 12.7459C6.64264 12.7442 6.60327 12.7517 6.53483 12.7554L5.70552 14.4598C5.86348 14.4539 6.02342 14.4468 6.1858 14.4578C6.3965 14.472 6.61095 14.506 6.81955 14.6035C6.83066 14.6086 6.84125 14.6166 6.85236 14.6222C6.98623 14.3928 7.07052 14.2497 7.28698 13.8742C7.46136 13.5718 7.63517 13.2681 7.76277 13.0399C7.78644 12.9974 7.79816 12.9747 7.81836 12.9382C7.69958 12.8842 7.5193 12.8327 7.32645 12.7985C7.13309 12.7641 6.9185 12.7491 6.7377 12.746L6.7378 12.7459ZM12.828 15.658L11.9363 16.9634C12.6336 17.5165 13.2274 18.1663 13.67 18.936L14.4001 17.8327C14.2125 17.1267 13.6008 16.2344 12.828 15.658ZM4.53008 18.0202C4.37365 18.0578 4.21988 18.1058 4.06977 18.1636L3.6875 18.3114C3.75191 20.4264 5.02222 21.915 6.54462 22.4739C7.98308 23.0022 9.68009 22.7028 10.7313 21.4556L10.553 21.0436C10.4853 20.8882 10.408 20.7372 10.3213 20.5915C9.53333 21.858 8.10805 22.1494 6.83553 21.6821C5.55575 21.2122 4.47378 19.9784 4.53008 18.0202Z" fill="currentColor"/>
</svg>
