<svg width="24" height="24" viewBox="0 0 24 24" fill="none" xmlns="http://www.w3.org/2000/svg">
<path d="M20.5798 3.32745C20.5324 3.32845 20.485 3.33246 20.438 3.33945C20.2215 3.37076 19.9168 3.46123 19.5568 3.60963C18.837 3.90645 17.8932 4.42938 16.8341 5.11226C16.3344 5.43448 15.8079 5.79335 15.2647 6.18007C15.7588 6.24729 16.2897 6.36874 16.7933 6.52203C17.4175 6.71187 17.991 6.94296 18.4067 7.20935C18.6145 7.34257 18.7913 7.47499 18.9148 7.69451C18.9765 7.8042 19.0225 7.94965 19.0047 8.10673C18.9869 8.26381 18.9026 8.40813 18.8031 8.50563C18.382 8.91799 17.7724 9.01517 17.1281 9.01563C16.4839 9.0161 15.7826 8.89517 15.1461 8.70148C14.5096 8.50779 13.9433 8.25382 13.5508 7.90615C13.4609 7.82656 13.3775 7.73918 13.3079 7.64145C12.6887 8.12468 12.0783 8.61907 11.477 9.12438C12.1203 9.19915 12.8884 9.35956 13.6289 9.55643C14.3776 9.75551 15.0914 9.98942 15.6161 10.2208C15.8783 10.3365 16.0903 10.4444 16.2645 10.5847C16.3516 10.6547 16.4382 10.7295 16.5027 10.8772C16.567 11.0247 16.5413 11.2914 16.4244 11.43L16.4214 11.4335L16.4184 11.4369C15.9657 11.9509 15.2471 12.1247 14.474 12.1702C13.7009 12.2157 12.8472 12.113 12.0689 11.9143C11.2907 11.7155 10.593 11.4328 10.1137 11.0356C9.97048 10.9169 9.842 10.784 9.74661 10.6299C9.20838 11.1154 8.67926 11.6109 8.15951 12.1161C8.33782 12.1272 8.52439 12.1519 8.71892 12.1871C9.36232 12.3033 10.0887 12.5346 10.7619 12.8152C11.4351 13.0957 12.0482 13.4185 12.4767 13.7599C12.6909 13.9307 12.8684 14.0979 12.9753 14.3433C13.0287 14.4659 13.0607 14.6208 13.0278 14.7806C12.9948 14.9405 12.8959 15.0829 12.7819 15.1772C12.2884 15.5861 11.6068 15.6377 10.8937 15.5711C10.1808 15.5046 9.41482 15.2945 8.72951 15.0089C8.0442 14.7233 7.44326 14.3749 7.05218 13.9486C6.93547 13.8214 6.8329 13.6829 6.76353 13.5276C6.18697 14.1361 5.65259 14.7365 5.1732 15.3179C5.33223 15.3886 5.492 15.4576 5.6525 15.5249C6.13718 15.7286 6.74211 15.9724 7.31731 16.206C7.89246 16.4394 8.43654 16.662 8.81281 16.8291C9.00092 16.9128 9.13953 16.9764 9.25353 17.0447C9.28203 17.0617 9.30922 17.0786 9.34465 17.1069C9.38004 17.1353 9.44047 17.1443 9.50018 17.3246C9.53004 17.4146 9.52526 17.5899 9.44581 17.7046C9.37854 17.8017 9.3065 17.8362 9.25142 17.8566C8.78923 18.2487 8.16687 18.3635 7.54597 18.3328C6.88034 18.3 6.18987 18.1036 5.58209 17.82C4.97431 17.5364 4.448 17.1761 4.12381 16.7244C4.11959 16.7186 4.1157 16.7124 4.11162 16.7065C4.05584 16.7866 4.001 16.8663 3.94831 16.9451C3.31582 17.8911 2.91462 18.7416 2.80475 19.3755C2.69853 19.9884 2.80212 20.3393 3.19531 20.6194C4.46904 21.0653 6.40821 20.4571 8.53859 19.0973C10.6948 17.721 13.0203 15.6316 15.0639 13.4021C17.1077 11.1727 18.8735 8.79856 19.9267 6.87528C20.4534 5.91363 20.7989 5.0614 20.9195 4.43215C20.9799 4.11743 20.9824 3.86154 20.9452 3.68403C20.9096 3.51415 20.8497 3.42213 20.7574 3.34887C20.7504 3.34568 20.7298 3.33762 20.681 3.3319C20.6474 3.32816 20.6136 3.32662 20.5797 3.32731L20.5798 3.32745ZM14.4984 6.96729C14.393 6.96795 14.2997 6.97399 14.2227 6.98501C14.1939 6.98909 14.1688 6.99438 14.1456 6.99992C14.0909 7.04104 14.0362 7.08238 13.9814 7.12395C13.9998 7.15615 14.0364 7.20926 14.1101 7.27456C14.3365 7.47509 14.8292 7.72315 15.3917 7.89438C15.9543 8.06557 16.5921 8.17235 17.1274 8.17198C17.5287 8.1717 17.8598 8.09735 18.0592 8.00262C18.0262 7.97543 17.9984 7.94988 17.9514 7.91974C17.6546 7.72953 17.1226 7.50415 16.5477 7.32921C15.9728 7.15427 15.3472 7.02326 14.8466 6.9814C14.7308 6.97153 14.6147 6.96679 14.4985 6.9672L14.4984 6.96729ZM10.7899 9.92417C10.743 9.92426 10.6962 9.92595 10.6494 9.92923C10.5777 9.93457 10.531 9.94938 10.5036 9.95852L10.4475 10.0077C10.4234 10.048 10.4215 10.073 10.4282 10.1026C10.4387 10.1494 10.4992 10.2593 10.6522 10.386C10.9581 10.6396 11.5774 10.9181 12.2777 11.0969C12.9781 11.2758 13.7648 11.3669 14.4244 11.328C14.8571 11.3025 15.2127 11.2092 15.4688 11.088C15.4078 11.0567 15.3507 11.026 15.2757 10.9929C14.8196 10.7918 14.1298 10.5626 13.4122 10.3719C12.6946 10.1811 11.9433 10.0263 11.3598 9.95993C11.2138 9.94338 11.078 9.9326 10.9579 9.92759C10.9019 9.92507 10.8459 9.92393 10.7899 9.92417H10.7899ZM7.93376 12.9533C7.90936 12.9535 7.88598 12.9542 7.86364 12.9553C7.68495 12.9644 7.58923 13.0136 7.58932 13.0135C7.4945 13.092 7.51301 13.0897 7.51536 13.1178C7.5177 13.1457 7.55332 13.247 7.67379 13.3783C7.91473 13.6408 8.44114 13.9748 9.05398 14.2302C9.66682 14.4856 10.3699 14.675 10.9721 14.7312C11.4867 14.7792 11.8995 14.7081 12.1306 14.5894C12.0756 14.5278 12.0155 14.4711 11.9509 14.4198C11.6336 14.1669 11.0623 13.8543 10.4373 13.5939C9.81246 13.3335 9.12678 13.1182 8.56887 13.0174C8.32475 12.9733 8.10471 12.9519 7.93376 12.9533ZM4.71007 16.0351C4.72479 16.0878 4.75039 16.1505 4.80926 16.2324C4.99198 16.487 5.42084 16.8138 5.93881 17.0555C6.45678 17.2973 7.06301 17.4644 7.58768 17.4903C7.78456 17.5 7.9594 17.4836 8.12122 17.4549C7.78981 17.3138 7.43754 17.1655 6.99996 16.9878C6.42621 16.7548 5.81984 16.5105 5.32573 16.303C5.08868 16.2033 4.88215 16.1137 4.71012 16.035L4.71007 16.0351ZM9.05337 17.0474C9.05229 17.0474 9.04868 17.0486 9.04765 17.0486L9.07695 17.0502C9.07404 17.0501 9.06922 17.0468 9.05332 17.0474H9.05337Z" fill="currentColor"/>
</svg>
