<svg width="24" height="24" viewBox="0 0 24 24" fill="none" xmlns="http://www.w3.org/2000/svg">
<path d="M10.5023 4.48589C10.1705 4.48401 9.95419 4.70639 9.82341 4.89806C9.69262 5.08978 9.60759 5.30034 9.53812 5.50425C9.48375 5.66409 9.441 5.82065 9.40875 5.95293H10.282C10.2988 5.89471 10.3167 5.83551 10.3369 5.77621C10.3924 5.61309 10.4637 5.45671 10.5204 5.37356C10.5438 5.33934 10.551 5.3339 10.5538 5.32996L13.4449 5.34576C13.4478 5.3497 13.4566 5.35631 13.4807 5.39123C13.5373 5.4735 13.6082 5.62748 13.6637 5.78812C13.6828 5.84343 13.6997 5.89856 13.7157 5.95293H14.5902C14.5579 5.82295 14.5154 5.66957 14.4613 5.51292C14.3917 5.31136 14.3064 5.10276 14.1756 4.91273C14.0447 4.7227 13.8307 4.50398 13.5023 4.50225L10.5023 4.48584L10.5023 4.48589ZM4.5 6.79668C4.26562 6.79668 3.98203 6.92686 3.76702 7.14182C3.552 7.35679 3.42188 7.64043 3.42188 7.87481V8.87207L6.22575 13.0779H6.82378V12.3279H9.16753V13.0779H14.5781V12.3279H16.9219V13.0779H17.7742L20.5781 8.87207V7.87481C20.5781 7.64043 20.448 7.35684 20.233 7.14182C20.018 6.92681 19.7344 6.79668 19.5 6.79668H4.5ZM3.42188 10.3932V17.6248C3.42188 17.8592 3.55205 18.1428 3.76702 18.3578C3.98198 18.5728 4.26562 18.7029 4.5 18.7029H19.5C19.7344 18.7029 20.018 18.5728 20.233 18.3578C20.448 18.1428 20.5781 17.8592 20.5781 17.6248V10.3932L18.2258 13.9217H16.9219V15.8524H14.5781V13.9217H9.16753V15.8524H6.82378V13.9217H5.77425L3.42188 10.3932ZM7.66753 13.1717V15.0086H8.32378V13.1717H7.66753ZM15.4219 13.1717V15.0086H16.0781V13.1717H15.4219Z" fill="currentColor"/>
</svg>
