<svg width="24" height="24" viewBox="0 0 24 24" fill="none" xmlns="http://www.w3.org/2000/svg">
<path d="M15.5197 22.9193L10.7745 20.7137C10.4606 20.5674 10.3236 20.1937 10.4697 19.8786L13.8274 12.6547C13.9735 12.3402 14.3477 12.2036 14.6619 12.3496L19.4071 14.5559C19.7216 14.7019 19.858 15.0756 19.7122 15.3901L16.3541 22.614C16.2079 22.9287 15.8339 23.0649 15.5197 22.9194L15.5197 22.9193ZM4.0687 22.1311L0.918515 14.8142C0.781312 14.4955 0.928734 14.1257 1.24683 13.9888L2.80659 13.3172L4.75556 20.6414C4.94259 21.3416 5.66119 21.7589 6.36183 21.5725L7.91527 21.159L4.89441 22.4598C4.57575 22.5967 4.20595 22.4495 4.06875 22.1309L4.0687 22.1311ZM5.41748 20.4654L3.36886 12.7667C3.27956 12.4315 3.47958 12.0872 3.81427 11.9981L5.16848 11.6379L5.00559 12.8503C4.90903 13.5681 5.41247 14.2295 6.13106 14.3263L9.30797 14.7545L8.01487 19.1108C7.88152 19.5598 8.0002 20.0242 8.28816 20.3517L6.18595 20.9107C5.85098 21.0001 5.50659 20.8006 5.41753 20.4654L5.41748 20.4654ZM9.73256 20.2758L9.09492 20.0864C8.76211 19.9874 8.57273 19.638 8.67145 19.3052L10.9385 11.6684C11.0375 11.3356 11.3874 11.1462 11.7194 11.2446L13.6725 11.8249L13.6728 11.8247L13.678 11.8263L13.6725 11.8249C13.4699 11.9584 13.3085 12.1459 13.2067 12.3662L9.84839 19.5909C9.74891 19.8046 9.70891 20.0412 9.73261 20.2757L9.73256 20.2758ZM9.50541 14.0904L6.22261 13.6479C5.87911 13.6014 5.63761 13.2849 5.68383 12.9411L6.74766 5.04592C6.79392 4.70232 7.11094 4.46092 7.45359 4.50704L12.6403 5.20604C12.9835 5.25245 13.2253 5.56923 13.1788 5.91245L12.5244 10.7697L11.9141 10.5885C11.2191 10.3819 10.4886 10.7791 10.2825 11.4734L9.5055 14.0904H9.50541ZM21.3799 13.684L21.0399 12.9369L22.7939 12.1409L23.1328 12.8886L21.3799 13.684ZM20.9415 12.3807L19.4043 8.99528C19.9429 8.86696 20.4523 8.63776 20.9055 8.31981L22.4396 11.701L20.9415 12.3807V12.3807ZM17.0316 8.24842C15.1095 7.49026 14.1651 5.31474 14.9233 3.39202C15.6817 1.47048 17.8578 0.525619 19.7797 1.28373C21.702 2.04217 22.6461 4.21829 21.8882 6.14092C21.1295 8.06256 18.9537 9.00718 17.0315 8.24842H17.0316ZM21.0806 5.82123C21.6634 4.34523 20.9382 2.67428 19.461 2.09171C17.9848 1.5092 16.3139 2.23445 15.7307 3.71096C15.1482 5.18752 15.8737 6.85909 17.3506 7.44127C18.8272 8.02393 20.4981 7.29863 21.0806 5.82128L21.0806 5.82123ZM19.6694 5.02623C19.7612 3.96934 19.0771 3.02195 18.0908 2.74562C18.2717 2.71131 18.4611 2.70081 18.654 2.7174C19.7916 2.81584 20.6364 3.81859 20.5382 4.95653C20.4408 6.07871 19.4641 6.91543 18.346 6.84437C19.0663 6.54062 19.5977 5.85859 19.6693 5.02623H19.6694Z" fill="currentColor"/>
</svg>
