<svg width="24" height="24" viewBox="0 0 24 24" fill="none" xmlns="http://www.w3.org/2000/svg">
<path d="M21.7248 1.73486L20.286 4.11321L19.9559 4.00633C18.6834 3.59397 16.6031 3.67118 15.3809 4.01149L15.0573 4.10168L13.7129 1.82622C12.1365 5.0725 12.2005 7.33685 13.0196 8.79063C13.8967 10.3473 15.7092 11.0917 17.6657 11.0675C19.9506 11.0391 21.8361 10.1457 22.683 8.52719C23.476 7.01163 23.4182 4.75582 21.7247 1.73491L21.7248 1.73486ZM15.1846 6.44983C16.0494 6.45452 16.5608 7.1688 16.6593 8.16752C14.9198 9.00705 14.1298 8.3268 13.7919 6.92322C14.3254 6.59214 14.7914 6.44772 15.1845 6.44979L15.1846 6.44983ZM20.3061 6.44983C20.6992 6.44772 21.1652 6.59214 21.6988 6.92327C21.3608 8.3268 20.5708 9.00705 18.8312 8.16752C18.9299 7.1688 19.4413 6.45447 20.3061 6.44983H20.3061ZM6.54583 8.83858C6.48836 8.83814 6.43117 8.83843 6.37426 8.83943C4.95981 8.86455 3.74261 9.33583 2.82381 10.0851C0.787373 11.7459 0.139279 14.8078 2.22269 17.8753C3.17392 19.4688 4.30544 20.4178 5.54129 20.8841C7.08114 21.4651 8.66575 21.2977 10.226 21.0769C11.7862 20.8562 13.3129 20.5787 14.768 20.6823C16.223 20.7859 17.6785 21.1594 19.0104 22.6119C19.9186 23.6021 21.2082 22.5356 20.127 21.4795C18.4852 19.8761 16.7273 19.2567 14.9999 19.1339C13.2726 19.0111 11.6155 19.3541 10.1152 19.5665C8.61489 19.7788 7.28997 19.8736 6.15156 19.4441C5.47703 19.1896 4.82462 18.7503 4.2039 17.9844H20.6919C21.3328 15.5331 21.3888 12.9984 20.7797 11.3247C19.8532 11.7227 18.7916 11.9294 17.6766 11.9433H17.6765C16.2773 11.9607 14.8894 11.6187 13.7902 10.8735C13.5639 11.0203 13.3405 11.1717 13.1203 11.3275L12.8515 11.5177L12.5942 11.3123C10.4084 9.56852 8.32722 8.85227 6.54587 8.83853L6.54583 8.83858Z" fill="currentColor"/>
</svg>
