<svg width="24" height="24" viewBox="0 0 24 24" fill="none" xmlns="http://www.w3.org/2000/svg">
<path d="M15.2538 1.5083L10.4328 11.1504H11.0755L11.7019 10.5241L12.0002 10.2257L12.9249 11.1504H16.2189L19.7321 2.71889C19.3519 2.48518 18.6085 2.16975 17.7955 1.94804C16.9025 1.70447 15.9379 1.54238 15.2538 1.5083ZM8.72855 1.50929C8.0453 1.54543 7.09013 1.70663 6.2049 1.94804C5.3919 2.16975 4.64846 2.48522 4.2683 2.71889L7.78144 11.1504H9.48957L11.3047 7.52021L8.72855 1.50929ZM10.0996 2.56693L11.7989 6.5318L13.7669 2.59566C12.5037 2.86529 11.3725 2.85633 10.0996 2.56693ZM4.1447 4.61602L2.09668 7.68821L5.1848 9.54113L5.89918 8.82675L4.1447 4.61602ZM19.8557 4.61602L18.1012 8.82675L18.8155 9.54113L21.9037 7.68816L19.8557 4.61602ZM12.0002 11.4188L11.043 12.376L12.0002 13.8118L12.9574 12.376L12.0002 11.4188ZM7.17207 11.9942V13.4005H10.712L9.95738 12.2686L10.2317 11.9942H7.17207ZM13.7686 11.9942L14.043 12.2686L13.2884 13.4005H16.8283V11.9942H13.7686ZM7.71591 14.2442L6.49505 21.9899C11.8491 22.6587 12.1513 22.6587 17.5053 21.9899L16.2845 14.2442H12.7259L12.0002 15.3328L11.2745 14.2442L7.71591 14.2442Z" fill="currentColor"/>
</svg>
