<svg width="24" height="24" viewBox="0 0 24 24" fill="none" xmlns="http://www.w3.org/2000/svg">
<path d="M22.9903 9.24016L22.7023 8.95216C22.8887 8.56502 22.9525 8.13028 22.8855 7.7059C22.8184 7.28153 22.6236 6.88767 22.327 6.57683C22.1249 6.37505 21.882 6.21889 21.6145 6.11884C21.347 6.0188 21.0612 5.97719 20.7763 5.99683C20.5086 6.01195 20.2456 6.07448 19.9997 6.1815V1.3335H1.33301V22.6668H19.9997V11.8802L22.0597 9.82016L22.2357 9.9955C22.2588 10.0184 22.2771 10.0457 22.2896 10.0757C22.3021 10.1058 22.3085 10.138 22.3085 10.1705C22.3085 10.203 22.3021 10.2352 22.2896 10.2653C22.2771 10.2953 22.2588 10.3226 22.2357 10.3455L20.667 11.9148C20.5669 12.0148 20.5107 12.1505 20.5106 12.2919C20.5106 12.4334 20.5667 12.5691 20.6667 12.6692C20.7667 12.7692 20.9023 12.8255 21.0438 12.8256C21.1852 12.8256 21.3209 12.7695 21.421 12.6695L22.9903 11.1002C23.2366 10.8533 23.375 10.5189 23.375 10.1702C23.375 9.82146 23.2366 9.487 22.9903 9.24016ZM5.33301 5.46683H16.001V6.5335H5.33301V5.46683ZM5.33301 8.1335H16.001V9.20016H5.33301V8.1335ZM5.33301 10.8002H12.333V11.8668H5.33301V10.8002ZM15.1943 19.9308H9.99167C9.39034 19.9308 8.82767 19.8742 8.52901 19.3815C8.22301 18.8782 8.52701 18.2935 8.74901 17.8655C8.78834 17.7902 8.70101 17.6968 8.60101 17.8002C8.30767 18.1015 7.84101 18.6442 7.46567 19.0802C7.06901 19.5415 6.91167 19.7222 6.82767 19.7982C6.73881 19.9014 6.6181 19.9721 6.48459 19.9992C6.35109 20.0262 6.21238 20.008 6.09034 19.9475C5.98086 19.8841 5.89509 19.7867 5.8461 19.6701C5.79712 19.5535 5.7876 19.424 5.81901 19.3015C5.84701 19.1348 6.32301 17.2802 6.75434 15.6128C6.18101 16.6308 4.36101 19.6795 4.27567 19.8228C4.2122 19.9292 4.10908 20.006 3.98899 20.0363C3.8689 20.0666 3.74169 20.048 3.63534 19.9845C3.52899 19.921 3.45221 19.8179 3.42189 19.6978C3.39157 19.5777 3.4102 19.4505 3.47367 19.3442C3.49701 19.3062 5.77701 15.4855 6.06434 14.9308C6.15801 14.7091 6.33235 14.5312 6.55212 14.4331C6.7719 14.335 7.02073 14.3239 7.24834 14.4022C7.45379 14.4857 7.61996 14.6439 7.71336 14.8451C7.80676 15.0462 7.82045 15.2753 7.75167 15.4862C7.51167 16.4115 7.26701 17.3608 7.07834 18.0995C7.38301 17.7475 7.70167 17.3862 7.93167 17.1495C8.10875 16.9368 8.35062 16.7879 8.6203 16.7257C8.88998 16.6634 9.17262 16.6912 9.42501 16.8048C9.58206 16.8844 9.70788 17.0144 9.78234 17.1739C9.85679 17.3334 9.87557 17.5133 9.83567 17.6848C9.77178 17.8971 9.68505 18.1019 9.57701 18.2955C9.39901 18.6655 9.48367 18.9968 9.99167 18.9968H15.1937C15.3174 18.9968 15.4361 19.046 15.5237 19.1335C15.6112 19.221 15.6603 19.3397 15.6603 19.4635C15.6603 19.5873 15.6112 19.706 15.5237 19.7935C15.4361 19.881 15.3174 19.9302 15.1937 19.9302L15.1943 19.9308ZM13.807 16.5642L12.071 17.0222C12.0457 17.0292 12.0191 17.0293 11.9937 17.0225C11.9684 17.0157 11.9454 17.0022 11.927 16.9835C11.9082 16.9652 11.8946 16.9422 11.8877 16.9169C11.8807 16.8915 11.8807 16.8648 11.8877 16.8395L12.3303 15.1068L16.7237 10.7135L18.1903 12.1802L13.807 16.5642ZM21.451 8.9195L18.9443 11.4262L17.4777 9.9595L19.9843 7.45283C20.2085 7.22239 20.5102 7.08321 20.831 7.06216L20.891 7.06016C21.0169 7.0578 21.142 7.08058 21.259 7.12717C21.376 7.17376 21.4825 7.24323 21.5723 7.3315C21.765 7.55895 21.8603 7.85317 21.8376 8.1504C21.8149 8.44764 21.676 8.72395 21.451 8.9195Z" fill="currentColor"/>
</svg>
