<svg width="24" height="24" viewBox="0 0 24 24" fill="none" xmlns="http://www.w3.org/2000/svg">
<path d="M11.9114 0.873047C8.09577 0.873047 1.06312 8.18414 3.86624 14.9716C4.24124 16.1576 5.17077 17.3341 6.16921 18.5857C7.31296 20.0201 8.58796 21.5482 9.38952 23.1279H10.3505C9.50202 21.2623 8.07702 19.5701 6.85359 18.0373C5.56921 16.4295 4.56937 14.981 4.56937 13.917C4.57406 13.4904 4.6739 13.0685 4.82859 12.6841C5.90671 9.80602 10.1723 7.0732 11.7895 6.35602L11.9583 6.26227L12.1411 6.3232C14.9958 7.30289 18.202 9.44977 19.3598 12.6841C19.552 13.2326 19.6364 13.5279 19.6223 13.9638C19.5989 14.7045 18.4739 16.5279 17.0442 18.1216C15.6801 19.6404 14.1192 21.2951 13.2942 23.1232H14.2552C15.0427 21.6138 16.4208 20.1232 17.6911 18.7076C18.7786 17.5076 19.8145 16.3638 20.2645 15.2013C22.7442 9.38883 15.6145 0.873047 11.9114 0.873047ZM11.9489 7.2232C10.1348 8.23102 7.95984 9.67008 6.61921 11.3576C7.0739 15.2482 9.38484 18.206 12.1645 18.206C14.9395 18.206 17.2411 15.267 17.7051 11.3951C16.3505 9.42164 14.0489 7.97789 11.9489 7.2232ZM9.21609 11.1138H9.32859C9.94265 11.1185 10.552 11.2404 11.1614 11.4607C10.3739 13.3638 8.39577 13.4295 7.50046 11.4607C8.07234 11.2357 8.64421 11.1232 9.21609 11.1138ZM15.0708 11.1138C15.6801 11.1091 16.2895 11.2216 16.9036 11.4607C16.0036 13.4295 14.0301 13.3638 13.238 11.4607C13.852 11.2404 14.4614 11.1185 15.0708 11.1138Z" fill="currentColor"/>
</svg>
