<svg width="24" height="24" viewBox="0 0 24 24" fill="none" xmlns="http://www.w3.org/2000/svg">
<path d="M4.19967 0.848145L3.69577 1.35205L3.69717 1.35346L4.98773 16.9892L1.0957 21.3457L2.6543 22.9043L6.88031 19.1279L22.6392 20.2954L22.6479 20.3041L22.6552 20.2968H22.6567V20.2954L23.1518 19.8002C23.0733 19.7217 23.0055 19.6391 22.9321 19.5585C21.9322 18.3609 21.7408 16.5942 21.2695 14.4433C20.8793 12.6625 20.2746 10.6445 18.7807 8.58252L16.9965 10.9642C16.9968 10.9646 16.9963 10.9655 16.9965 10.9657C18.3554 12.6567 19.1541 14.1423 19.7959 15.4775C20.4998 16.9422 21.0204 18.2431 21.8803 19.4003L7.74905 18.3516L15.8217 11.1372L18.8393 7.10736L16.8926 5.16064L12.8657 8.17527L5.75667 16.1294L4.60102 2.12108C5.75789 2.9803 7.05844 3.50043 8.52239 4.20411C9.85786 4.84597 11.3443 5.64411 13.0356 7.0034L15.4174 5.21924C13.3554 3.7258 11.3374 3.12224 9.55664 2.73191C7.40559 2.26049 5.63902 2.06779 4.44136 1.0678C4.36073 0.994488 4.27823 0.926707 4.19967 0.848145ZM19.0605 0.86277C18.9018 0.864082 18.7388 0.881801 18.5786 0.908238C18.3649 0.943395 18.1571 0.994348 17.978 1.05322C17.7989 1.112 17.6603 1.16113 17.5225 1.26997C17.4791 1.30413 17.4447 1.34846 17.4225 1.39904C17.4002 1.44962 17.3908 1.5049 17.395 1.55999L17.6309 4.48241C17.6367 4.56246 17.671 4.63777 17.7276 4.69475L19.3052 6.27097C19.3616 6.32774 19.4364 6.36256 19.5161 6.36918L22.4385 6.60496C22.4938 6.6094 22.5494 6.60009 22.6002 6.57786C22.6511 6.55563 22.6957 6.52117 22.73 6.47755C22.8394 6.33955 22.8878 6.20122 22.9468 6.02202C23.0058 5.84277 23.0566 5.63507 23.0918 5.42136C23.1271 5.20761 23.1472 4.99021 23.1329 4.78269C23.1186 4.57527 23.0854 4.36129 22.9058 4.18222L19.8178 1.09419C19.6386 0.914941 19.4248 0.881379 19.2173 0.867129C19.1651 0.863673 19.1128 0.862203 19.0605 0.862723L19.0605 0.86277ZM19.0664 1.5366C19.1015 1.53628 19.1367 1.53728 19.1718 1.5396C19.2845 1.54733 19.3471 1.58249 19.3462 1.57616L22.4238 4.65383C22.4173 4.65275 22.4527 4.71561 22.4603 4.82821C22.4692 4.95693 22.4574 5.13411 22.4282 5.31163C22.3988 5.4891 22.3534 5.66882 22.3065 5.81113C22.2872 5.86972 22.282 5.87075 22.2626 5.9136L19.6948 5.70852L18.2914 4.30527L18.0863 1.73591C18.1291 1.71669 18.1304 1.71271 18.1888 1.69349C18.3312 1.64671 18.5109 1.60114 18.6884 1.57189C18.8215 1.55005 18.9538 1.53777 19.0663 1.53674L19.0664 1.5366ZM16.8178 7.18222L15.9301 8.66314L6.3442 18.2476L5.92964 18.2169L5.87395 17.5342L15.3368 8.0699L16.8178 7.18222H16.8178Z" fill="currentColor"/>
</svg>
