<svg width="24" height="24" viewBox="0 0 24 24" fill="none" xmlns="http://www.w3.org/2000/svg">
<path d="M19.1368 5.59961L17.3696 8.04484L18.2869 10.1273L19.9182 8.38291L19.1368 5.5997V5.59961ZM23.1715 6.18616L18.0204 11.6951L15.6565 6.32898L12.1332 12.5609L8.05756 6.38369L6.49503 11.7332L0.839844 6.22633L2.68203 12.2076C2.7732 12.1913 2.86672 12.1823 2.96234 12.1823C3.84416 12.1823 4.56828 12.9066 4.56828 13.7883C4.56828 14.4363 4.17706 14.9987 3.61977 15.2517L3.86994 16.0641C4.45236 17.2578 7.23852 18.1806 12.1472 18.2769C17.3412 18.3788 20.4966 17.4547 21.0466 16.064H21.0465L21.2508 15.1143C20.4616 15.0153 19.8436 14.3357 19.8436 13.5212C19.8436 12.6395 20.5678 11.9152 21.4497 11.9152C21.6143 11.9152 21.7736 11.9405 21.9236 11.9874L23.1715 6.18606V6.18616ZM4.80725 6.28178L4.86444 8.92258L6.06256 10.0893L6.51219 8.54983L4.80734 6.28173L4.80725 6.28178ZM11.8659 6.41819L10.7183 8.82569L12.0755 10.8828L13.2438 8.81655L11.8659 6.41814L11.8659 6.41819ZM21.4497 12.7914C21.0413 12.7914 20.7196 13.1131 20.7196 13.5213C20.7196 13.9296 21.0413 14.2514 21.4497 14.2514C21.858 14.2514 22.1796 13.9297 22.1796 13.5214C22.1796 13.1131 21.858 12.7914 21.4497 12.7914ZM2.96225 13.0584C2.55397 13.0584 2.23227 13.3801 2.23227 13.7884C2.23227 14.1967 2.55392 14.5184 2.9623 14.5184C3.37067 14.5184 3.69228 14.1967 3.69228 13.7884C3.69228 13.3801 3.37072 13.0584 2.96234 13.0584H2.96225ZM9.07147 13.8947C9.95328 13.8947 10.6774 14.6189 10.6774 15.5007C10.6774 16.3825 9.95328 17.1067 9.07147 17.1067C8.18961 17.1067 7.46544 16.3825 7.46544 15.5007C7.46544 14.619 8.18966 13.8947 9.07138 13.8947H9.07147ZM15.2231 13.8947C16.1049 13.8947 16.829 14.6189 16.829 15.5007C16.829 16.3825 16.1049 17.1067 15.2231 17.1067C14.3412 17.1067 13.617 16.3825 13.617 15.5007C13.617 14.619 14.3413 13.8947 15.2231 13.8947ZM9.07142 14.7708C8.663 14.7708 8.34144 15.0924 8.34144 15.5007C8.34144 15.909 8.663 16.2308 9.07138 16.2308C9.47966 16.2308 9.80131 15.909 9.80131 15.5007C9.80131 15.0925 9.47975 14.7708 9.07133 14.7708L9.07142 14.7708ZM15.223 14.7708C14.8146 14.7708 14.493 15.0924 14.493 15.5007C14.493 15.909 14.8147 16.2308 15.2231 16.2308C15.6314 16.2308 15.9531 15.909 15.9531 15.5007C15.9531 15.0925 15.6314 14.7708 15.2231 14.7708L15.223 14.7708Z" fill="currentColor"/>
</svg>
