<svg width="24" height="24" viewBox="0 0 24 24" fill="none" xmlns="http://www.w3.org/2000/svg">
<path d="M2.0409 0.738281C1.30355 0.738281 0.713867 1.32811 0.713867 2.06545C0.713867 2.72573 1.18693 3.26752 1.81543 3.37355L2.00138 3.1875L3.2259 1.96434L3.34899 1.8413C3.24362 1.21219 2.70184 0.738281 2.0409 0.738281ZM3.62152 2.80664L2.82465 3.60352C3.56926 5.44898 4.86137 6.72933 6.51605 7.70067C6.89987 7.29736 7.29758 6.9075 7.70846 6.5318C6.65434 4.88634 5.29276 3.61177 3.62152 2.80664ZM15.122 3.70453L12.7197 3.90675C8.99987 6.16303 5.9754 8.97394 3.96718 12.6503L3.76515 15.063L5.83491 14.1885L5.6971 12.5903L5.68538 12.4468L5.7616 12.3238C7.44629 9.58298 9.50832 7.19517 12.3944 5.70267L12.5072 5.64408L12.6332 5.6558L14.2328 5.79202L15.122 3.70467V3.70453ZM12.1952 6.81591C11.7261 7.09181 11.2812 7.39425 10.8564 7.7212C13.0449 9.96792 14.9443 12.8113 16.2339 15.5259L16.7611 16.6376L15.6494 16.1089C12.9309 14.8173 10.122 12.9415 7.88274 10.7695C7.54409 11.2152 7.22162 11.673 6.91595 12.142C11.6934 16.5909 17.5589 20.4531 23.2212 23.1431C20.5464 17.5122 16.6569 11.6034 12.1952 6.81586V6.81591ZM10.1782 8.27934C9.55149 8.82792 8.97259 9.43153 8.43062 10.081C10.2756 11.8835 12.5596 13.4949 14.8378 14.7143C13.6165 12.4347 11.99 10.1278 10.1782 8.27934Z" fill="currentColor"/>
</svg>
