<svg width="24" height="24" viewBox="0 0 24 24" fill="none" xmlns="http://www.w3.org/2000/svg">
<path d="M9.99991 9.99991H13.9999M9.99991 9.99991V13.9999M9.99991 9.99991L6.49991 6.49991M13.9999 9.99991V13.9999M13.9999 9.99991L17.4999 6.49991M13.9999 13.9999H9.99991M13.9999 13.9999L17.4999 17.4999M9.99991 13.9999L6.49991 17.4999M9.95991 5.99991C9.86794 5.35647 9.59863 4.75136 9.18213 4.25236C8.76564 3.75337 8.21843 3.38021 7.6018 3.17469C6.98518 2.96917 6.32351 2.93942 5.69092 3.08876C5.05834 3.2381 4.47984 3.56064 4.02024 4.02024C3.56064 4.47984 3.2381 5.05834 3.08876 5.69092C2.93942 6.32351 2.96917 6.98518 3.17469 7.6018C3.38021 8.21843 3.75337 8.76564 4.25236 9.18213C4.75136 9.59863 5.35647 9.86794 5.99991 9.95991M17.9999 9.95991C18.6433 9.86794 19.2485 9.59863 19.7474 9.18213C20.2464 8.76564 20.6196 8.21843 20.8251 7.6018C21.0306 6.98518 21.0604 6.32351 20.9111 5.69092C20.7617 5.05834 20.4392 4.47984 19.9796 4.02024C19.52 3.56064 18.9415 3.2381 18.3089 3.08876C17.6763 2.93942 17.0146 2.96917 16.398 3.17469C15.7814 3.38021 15.2342 3.75337 14.8177 4.25236C14.4012 4.75136 14.1319 5.35647 14.0399 5.99991M14.0399 17.9999C14.1319 18.6433 14.4012 19.2485 14.8177 19.7474C15.2342 20.2464 15.7814 20.6196 16.398 20.8251C17.0146 21.0306 17.6763 21.0604 18.3089 20.9111C18.9415 20.7617 19.52 20.4392 19.9796 19.9796C20.4392 19.52 20.7617 18.9415 20.9111 18.3089C21.0604 17.6763 21.0306 17.0146 20.8251 16.398C20.6196 15.7814 20.2464 15.2342 19.7474 14.8177C19.2485 14.4012 18.6433 14.1319 17.9999 14.0399M5.99991 14.0399C5.35647 14.1319 4.75136 14.4012 4.25236 14.8177C3.75337 15.2342 3.38021 15.7814 3.17469 16.398C2.96917 17.0146 2.93942 17.6763 3.08876 18.3089C3.2381 18.9415 3.56064 19.52 4.02024 19.9796C4.47984 20.4392 5.05834 20.7617 5.69092 20.9111C6.32351 21.0604 6.98518 21.0306 7.6018 20.8251C8.21843 20.6196 8.76564 20.2464 9.18213 19.7474C9.59863 19.2485 9.86794 18.6433 9.95991 17.9999" stroke="currentColor" stroke-width="2" stroke-linecap="round" stroke-linejoin="round"/>
</svg>
