<svg width="24" height="24" viewBox="0 0 24 24" fill="none" xmlns="http://www.w3.org/2000/svg">
<path d="M21.8753 0.766113L20.4271 2.21418L21.0987 2.88571L22.5468 1.43755L21.8753 0.766113ZM1.6133 20.8682L3.7966 23.0515C3.86253 23.1174 3.94238 23.1677 4.0303 23.1987C4.11821 23.2297 4.21195 23.2406 4.30464 23.2307C4.39733 23.2207 4.48661 23.1902 4.56594 23.1412C4.64527 23.0922 4.71262 23.0261 4.76307 22.9477L7.5826 18.567L9.97997 17.5479C9.97997 17.5479 10.0966 16.5016 10.1221 16.1361C10.1579 15.6296 10.3081 15.1025 10.6674 14.743L18.3056 7.10474C18.491 6.91938 18.5951 6.66797 18.5951 6.40583C18.5951 6.14369 18.491 5.89229 18.3056 5.70693L16.3105 3.71174C16.2342 3.63549 16.1437 3.57501 16.0441 3.53374C15.9445 3.49248 15.8377 3.47124 15.7299 3.47124C15.6221 3.47124 15.5153 3.49248 15.4157 3.53374C15.3161 3.57501 15.2255 3.63549 15.1493 3.71174L7.13977 11.7213C7.09303 11.768 7.05596 11.8235 7.03066 11.8845C7.00537 11.9456 6.99235 12.0111 6.99235 12.0771C6.99235 12.1432 7.00537 12.2087 7.03066 12.2697C7.05596 12.3308 7.09303 12.3863 7.13977 12.433L8.20735 13.5006L1.61372 20.0943C1.56285 20.1451 1.52249 20.2054 1.49493 20.2718C1.46737 20.3381 1.45317 20.4093 1.45313 20.4812C1.45308 20.553 1.4672 20.6242 1.49468 20.6906C1.52215 20.757 1.56245 20.8174 1.61326 20.8682L1.6133 20.8682ZM8.81396 12.3024C8.53449 12.0229 8.58394 11.5205 8.92608 11.1783L14.7983 5.3061C15.1387 4.96569 15.6429 4.9145 15.9223 5.19397L16.2181 5.48975L9.10983 12.5983L8.81405 12.3025L8.81396 12.3024ZM14.3889 16.8628L15.3457 15.906L15.9277 14.3642L15.0659 11.762L15.4094 11.4184L16.3639 14.3006C16.3796 14.3478 16.3787 14.3989 16.3613 14.4455L15.7373 16.1051C15.7265 16.1341 15.7095 16.1605 15.6875 16.1824L14.6323 17.2376C14.6191 17.2508 13.5095 18.1228 13.5095 18.1228C12.4733 17.6367 11.9876 16.3254 12.2851 15.4716C12.4177 15.0909 12.287 14.8631 12.0675 14.7593L13.0424 13.7845L14.3889 16.8628ZM10.7222 18.291L12.5669 20.1357L11.2437 22.2271L8.34601 19.3295L10.7222 18.291ZM19.8673 3.06463L20.2484 3.44572L18.8545 4.8395L18.4734 4.4585L19.866 3.06594L19.8673 3.06463Z" fill="currentColor"/>
</svg>
