<svg width="24" height="24" viewBox="0 0 24 24" fill="none" xmlns="http://www.w3.org/2000/svg">
<path d="M11.9427 0.95459C11.1489 0.95459 10.4246 1.14396 9.86827 1.48025C9.31201 1.81662 8.89585 2.33665 8.89585 2.96351C8.89585 3.59032 9.31201 4.1104 9.86832 4.44673C10.4247 4.78306 11.1489 4.97239 11.9428 4.97239C12.4783 4.97239 12.9819 4.8859 13.4239 4.72657L12.5394 5.61111L18.3068 11.3787L19.3012 10.3842L13.5824 4.66545C13.7326 4.6036 13.878 4.53051 14.0172 4.44682C14.3263 4.25989 14.5919 4.01604 14.767 3.72884L15.655 4.61689L15.191 5.08095L20.2437 10.1336L21.006 7.84657L16.7157 3.55611L16.2517 4.02026L14.9715 2.74011C14.8863 2.21323 14.5059 1.77589 14.0171 1.48029C13.4607 1.14396 12.7365 0.95459 11.9427 0.95459ZM16.8334 1.55271L16.3695 2.01678L21.9714 7.61857L20.8017 11.1274L14.1098 18.8489L14.5751 19.3143L22.1762 10.6997L23.1273 7.84643L16.8334 1.55271ZM11.9427 1.79834C12.5986 1.79834 13.1868 1.96428 13.5806 2.2024C13.9743 2.44039 14.1458 2.71381 14.1458 2.96351C14.1458 3.21321 13.9742 3.48664 13.5806 3.72467C13.1868 3.9627 12.5986 4.12873 11.9427 4.12873C11.2867 4.12873 10.6985 3.9627 10.3049 3.72467C9.91112 3.48664 9.73955 3.21326 9.73955 2.96351C9.73955 2.71376 9.91112 2.44039 10.3049 2.20236C10.6985 1.96423 11.2868 1.79834 11.9427 1.79834ZM11.9427 6.20778L2.46291 15.6874L8.23041 21.4549L17.71 11.9752L11.9427 6.20778ZM1.86629 16.284L0.87207 17.2785L6.63924 23.0458L7.63369 22.0514L1.86634 16.2841L1.86629 16.284Z" fill="currentColor"/>
</svg>
