<svg width="24" height="24" viewBox="0 0 24 24" fill="none" xmlns="http://www.w3.org/2000/svg">
<path d="M12.4706 1.51953L8.47509 5.51506V6.44314L13.3987 1.51953H12.4706ZM14.4172 1.69428L8.64984 7.46169L16.5385 15.3503L22.3059 9.58297L14.4172 1.69438L14.4172 1.69428ZM22.4807 10.6015L17.557 15.5251H18.4851L22.4806 11.5295V10.6015H22.4807ZM11.2352 11.2402L10.7712 11.7043L12.2959 13.229L12.7599 12.765L11.2352 11.2402ZM10.1746 12.3009L9.07171 13.4037H11.2774L10.1746 12.3009ZM8.22796 14.2475L6.95038 15.5251H9.99979L11.2774 14.2475H8.22796ZM6.10663 16.3688L4.8291 17.6464H7.87851L9.15604 16.3688H6.10663ZM4.8291 18.4901L5.93193 19.5929L7.03476 18.4901H4.8291ZM3.81055 18.6649L3.34659 19.1289L4.87129 20.6536L5.33526 20.1896L3.81055 18.6649ZM1.99335 19.5508L1.6416 20.606L3.39416 22.3586L4.44941 22.0068V21.4249L2.57516 19.5508H1.99335Z" fill="currentColor"/>
</svg>
