<svg width="24" height="24" viewBox="0 0 24 24" fill="none" xmlns="http://www.w3.org/2000/svg">
<path d="M11.2087 4.56739C10.8297 4.57972 10.5057 4.7308 10.1716 4.99217C9.69647 5.36389 9.24243 5.98372 8.81662 6.70171C8.25131 7.65482 7.75247 8.7636 7.16718 9.68699L7.22137 9.72074C7.20178 9.75261 7.20342 9.7498 7.20965 9.78514C7.21593 9.82049 7.24561 9.89549 7.32248 9.99608C7.47609 10.1973 7.80726 10.4747 8.25698 10.7534C9.15642 11.3107 10.5206 11.9014 11.9513 12.3896C13.382 12.878 14.8857 13.2682 16.0704 13.4502C16.6628 13.5411 17.1767 13.5792 17.5426 13.5586C17.8627 13.5405 18.0381 13.4473 18.0626 13.4428C18.171 12.8456 18.3026 12.2113 18.4112 11.5664C18.6606 10.0865 18.7543 8.60858 18.3791 7.85446C18.0284 7.14955 17.5533 6.88461 17.0183 6.80563C16.6896 6.75716 16.3369 6.80244 16.0045 6.89797C16.4162 7.15391 16.8566 7.35153 17.3449 7.44285L17.1838 8.30422C15.7916 8.04388 14.7815 7.15391 13.9333 6.33547C13.0852 5.51703 12.3663 4.78803 11.7229 4.62749C11.5675 4.58867 11.4224 4.56955 11.2849 4.56739C11.2595 4.56673 11.2341 4.56673 11.2087 4.56739ZM2.42409 8.0698C2.25698 8.07341 2.10801 8.09263 1.97728 8.12699C1.45425 8.26414 1.14726 8.56855 0.979684 9.40869C0.717278 10.7243 1.0882 11.8602 1.91428 12.9184C2.74036 13.9767 4.03504 14.9261 5.55295 15.728C8.47078 17.2695 12.189 18.2617 14.8883 18.69L15.2443 17.8432L15.4478 17.3614L15.8858 17.6455L18.4288 19.289C19.9464 19.3976 21.2483 19.2034 22.0747 18.7939C22.4976 18.5845 22.7917 18.3263 22.9626 18.041C23.1333 17.7557 23.1971 17.4377 23.1237 17.0229C22.9153 15.8454 22.5416 15.1666 22.028 14.7115C21.5143 14.2562 20.8173 14.0025 19.9039 13.8105C19.6015 13.747 19.2757 13.6904 18.9313 13.6348C18.7991 14.3944 18.7057 15.0432 18.7349 15.4321C18.7544 15.6913 18.6168 15.9732 18.4244 16.122C18.232 16.2709 18.0143 16.3346 17.7755 16.3754C17.2979 16.4571 16.7024 16.4307 15.9986 16.3403C14.5909 16.1595 12.7726 15.702 11.024 15.104C9.27534 14.5058 7.60668 13.7743 6.49176 12.9989C5.93432 12.6112 5.50397 12.2213 5.28178 11.7436C5.17068 11.5047 5.11936 11.2306 5.1749 10.9613C5.23036 10.6921 5.38743 10.4499 5.60409 10.2538C5.86626 10.0165 6.12736 9.66186 6.39065 9.24013C5.652 8.91613 4.96776 8.63919 4.35309 8.43739C3.58354 8.18474 2.92509 8.05888 2.4239 8.06971L2.42409 8.0698ZM6.59447 10.4825C6.46589 10.6346 6.33182 10.7759 6.19162 10.9028C6.07804 11.0056 6.04415 11.0795 6.03197 11.1386C6.01978 11.1978 6.02456 11.2641 6.07589 11.3745C6.17854 11.5953 6.4995 11.9366 6.9929 12.2798C7.97962 12.966 9.60572 13.6931 11.3068 14.2748C13.008 14.8566 14.7942 15.3012 16.1101 15.4701C16.768 15.5547 17.3141 15.5648 17.6277 15.5112C17.7556 15.4893 17.8274 15.4596 17.8605 15.4423C17.8423 15.1316 17.8654 14.7826 17.9119 14.4052C17.8087 14.4187 17.7025 14.4268 17.5925 14.433C17.1259 14.4594 16.567 14.4126 15.9373 14.3158C14.6778 14.1224 13.1414 13.7214 11.6687 13.2187C10.196 12.716 8.79403 12.1162 7.79564 11.4974C7.29642 11.1882 6.89583 10.8801 6.62672 10.5278C6.61547 10.513 6.60534 10.4974 6.59447 10.4823V10.4825Z" fill="currentColor"/>
</svg>
