<svg width="24" height="24" viewBox="0 0 24 24" fill="none" xmlns="http://www.w3.org/2000/svg">
<path d="M22.4059 1.11279C21.8762 1.12592 21.3043 1.1817 20.77 1.28482C20.02 1.4292 19.345 1.67529 18.9934 1.93545C18.9606 2.03904 18.9512 2.18107 18.9559 2.27717C18.9559 2.37561 18.97 2.48248 18.9887 2.59029C19.6121 2.12576 20.3762 1.85951 21.1496 1.60779C20.4793 2.07982 19.9028 2.57576 19.359 3.08389C19.7387 3.25123 20.1887 3.25357 20.4793 3.04779H20.484C21.1121 2.59592 21.9512 1.84029 22.4059 1.1142V1.11279ZM8.44184 1.28107C8.31527 1.28107 8.17934 1.29514 8.03871 1.32654C7.94496 1.78545 8.00121 2.20311 8.17465 2.53545C7.75277 2.36951 7.24652 2.39717 6.7309 2.82889C7.04496 3.89904 7.99184 4.37576 8.96684 3.89248C8.99496 4.33498 9.00902 4.78123 9.00902 5.22654C8.70434 4.89373 8.20277 4.59139 7.68246 4.60545C7.31684 4.61951 6.93715 4.78592 6.60434 5.20779C7.12934 6.19217 8.15121 6.46404 9.00434 5.79842C8.99496 6.28123 8.97152 6.76404 8.93402 7.25154C8.64809 6.85779 8.13715 6.48279 7.56996 6.48748C7.31684 6.49217 7.05434 6.57185 6.79184 6.75935C7.54184 6.97029 8.22621 7.27029 8.84027 7.67342C9.06996 7.81873 9.18715 8.04373 9.25277 8.26404C9.31371 8.48435 9.32777 8.71404 9.32309 8.94842C9.30434 9.42654 9.19184 9.9281 9.02309 10.3547L8.96215 10.4953L8.82621 10.5656C8.73246 10.6172 8.62465 10.6687 8.52152 10.7203C8.42309 11.3203 8.31527 11.925 8.19809 12.5344C7.50434 11.6906 6.8059 11.3812 6.11684 11.3765C4.3548 11.3578 2.63121 13.3078 1.02246 13.3406C3.20074 13.4953 6.59027 11.2734 7.77152 13.8844C8.64809 14.5359 9.54809 15.0656 10.4668 15.4687C10.5418 15.0281 10.6637 14.564 10.8325 14.1515C10.9403 13.889 11.0621 13.6453 11.2168 13.439C11.3715 13.2328 11.559 13.0453 11.845 12.975C11.9246 12.9515 12.009 12.9328 12.0887 12.914C11.8356 12.4219 11.8684 11.7609 12.1684 11.2078C12.4731 10.6406 13.0262 10.2469 13.5934 10.2047C14.1746 9.31873 14.784 8.45623 15.4262 7.60779C15.9231 8.66248 17.02 8.85467 17.9246 8.11873C17.695 7.27029 17.0809 7.0031 16.495 7.01717C16.2325 7.02185 15.9746 7.08748 15.7543 7.18123C16.6778 5.98592 17.6668 4.83748 18.7262 3.72373C18.3418 3.55404 18.3137 3.42607 18.2153 3.03889C17.1371 4.16342 16.1293 5.33436 15.1871 6.53904C15.1637 7.28436 14.7418 7.95467 14.0293 8.09529H14.02C13.5653 8.73279 13.1246 9.37498 12.7028 10.0312C12.8106 9.33279 12.9184 8.6156 13.0496 7.9031C12.7215 7.69685 12.459 7.34998 12.3137 6.94685C11.8684 8.37654 11.5496 9.89529 11.1371 11.2078C11.0809 11.1984 11.02 11.1937 10.9637 11.1937C10.2231 11.189 9.57152 11.8312 9.40277 12.314C9.96996 12.8015 10.5934 12.8953 11.1043 12.6703C10.9121 13.0125 10.7153 13.3594 10.5278 13.7062C10.359 13.6312 10.1856 13.5937 10.0215 13.5937C9.48715 13.589 8.99965 13.9265 8.70434 14.2922C9.02777 12.7547 9.3184 11.2172 9.52934 9.68435C10.3918 10.1203 11.2871 9.73592 11.6856 8.7656C11.3481 8.41404 10.9918 8.27342 10.6543 8.26873C10.284 8.26404 9.93246 8.4281 9.6559 8.64842C9.71684 8.11873 9.76371 7.58904 9.79652 7.05936C10.6778 7.92654 11.8168 7.69217 12.3793 6.63279C12.0465 6.21092 11.6668 6.04686 11.3012 6.03279C10.6637 6.01404 10.0637 6.46873 9.8059 6.88123C9.83402 6.37967 9.85277 5.88279 9.85277 5.38592C10.8137 5.83592 11.7371 5.35779 12.0465 4.29842C11.709 4.01576 11.3762 3.90654 11.0715 3.91123C10.5653 3.91873 10.1246 4.23701 9.8434 4.60076C9.83402 4.27029 9.81527 3.93982 9.79184 3.61029C10.8887 3.9717 11.7746 3.31686 11.8778 2.16607C10.9496 1.65373 10.2371 2.13139 9.86684 2.72107C9.78246 2.06061 9.35121 1.28201 8.44184 1.28107ZM16.7856 1.93357C15.0606 2.20639 13.9871 3.2592 13.2371 4.65232L13.3496 4.6242C13.5981 4.57732 13.8371 4.60076 14.0528 4.68045C14.6246 3.56436 15.4684 2.59967 16.7856 1.93357ZM22.9778 4.92186C20.7559 8.10467 17.784 9.45935 14.8637 10.9312C15.1121 11.4234 15.0793 12.0703 14.784 12.6187V12.6234C17.8684 10.7109 21.009 8.89686 22.9778 4.92186ZM18.7731 5.12811C18.0325 5.11873 17.3809 5.77029 17.2121 6.24842C18.1918 7.09217 19.3356 6.75936 19.8043 5.62498C19.4668 5.27342 19.1106 5.13279 18.7731 5.12811ZM13.57 5.44686C13.5512 5.45154 13.5325 5.45154 13.5137 5.45623C13.2184 5.51248 12.9512 5.92967 13.059 6.48279C13.1668 7.03592 13.5746 7.32654 13.8653 7.2656C14.1606 7.20935 14.4278 6.79217 14.32 6.23904C14.2168 5.71873 13.8606 5.43279 13.57 5.44686ZM3.98309 7.23748C3.91324 7.23748 3.83871 7.24217 3.76793 7.24217C4.20809 8.4281 4.68152 9.4406 5.6809 10.05H5.68559C6.35121 10.4719 7.14809 10.3547 7.83715 10.0922L5.84965 8.44685L8.32934 9.75935C8.39965 9.34217 8.6434 8.78435 8.39027 8.38592H8.38559V8.38123C7.23715 7.63592 5.7934 7.25154 3.98309 7.23748ZM13.6825 11.0484C13.4246 11.0578 13.1106 11.2359 12.909 11.6062C12.6418 12.1031 12.7731 12.5859 13.0356 12.7265C13.4387 12.9 13.8887 12.4922 14.0387 12.2203C14.3059 11.7234 14.1746 11.2453 13.9121 11.1C13.8465 11.0625 13.7668 11.0484 13.6825 11.0484ZM13.5371 13.5937C13.4668 13.5937 13.3918 13.5937 13.3215 13.5984C12.8903 13.6172 12.4684 13.6828 12.0559 13.7906H12.0512C12.0559 13.7906 11.9809 13.8234 11.8918 13.9453C11.8028 14.0672 11.6996 14.25 11.6153 14.4703C11.4887 14.775 11.3903 15.1406 11.3246 15.4828L14.3246 15.0094L11.8918 15.975C12.145 16.35 12.2153 16.5047 12.2762 16.7812C12.6653 17.0297 13.0778 17.1422 13.5981 17.0156C14.8918 16.7109 15.909 15.6562 16.9731 14.414C15.7543 13.8562 14.62 13.5844 13.5371 13.5937ZM7.1059 14.4328L6.68402 15.5062C8.21684 16.1812 9.52465 16.964 10.7762 17.7515L11.3621 16.6922C9.86684 16.2328 8.4559 15.4594 7.1059 14.4328ZM6.51527 16.3547C5.53559 17.6344 4.35855 18.7453 3.01324 19.3969L3.38262 20.1562C4.94496 19.3969 6.23871 18.1359 7.29809 16.725C7.04496 16.5984 6.78246 16.4719 6.51527 16.3547ZM7.46684 16.8094C6.36059 18.7828 5.29652 20.189 4.16918 22.2515L4.91215 22.6547C6.00902 20.6437 7.0684 19.2328 8.21684 17.2031C7.97309 17.0719 7.71996 16.9406 7.46684 16.8094ZM8.69496 17.475C7.54184 19.2422 6.71684 20.6859 5.90121 22.5515L6.66996 22.889C7.47152 21.0609 8.27309 19.664 9.41684 17.9015C9.17777 17.7562 8.93871 17.6109 8.69496 17.475ZM9.77309 18.1172C9.05121 19.3359 8.97152 20.789 8.84496 21.8953L9.67934 21.9937C9.81527 20.8594 9.9184 19.5469 10.4903 18.5672L9.77309 18.1172Z" fill="currentColor"/>
</svg>
