<svg width="24" height="24" viewBox="0 0 24 24" fill="none" xmlns="http://www.w3.org/2000/svg">
<path d="M10.6352 0.75V12.1535C9.28807 12.4771 8.10768 13.2864 7.32024 14.4264C6.53281 15.5664 6.1937 16.9568 6.3679 18.3313C6.5421 19.7058 7.21736 20.9677 8.26429 21.8752C9.31121 22.7827 10.6562 23.2719 12.0415 23.2493C13.4125 23.2519 14.7372 22.7538 15.7668 21.8485C16.7963 20.9432 17.4598 19.693 17.6325 18.333C17.8052 16.9729 17.4752 15.5966 16.7046 14.4628C15.934 13.3289 14.7758 12.5155 13.4476 12.1754V7.78102H16.2601V5.67173H13.4476V3.56236H17.6663V0.75H10.6352ZM11.8217 14.812C11.8583 14.8113 11.895 14.8113 11.9316 14.812C11.9682 14.8113 12.0048 14.8113 12.0414 14.812C12.7873 14.812 13.5026 15.1083 14.0301 15.6358C14.5575 16.1632 14.8538 16.8785 14.8538 17.6244C14.8538 18.3703 14.5575 19.0857 14.0301 19.6131C13.5026 20.1405 12.7873 20.4368 12.0414 20.4368C11.2968 20.4639 10.5718 20.1945 10.0255 19.6879C9.47912 19.1812 9.15597 18.4786 9.12689 17.734C9.0978 16.9895 9.36514 16.2638 9.87029 15.716C10.3754 15.1683 11.0772 14.8432 11.8216 14.812H11.8217Z" fill="currentColor"/>
</svg>
