<svg width="24" height="24" viewBox="0 0 24 24" fill="none" xmlns="http://www.w3.org/2000/svg">
<path d="M12 1.07715V1.9209C12.3937 1.9209 12.5859 1.91434 12.7172 2.04418C12.8531 2.17402 13.0547 2.62402 13.0781 3.75746V11.5781H13.9219V3.74105C13.9594 2.93762 13.7812 1.93262 13.3078 1.4409C12.9937 1.13527 12.6141 1.08371 12.2953 1.07715H12ZM21 1.07809C20.3578 1.07809 19.8281 1.60777 19.8281 2.24996C19.8281 2.56777 19.9594 2.85746 20.1656 3.0698C20.1469 3.10121 20.1234 3.13356 20.1047 3.16637C19.9219 3.48043 19.8281 3.86762 19.8281 4.28996C19.8281 4.7109 19.9219 5.09996 20.1047 5.41402C20.2172 5.60621 20.3766 5.78434 20.5781 5.89215V11.4421C20.7188 11.4093 20.8594 11.3906 21 11.3906C21.1406 11.3906 21.2812 11.4093 21.4219 11.4421V5.89215C21.6234 5.78434 21.7828 5.60621 21.8953 5.41402C22.0781 5.09996 22.1719 4.7109 22.1719 4.28996C22.1719 3.86762 22.0781 3.48043 21.8953 3.16637C21.8766 3.13356 21.8531 3.10121 21.8344 3.0698C22.0406 2.85746 22.1719 2.56777 22.1719 2.24996C22.1719 1.60777 21.6422 1.07809 21 1.07809ZM17.8125 1.12262L15.5578 2.24996L17.0578 2.99996L15.7875 3.63465L16.8281 4.6748V10.0781H17.6719V4.32512L17.2125 3.86574L18.9422 2.99996L17.4422 2.24996L18.1875 1.8773L17.8125 1.12262ZM5.57812 1.12496V11.5781H6.42188V2.99996L5.57812 1.12496ZM8.57812 2.57809V4.92184H9.32812V12.4875L10.1719 12.0656V4.92184H10.9219V2.57809H8.57812ZM1.82812 2.99996V12.4828L2.25 12.9046L2.67188 12.4828V7.92184H3.75V7.07809H2.67188V6.42184H3.75V5.57809H2.67188V4.92184H3.75V4.07809H2.67188V2.99996H1.82812ZM16.1719 10.9218V22.5C16.1719 23.4375 18.3281 23.4375 18.3281 22.5V10.9218H16.1719ZM21 12.2343C20.4609 12.2343 19.9219 12.5625 19.9219 13.5V22.5C19.9219 23.4375 22.0781 23.4375 22.0781 22.5V13.5C22.0781 12.5625 21.5391 12.2343 21 12.2343ZM4.92188 12.4218V22.5C4.92188 23.4375 7.07812 23.4375 7.07812 22.5V12.4218H4.92188ZM12.4219 12.4218V22.5C12.4219 23.4375 14.5781 23.4375 14.5781 22.5V12.4218H12.4219ZM10.8281 12.6843L8.67188 13.7625V22.5C8.67188 23.4375 10.8281 23.4375 10.8281 22.5V12.6843ZM1.17188 13.0172V22.5C1.17188 23.4375 3.32812 23.4375 3.32812 22.5V13.0172L2.25 14.0953L1.17188 13.0172Z" fill="currentColor"/>
</svg>
