<svg width="24" height="24" viewBox="0 0 24 24" fill="none" xmlns="http://www.w3.org/2000/svg">
<path d="M20.632 4.59651C20.4421 4.59135 20.2549 4.64887 20.0856 4.78401C20.0133 4.84166 19.9403 4.9192 19.8761 5.00666C18.8026 6.4701 17.613 7.69401 16.3517 8.80354C15.9411 9.49223 16.853 10.8851 17.5514 10.8851C19.1519 10.2791 20.8147 9.82963 22.5553 9.6516C24.5535 9.44732 23.3845 6.45782 21.3249 7.5202C22.7452 6.45773 21.6574 4.62379 20.632 4.59641V4.59651ZM14.5529 5.06962C14.2638 5.06456 13.9803 5.12456 13.7282 5.27024C13.6552 5.31252 13.5861 5.36106 13.5216 5.41532C13.5198 5.4127 13.5174 5.40923 13.5157 5.4066C9.76985 8.5192 8.06257 8.85041 6.09916 9.47741C5.77638 9.58054 5.524 9.81398 5.32572 10.204C5.12744 10.594 5.00266 11.1341 4.98152 11.7567C4.93933 13.0019 5.3066 14.5658 6.09339 15.93C6.87714 17.2889 8.12636 18.4587 9.26477 19.0765C9.83397 19.3854 10.3749 19.5531 10.7823 19.5657C11.1898 19.5783 11.4346 19.4743 11.6159 19.22C13.0683 17.1833 15.8038 15.9832 18.9357 14.8958C18.9355 14.8955 18.9359 14.8947 18.9357 14.8944C19.031 14.8634 19.1227 14.8226 19.2096 14.7728C19.594 14.5507 19.844 14.1682 19.9728 13.7357C20.1016 13.3031 20.1237 12.8099 20.068 12.2708C20.0233 11.838 19.9258 11.3743 19.7794 10.8939C19.5021 10.958 19.2344 11.0419 18.94 11.1503C19.0729 11.5839 19.1598 11.9931 19.1978 12.3602C19.245 12.8167 19.2167 13.2067 19.1334 13.4867C19.0501 13.7667 18.9266 13.9244 18.7716 14.0141C18.6165 14.1036 18.418 14.1315 18.1343 14.0638C17.8506 13.9961 17.4992 13.8261 17.1279 13.557C16.3855 13.0188 15.5654 12.0935 14.8955 10.932C14.2257 9.77048 13.8357 8.59588 13.7413 7.68295C13.6941 7.22648 13.7224 6.83793 13.8057 6.55795C13.8892 6.27796 14.0126 6.11873 14.1676 6.0292C14.2451 5.98434 14.3326 5.95513 14.4371 5.94566C14.4633 5.94332 14.4909 5.94252 14.5192 5.94271C14.604 5.94337 14.6984 5.95546 14.8048 5.98087C15.0884 6.04856 15.4385 6.21712 15.8097 6.48618C16.1949 6.76542 16.6011 7.15021 16.9963 7.61709C17.2339 7.42701 17.4341 7.23037 17.6247 6.9989C17.2042 6.50859 16.7638 6.09609 16.3239 5.77724C15.8854 5.45943 15.4458 5.23302 15.007 5.12831C14.8987 5.10224 14.7885 5.08461 14.6775 5.07557C14.636 5.07238 14.5945 5.07044 14.5529 5.06976V5.06962ZM14.9264 6.67218C14.9058 6.67331 14.8861 6.67513 14.8664 6.67804C14.0542 6.7971 14.1647 8.36718 15.1022 10.173C16.0397 11.979 17.4703 13.3407 18.2823 13.2214C18.5634 13.1802 18.7166 12.9548 18.7819 12.6179C18.7037 12.7204 18.6016 12.7812 18.4669 12.801C17.749 12.9064 16.4834 11.7186 15.6544 10.1219C14.8256 8.5251 14.7519 7.12607 15.4699 7.02074C15.6404 6.9959 15.8304 7.04029 16.0486 7.15115C15.6417 6.8324 15.2351 6.65507 14.9265 6.67218H14.9264ZM4.78089 15.24C4.00488 15.3264 3.12602 15.3928 2.10607 15.4451C-0.19681 15.5634 0.908175 18.8002 3.51672 17.8929C1.20274 19.2945 3.69766 21.9676 4.78094 20.0843C5.26666 19.2398 5.80657 18.5004 6.39227 17.8431C5.99758 17.391 5.63861 16.8951 5.33463 16.3679C5.12518 16.0047 4.9402 15.6279 4.78094 15.2401L4.78089 15.24Z" fill="currentColor"/>
</svg>
