<svg width="24" height="24" viewBox="0 0 24 24" fill="none" xmlns="http://www.w3.org/2000/svg">
<path d="M15.1056 4.0166L2.87984 10.5338L0.951172 15.6872L1.29022 15.8677L8.49364 19.7021L22.9543 12.0045L21.1847 7.32152L15.1056 4.0166ZM20.6854 8.47849L21.8624 11.5933L17.0549 14.1524L20.1748 8.74891L20.6854 8.47845V8.47849ZM16.4865 10.7012L13.3576 16.1205L11.4043 17.1603L14.7884 11.5999L16.4865 10.7011V10.7012ZM3.39303 11.6617L4.71537 12.3617L2.18356 14.8935L3.39303 11.6617ZM13.2755 12.4008L9.89975 17.9472L9.91194 17.9547L9.10531 18.3841L9.37695 14.4645L13.2755 12.4008ZM5.52552 12.7904L6.32066 13.2114L3.4873 16.0447L2.6937 15.6223L5.52552 12.7904ZM8.50428 14.3861L8.21487 18.5613L5.67894 17.2114L8.50428 14.3861Z" fill="currentColor"/>
</svg>
