<svg width="24" height="24" viewBox="0 0 24 24" fill="none" xmlns="http://www.w3.org/2000/svg">
<path d="M15.3292 3.08496L10.7712 6.01062L11.2332 6.2636L15.2883 3.66063L22.1665 7.5567L18.2213 10.089L18.4135 10.1942V10.5152L21.5036 8.53165L22.1522 8.89905L18.4135 11.2988V11.8483L21.4431 9.90363L22.1522 10.3054L18.4135 12.7051V13.2546L21.4431 11.3099L22.1522 11.7116L18.4135 14.1114V14.6609L23.1025 11.6511L21.9387 10.9919L23.1025 10.2449L21.9386 9.58563L23.1024 8.83859L21.9991 8.2136L23.1167 7.49618L15.3292 3.08496ZM16.7854 5.18215C15.7993 5.67696 14.4857 5.76068 13.5609 5.3876L11.7529 6.54809L17.7015 9.80449L19.4163 8.70387C18.7408 8.17062 18.7971 7.37496 19.5542 6.75059L16.7854 5.18215ZM10.664 6.9139L7.35053 9.07455L13.7072 12.7339L13.7696 12.6941C13.8868 12.6186 14.0522 12.5117 14.2497 12.3841C14.6444 12.1289 15.1667 11.7906 15.6875 11.4531C16.4376 10.967 16.8242 10.7163 17.1836 10.4831L10.664 6.9139ZM16.0765 6.96874H16.0767C16.2266 6.96966 16.364 7.00179 16.4667 7.05991C16.5264 7.09374 16.5728 7.13547 16.603 7.18271C16.6333 7.22995 16.647 7.28178 16.6432 7.33524C16.6394 7.38871 16.6182 7.44275 16.581 7.49429C16.5437 7.54583 16.491 7.59386 16.4259 7.63563C16.3608 7.6774 16.2846 7.7121 16.2017 7.73775C16.1187 7.76339 16.0306 7.77948 15.9423 7.7851C15.8541 7.79071 15.7674 7.78574 15.6874 7.77047C15.6073 7.7552 15.5353 7.72993 15.4756 7.6961C15.355 7.62779 15.2916 7.52876 15.2992 7.42081C15.3069 7.31286 15.385 7.20483 15.5164 7.12048C15.591 7.07256 15.6802 7.03403 15.7772 7.00775C15.8741 6.98148 15.9765 6.96814 16.0765 6.96874ZM5.83797 9.17726L0.897109 12.3486L2.00041 12.9736L0.882812 13.691L2.04663 14.3502L0.882812 15.0973L2.04663 15.7565L0.882812 16.5036L8.67039 20.9148L13.3721 17.8967V17.3473L8.71122 20.3391L1.83306 16.443L2.50127 16.0141L8.67039 19.5085L13.3721 16.4905V15.9411L8.71122 18.9328L1.83306 15.0367L2.50127 14.6078L8.67039 18.1022L13.3721 15.0842V14.5348L8.71122 17.5266L1.83306 13.6305L2.45509 13.2311L8.68478 16.7599L13.3721 13.751V13.5143L13.1153 13.3665L8.72542 16.1841L1.84745 12.2881L6.28933 9.43695L5.83792 9.17712L5.83797 9.17726ZM6.79703 9.72944L4.59766 11.1411C5.27312 11.6742 5.21688 12.4699 4.45975 13.0944L7.22856 14.6628C8.21467 14.1679 9.52811 14.0843 10.453 14.4573L12.6076 13.0743L6.79694 9.7294L6.79703 9.72944ZM17.5697 11.2384C17.1926 11.4829 16.8601 11.6988 16.1464 12.1612C15.6671 12.472 15.1875 12.7825 14.7078 13.0928C14.5102 13.2205 14.3443 13.3276 14.2261 13.4036C14.2218 13.4065 14.2201 13.4074 14.216 13.4101V17.4378L17.5697 15.1836L17.5697 11.2384ZM8.1483 12.0577C8.29823 12.0587 8.43568 12.0908 8.5383 12.149C8.6589 12.2173 8.72235 12.3163 8.7147 12.4243C8.70706 12.5322 8.62893 12.6403 8.49752 12.7246C8.3661 12.809 8.19218 12.8627 8.01399 12.874C7.83581 12.8854 7.66796 12.8534 7.54736 12.7851C7.42676 12.7168 7.36331 12.6177 7.37095 12.5098C7.3786 12.4018 7.45673 12.2938 7.58814 12.2095C7.66277 12.1616 7.75192 12.123 7.84891 12.0968C7.94591 12.0705 8.04825 12.0572 8.1483 12.0578V12.0577Z" fill="currentColor"/>
</svg>
