<svg width="24" height="24" viewBox="0 0 24 24" fill="none" xmlns="http://www.w3.org/2000/svg">
<path d="M11.1915 6.49174L12.0421 5.60913C12.0842 4.60263 12.469 2.82617 13.2686 2.76049C13.5965 2.76504 13.9514 3.03392 14.0065 3.51148C14.1589 4.83078 13.4519 5.41287 12.6438 6.20079L11.1715 7.72826L11.1698 7.72648C9.83541 9.20056 8.10628 11.0251 7.89924 12.7408C7.6373 15.2613 9.36474 17.823 11.9843 17.6952L11.8354 16.8484C10.0765 16.6184 8.56486 14.7966 9.17705 13.0369C10.2681 10.205 12.7238 8.68582 14.6302 6.09832C15.168 5.36829 15.3134 3.89778 15.184 3.1392C15.0546 2.38057 14.5116 1.12048 13.6812 1.02903C12.054 0.813869 10.8348 3.95759 11.1915 6.49174H11.1915ZM12.3946 10.0494L11.6677 10.7641C11.6931 10.8942 11.7223 11.054 11.7655 11.3332C10.171 12.3412 10.051 14.4601 11.1943 15.5969C11.437 15.8458 11.9052 15.4672 11.6679 15.1903C11.1537 14.2629 11.1009 13.1265 11.9371 12.512C12.3487 14.8811 13.0915 18.0039 13.351 20.5227C13.3681 20.6884 13.042 21.0203 12.8835 21.0569C12.8835 20.0214 12.0441 19.1819 11.0085 19.1819C9.97308 19.1819 9.13355 20.0214 9.13355 21.0569C9.13434 22.0035 9.84914 22.7448 10.7799 22.9164C12.7491 23.2794 14.4671 22.0757 14.1906 20.4245C13.7784 17.656 13.16 14.7523 12.7441 12.2064C13.3097 12.1476 14.0977 12.4487 14.4517 12.8086C14.8537 13.2444 15.0587 13.8562 15.0134 14.3455C14.97 14.8123 14.6653 15.3295 14.2137 15.7696L14.3853 16.7434C15.1984 16.1536 16.0314 15.3285 16.1169 14.407C16.188 13.6405 15.882 12.5168 15.2694 11.9567C14.4779 11.2331 13.4735 11.087 12.5812 11.178C12.4872 10.5656 12.4397 10.3324 12.3946 10.0494Z" fill="currentColor"/>
</svg>
