<svg width="24" height="24" viewBox="0 0 24 24" fill="none" xmlns="http://www.w3.org/2000/svg">
<path d="M1.24395 0.87607C1.00301 1.51999 1.33442 2.3936 2.24801 2.3936C2.30004 2.3936 2.34996 2.39032 2.39824 2.38493C1.73215 2.95671 1.96324 4.33038 3.10878 4.33038C3.25924 4.33038 3.39354 4.30634 3.51246 4.26391C3.17904 4.91295 3.49296 5.90126 4.46449 5.90126C4.70262 5.90126 4.90099 5.84159 5.06028 5.74235C4.80574 6.38796 5.13443 7.27845 6.05684 7.27845C6.24363 7.27845 6.40587 7.24165 6.5441 7.17804C6.44951 7.72038 6.71942 8.33407 7.35856 8.46007L4.7584 12.0364L12.7168 22.9829L20.675 12.0365L17.108 7.13013C17.7581 7.02045 18.0399 6.41599 17.9586 5.87201C18.0435 5.8909 18.1347 5.9013 18.2329 5.9013C19.2044 5.9013 19.5183 4.91299 19.1848 4.26396C19.3038 4.30638 19.4381 4.33043 19.5885 4.33043C20.734 4.33043 20.965 2.95676 20.299 2.38493C20.3473 2.39032 20.3972 2.39355 20.4492 2.39355C21.3628 2.39355 21.6942 1.51995 21.4533 0.875977H19.4452C19.2837 1.30755 19.3797 1.84193 19.7353 2.1477C19.6866 2.14222 19.6375 2.13948 19.5885 2.13949C18.6246 2.13949 18.3029 3.12762 18.6338 3.7766C18.5155 3.73423 18.3819 3.71032 18.2328 3.71032C17.4359 3.71032 17.0787 4.3857 17.1656 4.98649C17.0758 4.96663 16.9842 4.95676 16.8922 4.95705C16.4171 4.95705 16.0982 5.19734 15.9364 5.51871L13.9859 2.83591L12.7167 1.0901L12.3625 1.57732L8.54693 6.82545C8.38085 6.51874 8.06707 6.29266 7.60624 6.29266C7.42001 6.29266 7.25796 6.32979 7.11968 6.39401C7.22328 5.7859 6.86712 5.0876 6.05688 5.0876C5.82003 5.0876 5.62212 5.1476 5.46298 5.24721C5.71517 4.60165 5.38001 3.71046 4.46454 3.71046C4.31529 3.71046 4.1817 3.73437 4.06329 3.77684C4.39423 3.1278 4.07267 2.13963 3.10878 2.13963C3.05969 2.13962 3.01065 2.14236 2.96187 2.14784C3.31756 1.84207 3.41356 1.3077 3.25203 0.876117L1.24395 0.87607ZM13.986 4.3256L15.785 6.80004L15.2813 8.68029C15.1518 8.65571 15.0204 8.64323 14.8886 8.64302C14.7081 8.64302 14.5327 8.66665 14.3635 8.70968L13.4026 5.12796L13.986 4.3256ZM12.7401 6.03926L13.5595 9.09363C13.3452 9.25005 13.1519 9.44065 12.9865 9.65716C12.8456 9.84148 12.7228 10.0448 12.6197 10.2631L10.5269 9.08337L12.7401 6.03926ZM16.4477 7.71176L17.9672 9.80177L17.1559 10.2598C17.0532 10.0427 16.9309 9.84045 16.7907 9.65702C16.5953 9.40141 16.3614 9.18152 16.0993 9.01202L16.4478 7.71171L16.4477 7.71176ZM14.8886 9.51898C15.3406 9.51898 15.7623 9.75429 16.0946 10.1891C16.4271 10.624 16.6482 11.2526 16.6482 11.9561C16.6482 12.6597 16.427 13.2883 16.0946 13.7233C15.7621 14.1582 15.3406 14.3935 14.8886 14.3935C14.4365 14.3935 14.0149 14.1582 13.6825 13.7233C13.35 13.2883 13.1287 12.6597 13.1287 11.9561C13.1287 11.2527 13.35 10.624 13.6825 10.1891C14.0149 9.7541 14.4365 9.51888 14.8886 9.51888V9.51898ZM10.0084 9.79666L12.3388 11.1106C12.2813 11.3888 12.2524 11.6721 12.2526 11.9562C12.2526 12.3049 12.2954 12.6416 12.3747 12.9591L10.0182 14.2898L8.38001 12.0365L10.0084 9.79676L10.0084 9.79666ZM18.4857 10.515L19.5919 12.0365L18.4796 13.5666L17.4023 12.9594C17.4817 12.6418 17.5244 12.3051 17.5244 11.9562C17.5244 11.6632 17.4941 11.3787 17.4375 11.1069L18.4857 10.515ZM12.6889 13.7878C12.7766 13.954 12.8758 14.1107 12.9865 14.2554C13.1685 14.4935 13.384 14.7004 13.6243 14.8647L12.7658 18.0691L10.5367 15.003L12.6889 13.7878ZM17.0881 13.7879L17.9609 14.28L16.4246 16.3931L16.035 14.9406C16.3232 14.7664 16.5794 14.5318 16.7906 14.2554C16.9026 14.1081 17.0021 13.9518 17.0881 13.788V13.7879ZM14.4361 15.22C14.5828 15.2519 14.7339 15.2696 14.8886 15.2696C14.9975 15.2696 15.1044 15.2603 15.2095 15.2442L15.7622 17.3043L13.9859 19.7474L13.4286 18.9807L14.4361 15.22Z" fill="currentColor"/>
</svg>
