<svg width="24" height="24" viewBox="0 0 24 24" fill="none" xmlns="http://www.w3.org/2000/svg">
<path d="M16.1519 23.1346L10.6575 23.0397L5.57327 15.8688L6.24616 13.4616L7.89916 13.9013L9.78096 15.8716L8.9622 13.065L10.0795 11.4076L8.0757 6.53102L10.0991 2.8068L13.4944 3.85998L15.6628 7.63155L14.2812 7.86592L12.4776 6.2245L13.5355 8.4775L13.504 10.2289L12.281 11.0832L13.9193 11.1434L16.1292 12.2606L17.4769 10.954L19.281 11.8473L19.7801 13.6088L18.8908 12.9627L15.2268 14.8361L13.1182 14.1147L13.3929 12.8419L11.3883 12.9954L12.4932 13.5538L12.0484 14.6293L14.7689 16.0958L15.7223 19.8187L14.9981 21.4467L16.3761 20.4923L19.5087 20.0499L16.152 23.1348L16.1519 23.1346ZM8.72112 22.9688L6.21424 22.8611L7.51095 19.8609L9.12251 22.1903L8.72112 22.9688ZM4.6533 21.2325L4.13393 19.5978L2.46973 19.1194L4.1037 18.5996L4.58238 16.9355L5.10223 18.5694L6.76638 19.0484L5.13246 19.5679L4.6534 21.2324L4.6533 21.2325ZM16.5119 19.6759L15.501 15.7277L18.878 13.9L21.3944 16.6808L20.5195 19.129L16.5119 19.6759ZM7.94374 13.1567L5.17188 12.4248L4.22041 9.18297L7.31716 7.4275L9.04873 11.3709L7.94374 13.1567ZM16.0112 11.3298L14.2119 10.4083L14.2857 8.58672L16.3298 8.12186L17.5838 9.96386L16.0113 11.3298L16.0112 11.3298ZM18.7696 9.11594L18.1024 6.98664L15.9395 6.3557L18.0681 5.68717L18.6991 3.52473L19.3671 5.65333L21.5299 6.28511L19.4014 6.95238L18.7696 9.11594H18.7696ZM15.3284 5.85461L13.9847 3.19389L12.6266 2.82077L13.6881 0.865234L15.0621 1.53452L15.8984 4.32555L15.3284 5.85461H15.3284Z" fill="currentColor"/>
</svg>
