<svg width="24" height="24" viewBox="0 0 24 24" fill="none" xmlns="http://www.w3.org/2000/svg">
<path d="M4.19281 1.5V3.59377L12.0092 4.94845L19.8256 3.59377V1.5L12.0092 2.85478L4.19281 1.5ZM4.17383 4.75519V13.5073C6.49311 14.2575 8.40134 13.9161 10.7209 13.5073C10.7743 11.9021 11.3267 10.665 11.9907 10.6633C12.6547 10.6652 13.2071 11.9021 13.2605 13.5073C15.5795 14.2575 17.4874 13.9161 19.8066 13.5073V4.75519L11.9907 6.1058L4.17383 4.75519ZM4.17383 14.7044V17.9475C6.32605 18.2912 8.19322 18.5989 10.3448 17.9475V14.7044C8.19256 15.048 6.32544 15.3557 4.17383 14.7044ZM13.6357 14.7044V17.9475C15.7879 18.2912 17.6551 18.5989 19.8067 17.9475V14.7044C17.6544 15.048 15.7873 15.3557 13.6357 14.7044ZM4.33381 19.1364V22.1458C6.37438 22.4647 8.14484 22.7502 10.1849 22.1458V19.1364C8.14423 19.4552 6.37386 19.7408 4.33381 19.1364ZM13.7957 19.1364V22.1458C15.8363 22.4647 17.6067 22.7502 19.6467 22.1458V19.1364C17.6061 19.4552 15.8358 19.7408 13.7957 19.1364Z" fill="currentColor"/>
</svg>
