<svg width="24" height="24" viewBox="0 0 24 24" fill="none" xmlns="http://www.w3.org/2000/svg">
<path fill-rule="evenodd" clip-rule="evenodd" d="M7.71429 2.57129C6.86571 2.57129 6.20057 3.08729 5.78914 3.70615C5.37257 4.33015 5.14286 5.14443 5.14286 5.99986C5.14286 6.85529 5.37257 7.66957 5.78914 8.29357C6.20057 8.91072 6.86571 9.42843 7.71429 9.42843C8.56286 9.42843 9.228 8.91243 9.63943 8.29357C10.056 7.66957 10.2857 6.85529 10.2857 5.99986C10.2857 5.14443 10.056 4.33015 9.63943 3.70615C9.228 3.089 8.56286 2.57129 7.71429 2.57129ZM16.2857 2.57129C15.4371 2.57129 14.772 3.08729 14.3606 3.70615C13.944 4.33015 13.7143 5.14443 13.7143 5.99986C13.7143 6.85529 13.944 7.66957 14.3606 8.29357C14.772 8.91072 15.4371 9.42843 16.2857 9.42843C17.1343 9.42843 17.7994 8.91243 18.2109 8.29357C18.6274 7.66957 18.8571 6.85529 18.8571 5.99986C18.8571 5.14443 18.6274 4.33015 18.2109 3.70615C17.7994 3.089 17.1343 2.57129 16.2857 2.57129ZM2.57143 10.2856C1.72286 10.2856 1.05771 10.8016 0.646286 11.4204C0.229714 12.0444 0 12.8587 0 13.7141C0 14.5696 0.229714 15.3839 0.646286 16.0079C1.05771 16.625 1.72286 17.1427 2.57143 17.1427C3.42 17.1427 4.08514 16.6267 4.49657 16.0079C4.91314 15.3839 5.14286 14.5696 5.14286 13.7141C5.14286 12.8587 4.91314 12.0444 4.49657 11.4204C4.08514 10.8033 3.42 10.2856 2.57143 10.2856ZM12 10.2856C9.94286 10.2856 8.41886 11.3896 7.44514 12.7593C6.48343 14.1084 6 15.7833 6 17.1427C6 18.7267 6.95143 19.8273 8.11886 20.489C9.26743 21.1404 10.7074 21.4284 12 21.4284C13.2926 21.4284 14.7326 21.1421 15.8811 20.489C17.0469 19.8273 18 18.7267 18 17.1427C18 15.7833 17.5166 14.1084 16.5549 12.7593C15.5829 11.3879 14.0589 10.2856 12 10.2856ZM21.4286 10.2856C20.58 10.2856 19.9149 10.8016 19.5034 11.4204C19.0869 12.0444 18.8571 12.8587 18.8571 13.7141C18.8571 14.5696 19.0869 15.3839 19.5034 16.0079C19.9149 16.625 20.58 17.1427 21.4286 17.1427C22.2771 17.1427 22.9423 16.6267 23.3537 16.0079C23.7703 15.3839 24 14.5696 24 13.7141C24 12.8587 23.7703 12.0444 23.3537 11.4204C22.9423 10.8033 22.2771 10.2856 21.4286 10.2856Z" fill="currentColor"/>
</svg>
