<svg width="24" height="24" viewBox="0 0 24 24" fill="none" xmlns="http://www.w3.org/2000/svg">
<path d="M14.7896 10.6201L3.49961 21.9001L2.09961 20.5001L13.3796 9.21012L14.7896 10.6201ZM19.2696 7.73012L19.8596 7.14012L19.0696 6.35012L19.7096 5.71012L18.2896 4.29012L17.6496 4.93012L16.8596 4.14012L16.2696 4.73012C14.5296 3.31012 12.5696 2.17012 10.4696 1.37012L9.63961 3.16012C11.3896 4.08012 12.9996 5.19012 14.4996 6.50012L13.9996 7.00012L16.9996 10.0001L17.4996 9.50012C18.8096 11.0001 19.9196 12.6101 20.8396 14.3601L22.6296 13.5301C21.8296 11.4301 20.6896 9.47012 19.2696 7.73012Z" fill="currentColor"/>
</svg>
