<svg width="24" height="24" viewBox="0 0 24 24" fill="none" xmlns="http://www.w3.org/2000/svg">
<path fill-rule="evenodd" clip-rule="evenodd" d="M7.7819 0.0681223C4.43558 1.39196 2.46158 5.38844 3.8579 11.0937C3.97814 11.5994 4.89302 12.3216 4.96526 12.803C5.01326 13.2847 4.19486 13.5254 4.17086 13.9586C4.17086 14.8252 4.02638 15.5956 3.8579 16.2938L2.14862 15.8846C1.5467 16.5828 0.993023 17.2327 0.704063 17.9308C0.511583 18.4363 0.391103 19.0382 0.656063 19.6161C5.30246 22.529 13.1745 23.9493 17.8449 23.9976C18.5428 24.0216 18.7835 23.8771 19.0245 23.3716C19.0965 23.2029 19.1929 22.9622 19.2892 22.6732C19.5059 22.0956 19.7224 21.3012 19.9151 20.314C20.0836 19.3512 20.2041 18.1956 20.1558 16.992C20.1558 16.366 18.591 15.9086 18.639 15.2587C18.6633 14.7772 19.9391 14.1031 19.4817 13.1642C18.3985 10.9495 18.7113 9.2642 19.3614 7.91612C19.9873 6.5438 21.2632 5.3642 23.1649 4.08836C23.7189 3.70316 23.5501 2.83652 22.8762 2.71628L8.1911 0.0198823C8.04662 -0.0281178 7.90214 0.0198823 7.7819 0.0678823M8.1911 1.56044L20.9742 3.89564C19.6984 4.90676 18.591 5.96588 17.9891 7.26596C17.1707 9.02324 17.1707 10.8288 18.0613 13.3567C18.2541 13.9344 16.665 14.8732 16.7615 15.4269C16.8575 16.0046 18.567 16.775 18.591 17.3287C18.615 18.412 18.591 19.1584 18.4225 20.0491C18.2781 20.9397 18.1096 21.6861 17.8689 22.1916C17.6521 22.5528 17.0505 22.2398 16.8337 21.4694C16.5928 20.5305 16.7133 20.0251 17.2429 19.3029C13.2707 18.9657 9.29846 18.1473 5.32646 16.6548C5.54294 15.9084 5.68742 15.4752 5.71142 14.488C5.71142 14.0066 6.52982 13.9584 6.45782 13.4047C6.40982 12.827 5.4707 11.3584 5.32646 10.7325C4.05038 5.60468 5.71142 2.6438 8.1911 1.56044ZM9.7319 2.06588L8.5763 3.029C8.09486 3.029 7.63742 3.26972 7.32446 3.63068L6.28934 3.8714L6.93926 4.54556C6.86726 5.07524 7.0355 5.62892 7.44494 5.98988L7.32446 7.43444L8.35958 6.39932C8.88926 6.42332 9.41894 6.2066 9.7559 5.7974L10.6468 5.67692L10.1651 4.88252C10.2133 4.35284 10.0449 3.79916 9.65966 3.4382L9.7319 2.06588ZM8.64854 4.03988C8.69654 4.03988 8.76902 4.03988 8.81702 4.06388C9.17822 4.2326 9.27446 4.71428 9.08198 5.027C8.91326 5.36396 8.45606 5.53268 8.1671 5.29172C7.8059 5.027 7.85414 4.47332 8.1671 4.2086C8.28734 4.08812 8.48006 4.01588 8.64854 4.03988ZM13.2467 6.13436L12.4041 6.66404L13.1265 7.84364L12.0429 8.39732L12.5003 9.2882L13.6319 8.71028L14.5465 10.1788L15.3892 9.64916L14.5468 8.25284L15.9189 7.55468L15.4614 6.66404L14.0171 7.38644L13.2467 6.13436ZM10.9355 8.1566L10.4541 8.25284C9.90038 8.42132 9.3467 8.71028 8.91326 9.11948L9.58742 9.86588C10.0209 9.45668 10.5745 9.21596 11.1522 9.11948L10.9355 8.1566ZM8.2151 10.0346L7.99862 10.4198C7.87188 10.7519 7.75937 11.0892 7.66142 11.4309L7.58942 12.1291L8.6003 12.2253C8.6243 11.8401 8.67254 11.4549 8.81702 11.094C8.86502 10.8772 8.9855 10.7088 9.08198 10.5403L8.2151 10.0346ZM8.64854 13.044L7.68566 13.3087C7.8059 13.7179 7.90214 14.1511 8.1431 14.5123C8.26334 14.8012 8.43182 15.042 8.6003 15.2827L9.4187 14.6808C9.17822 14.3438 8.9615 13.9828 8.81702 13.5734L8.64854 13.044ZM10.0209 15.2827L9.41894 16.1011C9.97262 16.5345 10.6468 16.8475 11.2967 17.0882L11.6819 16.1736C11.08 15.9326 10.5023 15.6919 10.0209 15.2827ZM12.6208 16.5585L12.2116 17.4734C12.717 17.7141 13.2225 18.0271 13.5354 18.5328L14.3781 17.9791C14.1856 17.6661 13.9449 17.4254 13.6559 17.1847C13.3343 16.9395 12.9873 16.7295 12.6208 16.5585Z" fill="currentColor"/>
</svg>
