<svg width="24" height="24" viewBox="0 0 24 24" fill="none" xmlns="http://www.w3.org/2000/svg">
<path fill-rule="evenodd" clip-rule="evenodd" d="M15.993 2.01706C15.9235 2.12327 15.8591 2.23273 15.8 2.34506L15.477 2.92806L12.65 4.31806L12.482 4.40106C10.856 5.23606 9.71003 6.80406 9.36603 8.63406C9.35603 8.68406 9.34703 8.73706 9.33203 8.82406L9.33103 8.83106L9.30103 9.00406C9.03236 10.5006 8.29938 11.8745 7.20603 12.9311L6.40203 13.7211C5.89803 14.2171 5.49203 14.6171 5.18803 14.9611C4.87803 15.3111 4.62803 15.6551 4.47803 16.0491C4.28048 16.5696 4.21035 17.1299 4.2735 17.6831C4.33664 18.2363 4.53124 18.7664 4.84103 19.2291C5.07703 19.5791 5.39903 19.8551 5.78003 20.1231C6.15303 20.3851 6.63903 20.6781 7.24003 21.0401L7.95303 21.4701C8.55403 21.8321 9.04003 22.1241 9.44503 22.3301C9.85703 22.5401 10.251 22.6971 10.67 22.7361C11.2198 22.786 11.7732 22.6942 12.2774 22.4694C12.7815 22.2446 13.2197 21.8944 13.55 21.4521C13.804 21.1171 13.963 20.7201 14.098 20.2681C14.231 19.8231 14.359 19.2581 14.518 18.5531L14.773 17.4321L14.812 17.2611C15.1586 15.7848 15.9625 14.4556 17.109 13.4631L17.115 13.4581L17.256 13.3321C18.614 12.0951 19.332 10.2781 19.214 8.41806L19.199 8.22606L18.937 4.95906L19.292 4.31706C19.35 4.21406 19.412 4.10106 19.458 3.99906C19.511 3.88306 19.569 3.72506 19.578 3.53206C19.5897 3.27478 19.5216 3.02017 19.383 2.80306C19.2931 2.66841 19.1788 2.55174 19.046 2.45906C18.948 2.39023 18.8469 2.32583 18.743 2.26606L17.928 1.77506C17.8204 1.70824 17.7104 1.64553 17.598 1.58706C17.4458 1.509 17.2796 1.46176 17.109 1.44806C16.8393 1.43182 16.5716 1.50339 16.346 1.65206C16.2052 1.74924 16.0849 1.87328 15.992 2.01706M15.982 4.35006L17.454 5.23706L17.702 8.33806C17.707 8.40206 17.711 8.44106 17.712 8.47206L16.657 8.82306C16.3477 8.92648 16.0173 8.95064 15.6962 8.89333C15.3751 8.83603 15.0735 8.6991 14.819 8.49506C14.304 8.08236 13.6813 7.82606 13.025 7.75658C12.3686 7.6871 11.7061 7.80735 11.116 8.10306L11.056 8.13306C11.4568 7.0445 12.2686 6.15658 13.317 5.66006L15.982 4.35006Z" fill="currentColor"/>
</svg>
