<svg width="24" height="24" viewBox="0 0 24 24" fill="none" xmlns="http://www.w3.org/2000/svg">
<path d="M19.5 5.25016L19.275 5.02516C18 3.60016 16.125 3.15016 16.125 3.15016C13.875 2.47516 10.35 3.97516 7.2015 7.04866C4.5765 9.52516 3 12.5252 3 14.7752C3 15.0774 3.0765 15.3759 3.0765 15.6752C3.22575 17.1752 4.2015 18.7509 5.02425 19.5009C6.0765 20.5494 7.42425 21.0774 8.92425 21.0774C11.3993 21.0774 14.3265 19.6502 17.0242 17.1017C21.2257 12.9752 22.275 8.10016 19.5 5.25016ZM7.5 16.2752C7.5 15.2987 8.5485 13.2752 10.7985 11.0252C12.9757 8.85016 15.2257 8.25016 16.2742 8.02516C15.75 9.45166 14.625 11.1737 12.9758 12.8267C11.3993 14.3267 9.60075 15.5244 8.02425 16.1252C7.875 16.2017 7.64925 16.2017 7.5 16.2752ZM8.25 8.10016C10.725 5.62516 13.35 4.42366 15 4.42366C15.525 4.42366 15.975 4.57666 16.275 4.87516C16.5765 5.17366 16.725 5.77516 16.65 6.45166C15.75 6.52441 12.6735 7.04866 9.75 9.97591C7.875 11.8509 5.9235 14.5487 6.0765 16.4237C5.625 16.4237 5.1735 16.2744 4.9515 16.0487C4.76605 15.8636 4.63614 15.6303 4.5765 15.3752C4.5765 15.3752 4.5 15.0002 4.5 14.7752C4.5765 12.9002 6 10.2752 8.25 8.10016ZM15.975 15.9752C12.375 19.5767 8.25 20.5487 6.0765 18.4517C5.90743 18.2924 5.75605 18.1154 5.625 17.9237C5.775 18.0002 6 18.0002 6.225 18.0002C6.9 18.0002 7.725 17.8502 8.5485 17.5487C10.3507 16.8752 12.2985 15.6009 14.0242 13.8752C16.6492 11.2502 18.1492 8.25016 18.1492 6.07666L18.2258 6.14941L18.4507 6.29941C20.5485 8.47591 19.5 12.5244 15.9758 15.9759L15.975 15.9752Z" fill="currentColor"/>
</svg>
