<svg width="24" height="24" viewBox="0 0 24 24" xmlns="http://www.w3.org/2000/svg">
<path d="M5.5 19.381C6.90538 19.381 8.28308 19.0033 9.48769 18.2857L13.1846 16.085H5.43077V19.381H5.5ZM13.1846 7.29592L9.48769 5.09521C8.28308 4.37766 6.90538 4 5.5 4H5.43077V7.29592H13.1846ZM4.32308 7.29592V4H3.76923C2.85192 4 2.10769 4.73815 2.10769 5.64796V7.29592H2.38462C1.61962 7.29592 1 7.91047 1 8.66922V14.7117C1 15.4705 1.61962 16.085 2.38462 16.085H2.10769V17.733C2.10769 18.6428 2.85192 19.381 3.76923 19.381H4.32308V16.085H4.6C5.50692 16.085 6.31 15.6524 6.81538 14.9864H16.7846C19.1835 14.9864 21.4577 14.207 22.9877 12.1849C23.2092 11.893 23.2092 11.4879 22.9877 11.1961C21.4577 9.17391 19.1835 8.39456 16.7846 8.39456H6.81538C6.31 7.72851 5.50692 7.29592 4.6 7.29592H4.32308ZM18.7231 11.2648V12.1196C18.7231 12.7925 18.1727 13.3419 17.4908 13.3419C17.4042 13.3419 17.3385 13.2732 17.3385 13.1908V10.2004C17.3385 10.1146 17.4077 10.0494 17.4908 10.0494C18.1692 10.0494 18.7231 10.5953 18.7231 11.2716V11.2648Z" fill="currentColor"/>
</svg>
