<svg width="24" height="24" viewBox="0 0 24 24" fill="none" xmlns="http://www.w3.org/2000/svg">
<path d="M7.98485 0.638672L7.18798 1.70367L7.98485 2.76858L8.78313 1.70358L7.98485 0.638672ZM17.5898 0.994687L16.5439 2.38922L17.5898 3.78516L18.6342 2.38922L17.5898 0.994687ZM11.4829 1.86188L10.4385 3.25641L11.4829 4.65094L12.5288 3.25641L11.4829 1.86188ZM2.53263 2.01998L1.73576 3.08489L2.53263 4.14989L3.33101 3.08489L2.53273 2.01998H2.53263ZM20.8667 3.1845L20.2294 4.56295L18.8496 5.20017L20.2295 5.86373L20.8667 7.2158L21.5024 5.83734L22.8822 5.20017L21.5287 4.563L20.8667 3.18459V3.1845ZM6.7661 3.80419L5.96627 5.53706L4.2334 6.33689L5.96637 7.17033L6.76615 8.86955L7.56443 7.13667L9.2974 6.33684L7.59818 5.53706L6.76615 3.80409L6.7661 3.80419ZM16.5439 4.23628L15.498 5.63081L16.5439 7.02675L17.5883 5.63081L16.5439 4.23628ZM11.849 7.19531L10.9819 8.35256L11.849 9.51122L12.7162 8.35247L11.849 7.19531ZM16.6787 8.65139L16.0224 10.0752L14.5986 10.7315L16.0224 11.4155L16.6787 12.813L17.3364 11.3892L18.7602 10.7315L17.3642 10.0752L16.6786 8.65139H16.6787ZM4.00338 8.97797L3.2051 10.0416L4.00338 11.1065L4.80026 10.0415L4.00338 8.97797ZM8.41549 10.2466L7.61862 11.3116L8.41549 12.3765L9.21387 11.3116L8.41559 10.2466H8.41549ZM11.8213 11.3745C11.4616 11.3797 11.1512 11.5777 10.8047 11.8447C8.64682 13.5089 5.91457 15.924 5.88143 17.2734C5.49532 17.3194 5.15187 17.5202 5.15187 17.874C5.15187 18.4018 5.87299 18.5911 6.39991 18.4483C6.39319 18.4815 6.38977 18.5154 6.38969 18.5493C6.38969 19.3029 7.86157 19.3675 8.13579 18.7587C9.75766 19.1923 11.7469 19.2652 13.5645 19.0473C13.6748 19.7481 15.1562 19.7586 15.3311 19.0956C15.8115 19.4482 16.6863 19.4689 17.2164 19.1601C17.7168 19.4775 18.7355 19.3215 18.7355 18.7001C18.7355 18.6081 18.7137 18.5267 18.6739 18.4555C18.9486 18.3365 19.1456 18.1279 19.1456 17.8285C19.1456 17.1567 18.1545 16.9508 17.5181 17.1913C17.3055 15.7301 14.7197 13.2185 12.7897 11.7684C12.4103 11.4834 12.1012 11.3704 11.8214 11.3744L11.8213 11.3745ZM3.59623 16.6435C3.09232 16.6446 2.58841 16.8788 2.58841 17.3423C2.58841 18.2692 4.60404 18.2517 4.60404 17.3423C4.60404 16.8746 4.09999 16.6425 3.59623 16.6435V16.6435ZM21.8979 17.2544C21.4504 17.2564 21.0029 17.4614 21.0029 17.8652C21.0029 18.6963 22.7929 18.6887 22.7929 17.8652C22.7929 17.4535 22.3454 17.2524 21.8979 17.2544ZM1.80026 17.9913C1.35274 17.9921 0.905273 18.1991 0.905273 18.6108C0.905273 19.4344 2.69529 19.4187 2.69529 18.6108C2.69529 18.1954 2.24777 17.9903 1.80026 17.9913ZM21.0996 19.0928C20.5957 19.0938 20.0918 19.3281 20.0918 19.7915C20.0918 20.7185 22.1059 20.7009 22.1059 19.7915C22.1059 19.3237 21.6034 19.0917 21.0995 19.0927L21.0996 19.0928ZM8.26315 19.4018C7.9819 19.4025 7.70093 19.4846 7.53077 19.6479C7.00418 19.419 6.13038 19.597 6.13038 20.1724C6.13038 20.843 7.31712 20.9557 7.75788 20.5386C8.28448 20.7636 9.15827 20.5859 9.15827 20.0215C9.15827 19.606 8.71076 19.4009 8.26324 19.4018H8.26315ZM12.3516 19.4766C11.9041 19.4785 11.4566 19.6835 11.4566 20.0873C11.4566 20.9183 13.2466 20.9109 13.2466 20.0873C13.2466 19.6757 12.7991 19.4746 12.3516 19.4766ZM3.35159 19.916C2.90407 19.917 2.45655 20.1239 2.45655 20.5357C2.45655 21.3591 4.24662 21.3434 4.24662 20.5357C4.24662 20.1202 3.7991 19.9151 3.35159 19.916ZM17.3437 20.5342C16.8962 20.5361 16.4487 20.7426 16.4487 21.1465C16.4487 21.6093 17.0041 21.8122 17.4961 21.7588C17.4625 21.8316 17.4448 21.9128 17.4448 22.002C17.4448 22.884 19.1569 22.9639 19.4956 22.2612C19.979 22.3002 20.5092 22.0943 20.5092 21.646C20.5092 20.9562 19.253 20.8547 18.8452 21.315C18.6424 21.2724 18.4203 21.27 18.2139 21.3061C18.2301 21.2567 18.2388 21.204 18.2388 21.1465C18.2388 20.7348 17.7913 20.5323 17.3438 20.5342H17.3437ZM10.27 20.6983C9.75682 20.7005 9.24462 20.9369 9.24462 21.3999C9.24462 22.3529 11.2968 22.3442 11.2968 21.3999C11.2968 20.9279 10.7831 20.696 10.27 20.6983L10.27 20.6983ZM14.9854 21.5273C14.3971 21.5286 13.8091 21.802 13.8091 22.3433C13.8091 23.4256 16.1616 23.405 16.1616 22.3433C16.1616 21.7972 15.5736 21.5261 14.9854 21.5273H14.9854ZM7.81348 21.8423C7.30029 21.8445 6.78659 22.0808 6.78659 22.5439C6.78659 23.4968 8.83887 23.4882 8.83887 22.5439C8.83887 22.0718 8.32666 21.84 7.81348 21.8423V21.8423Z" fill="currentColor"/>
</svg>
