<svg width="24" height="24" viewBox="0 0 24 24" fill="none" xmlns="http://www.w3.org/2000/svg">
<path d="M7.425 1.52831C7.65 0.947056 7.35937 0.295494 6.77812 0.0751815C6.19687 -0.145131 5.54531 0.140806 5.325 0.722056L3.80156 4.68768C3.43125 5.65799 3.66093 6.75487 4.39687 7.48612L7.0875 10.1767L3.31875 8.92049C3.20625 8.88299 3.11718 8.79393 3.07968 8.68143L2.19375 6.01893C1.99687 5.42831 1.35937 5.10956 0.768747 5.30643C0.178122 5.50331 -0.140628 6.14081 0.0562471 6.73143L0.942185 9.39393C1.20468 10.1767 1.81875 10.7908 2.60156 11.0533L5.44218 12.0002L2.60625 12.9471C1.82343 13.2096 1.20937 13.8236 0.946872 14.6064L0.0562471 17.2689C-0.140628 17.8596 0.178122 18.4971 0.768747 18.6939C1.35937 18.8908 1.99687 18.5721 2.19375 17.9814L3.07968 15.3189C3.11718 15.2064 3.20625 15.1174 3.31875 15.0799L7.0875 13.8236L4.39218 16.5142C3.66093 17.2502 3.42656 18.3471 3.80156 19.3127L5.325 23.2783C5.55 23.8596 6.19687 24.1455 6.77812 23.9252C7.35937 23.7049 7.64531 23.0533 7.425 22.4721L5.90156 18.5064C5.85 18.3658 5.88281 18.2111 5.98593 18.108L7.5 16.5892C7.54687 19.0314 9.54375 21.0002 12 21.0002C14.4562 21.0002 16.4531 19.0361 16.5 16.5892L18.0141 18.1033C18.1172 18.2064 18.15 18.3658 18.0984 18.5017L16.575 22.4674C16.35 23.0486 16.6406 23.7002 17.2219 23.9205C17.8031 24.1408 18.4547 23.8549 18.675 23.2736L20.1984 19.3127C20.5687 18.3424 20.3391 17.2455 19.6031 16.5142L16.9125 13.8236L20.6812 15.0799C20.7937 15.1174 20.8828 15.2064 20.9203 15.3189L21.8062 17.9814C22.0031 18.5721 22.6406 18.8908 23.2312 18.6939C23.8219 18.4971 24.1406 17.8596 23.9437 17.2689L23.0578 14.6064C22.7953 13.8236 22.1812 13.2096 21.3984 12.9471L18.5578 12.0002L21.3937 11.0533C22.1766 10.7908 22.7906 10.1767 23.0531 9.39393L23.9391 6.73143C24.1359 6.14081 23.8172 5.50331 23.2266 5.30643C22.6359 5.10956 21.9984 5.42831 21.8016 6.01893L20.9156 8.68143C20.8781 8.79393 20.7891 8.88299 20.6766 8.92049L16.9078 10.1767L19.5984 7.48612C20.3297 6.75487 20.5641 5.65799 20.1937 4.68768L18.675 0.722056C18.45 0.140806 17.8031 -0.149819 17.2219 0.0751815C16.6406 0.300181 16.3547 0.947056 16.575 1.52831L18.0984 5.49393C18.15 5.63456 18.1172 5.78924 18.0141 5.89237L15.75 8.16112V7.50018C15.75 6.00956 14.8781 4.72049 13.6172 4.11581C13.1906 3.90956 12.75 4.27049 12.75 4.74393V5.25018C12.75 5.66268 12.4125 6.00018 12 6.00018C11.5875 6.00018 11.25 5.66268 11.25 5.25018V4.74393C11.25 4.27049 10.8094 3.91424 10.3828 4.11581C9.12187 4.72049 8.25 6.00956 8.25 7.50018V8.16112L5.98593 5.89706C5.88281 5.79393 5.85 5.63456 5.90156 5.49862L7.425 1.53299V1.52831Z" fill="currentColor"/>
</svg>
