<svg width="24" height="24" viewBox="0 0 24 24" fill="none" xmlns="http://www.w3.org/2000/svg">
<path d="M15.7338 0.915527C14.5849 0.919887 13.4372 1.16092 12.4028 1.648C11.3499 2.14379 10.3819 3.25121 9.66642 4.58064C8.95092 5.91001 8.48602 7.45229 8.36845 8.74079C8.0175 12.5898 5.93442 16.0229 0.878766 20.5795L0.869953 21.5845C4.18191 18.9114 6.55842 16.2484 8.26458 13.5938L8.26753 13.5952C7.83192 15.1174 7.20708 16.5568 6.22406 17.7188C4.74891 19.3868 2.97928 21.0516 0.858375 22.7124L0.855469 23.0991L2.02734 23.1021H2.04938L2.10938 23.0479C3.25336 22.2746 4.38783 21.5719 5.51222 21.1026L5.52098 21.1114L3.3443 23.1036L4.70072 23.1065C6.96816 21.1525 9.14044 18.8606 10.7769 16.6847C12.3513 14.5913 13.4029 12.5919 13.6217 11.2076C13.5622 11.0988 13.5021 10.9907 13.4503 10.8751C12.5675 8.9035 13.25 6.35518 15.3355 5.43461C16.8698 4.75726 18.8443 5.28625 19.5748 6.90386C19.5818 6.91947 19.59 6.93357 19.5968 6.94932C20.2204 8.07723 19.8863 9.2687 19.1588 9.85417C18.7901 10.1508 18.2943 10.3008 17.8111 10.1617C17.3279 10.0226 16.9185 9.60986 16.6627 8.98398L17.4727 8.65295C17.6598 9.11064 17.879 9.26936 18.0528 9.31951C18.2266 9.36948 18.4169 9.32645 18.6094 9.17148C18.9945 8.86164 19.2789 8.14445 18.816 7.34195L18.8028 7.31992L18.7925 7.29648C18.291 6.13304 16.8256 5.734 15.6885 6.23593C14.0918 6.94079 13.5512 8.95712 14.25 10.5177C15.2123 12.6668 17.9049 13.3854 19.9864 12.4337C22.8062 11.1447 23.7425 7.59025 22.4752 4.84876C21.3156 2.34081 18.6591 0.982324 15.9638 0.918621C15.8873 0.916746 15.8105 0.91534 15.7339 0.915668L15.7338 0.915527ZM14.5268 2.16803C14.6785 2.16967 14.825 2.18434 14.9677 2.2105C15.4525 2.29946 15.9026 2.52704 16.3285 2.83159C14.8931 2.57673 13.5946 3.04778 12.542 3.99325C11.4901 4.93787 10.7063 6.36465 10.3959 7.9644C10.1777 7.432 10.06 6.95837 10.0825 6.47753C10.0964 6.1802 10.1629 5.87021 10.3065 5.52986C10.7328 4.68536 11.2924 3.93864 11.9575 3.34126C12.3242 3.01192 12.7258 2.72861 13.1542 2.50196C13.6666 2.25765 14.1162 2.16353 14.5268 2.16798L14.5268 2.16803ZM20.2895 5.08895C21.348 5.70615 21.9003 7.05114 21.8334 8.40095C21.807 8.93509 21.6709 9.4779 21.416 9.97707C20.831 10.8647 19.7505 11.1729 19.0736 10.9556L19.0693 10.9439C20.3791 10.458 20.9059 9.4262 20.9589 8.35684C20.9648 8.23965 20.9643 8.12275 20.9575 8.00678C21.0254 7.38287 20.9382 6.65711 20.7011 5.97067C20.5959 5.66617 20.4597 5.36645 20.2866 5.09317L20.2896 5.08881L20.2895 5.08895ZM13.935 5.15045C12.952 6.05711 12.5565 6.80289 12.3764 7.55279C12.196 8.30387 12.2457 9.09217 12.2402 10.0313C12.2336 11.1465 12.1202 12.4473 11.3759 14.0479C11.3757 14.0485 11.3747 14.0488 11.3745 14.0493C10.3857 15.3034 9.25219 16.4986 8.14449 17.2076L8.14153 17.2062C11.1507 13.8525 11.3537 11.8253 11.3642 10.0254C11.3694 9.12554 11.3055 8.26318 11.5253 7.34771C11.5524 7.23525 11.5837 7.12384 11.6191 7.01373H11.6205C12.0001 6.21517 12.3973 5.79226 12.8144 5.53421C13.151 5.32609 13.5192 5.22029 13.935 5.15045H13.935Z" fill="currentColor"/>
</svg>
