<svg width="24" height="24" viewBox="0 0 24 24" fill="none" xmlns="http://www.w3.org/2000/svg">
<path d="M9.83787 2.06982L1.30662 7.06061L6.91404 9.60639L13.8677 10.1558L15.835 9.01614L16.6479 9.55811L14.4844 10.812V17.7905L16.9951 17.105L13.9658 19.5411L8.76855 16.7461L8.66745 16.6744L5.3262 16.9819L8.88569 15.4834L13.6084 17.9268V11.0127L6.76901 10.4737L6.69284 10.4678L6.62252 10.4356L0.946289 7.85743V18.3502L2.06248 19.8369L5.90623 20.8198L6.93162 19.8222L7.45455 21.2154L13.6084 22.79V20.3438L13.8076 20.4506L14.064 20.5884L14.2896 20.4053L14.4844 20.2486V22.6934L23.0332 17.7084V13.1895L21.8803 12.6314L23.0332 10.815V5.85939L18.8027 8.31001L18.7514 9.90821L14.6264 7.15721L18.6094 7.40917L22.3359 5.25001L13.6669 3.04393L13.7431 3.07032L10.7241 3.34126L10.9746 2.35989L9.83791 2.06982H9.83787Z" fill="currentColor"/>
</svg>
