<svg width="24" height="24" viewBox="0 0 24 24" fill="none" xmlns="http://www.w3.org/2000/svg">
<path d="M23.7164 0.745463L23.5655 0.439984L23.2639 0.287245C23.1131 0.287245 19.4934 -0.934668 16.9295 1.6619L6.82458 11.7427C5.46721 10.8262 4.26065 9.90981 4.10983 10.2153L3.50655 10.6735C3.20491 10.979 4.86393 13.2701 6.2213 14.7975L2.45082 19.9906C1.99836 19.5324 1.24426 19.5324 0.791802 19.9906L0.339344 20.4488C-0.113115 20.907 -0.113115 21.6707 0.339344 22.1289L1.84754 23.6563C2.3 24.1146 3.05409 24.1146 3.50655 23.6563L3.95901 23.1981C4.41147 22.7399 4.41147 21.9762 3.95901 21.518L9.23769 17.6995C10.7459 19.0742 13.0082 20.7543 13.3098 20.4488L13.9131 19.8379C14.0639 19.6851 13.3098 18.3105 12.2541 17.0886L22.359 6.85503C24.9229 4.56394 23.7164 0.898202 23.7164 0.745463ZM11.5 16.0194L10.2934 14.7975L19.6442 4.25846L9.23769 13.7283L8.18196 12.6591L17.9852 2.73107C19.4934 1.20368 21.4541 1.50916 22.359 1.6619C22.5098 2.57833 22.8114 4.56394 21.3033 5.93859L11.5 16.0194Z" fill="currentColor"/>
</svg>
