<svg width="24" height="24" viewBox="0 0 24 24" fill="none" xmlns="http://www.w3.org/2000/svg">
<path d="M8.2144 1.00439L5.04818 2.83439L5.70368 3.97111L6.86791 3.29813L8.89587 6.8145L8.17699 7.23C7.79637 6.71372 7.21207 6.40913 6.6003 6.36502C6.18799 6.33535 5.7634 6.42371 5.38095 6.64477C4.36109 7.23422 4.00798 8.55375 4.59659 9.57436C5.1852 10.595 6.50449 10.949 7.5244 10.3595C7.90596 10.139 8.1941 9.81624 8.37462 9.44527L12.6859 16.9209L13.6637 16.3558L15.2419 19.0926L15.793 18.7741L18.3753 23.2517L19.1342 22.8139L16.5515 18.3356L17.0766 18.0321L15.4984 15.2954L16.4762 14.7302L12.2864 7.46527C12.7294 7.51777 13.1917 7.43386 13.605 7.19508C14.6248 6.60563 14.9779 5.2861 14.3893 4.26549C14.0214 3.62761 13.3681 3.25018 12.6809 3.20063C12.2685 3.17096 11.8439 3.25922 11.4615 3.48033C10.6032 3.97641 10.2172 4.98952 10.4673 5.90639L9.65431 6.37627L7.6263 2.8598L8.8699 2.14102L8.2144 1.00439ZM16.0327 4.0605L14.7743 9.89696L17.2117 14.1241L21.8147 14.7163L17.8686 12.1929L21.8593 11.8375L19.5765 10.0284L23.075 6.70679L19.1302 8.03007L18.9299 5.07413L16.4522 8.62519L16.0327 4.0605ZM12.5319 4.20291C12.5591 4.20275 12.5862 4.20361 12.6133 4.20549C12.9742 4.23014 13.3146 4.42979 13.5116 4.77146C13.8269 5.31811 13.6436 6.00263 13.098 6.31796C12.5524 6.63329 11.8699 6.45029 11.5546 5.90358C11.2393 5.35702 11.4227 4.6725 11.9683 4.35718C12.1474 4.25368 12.3411 4.2038 12.5319 4.20286V4.20291ZM10.8365 6.70463L15.2799 14.4096L13.0066 15.7235L8.5631 8.01868L10.8364 6.70477L10.8365 6.70463ZM6.45134 7.36744C6.47852 7.36729 6.50566 7.36814 6.53276 7.37002C6.8937 7.39468 7.2341 7.59422 7.43112 7.93589C7.7464 8.48255 7.56307 9.16707 7.01749 9.48239C6.47187 9.79777 5.78937 9.61486 5.47413 9.06821C5.1589 8.52164 5.34223 7.83704 5.88785 7.52166C6.06691 7.41816 6.26074 7.36838 6.45143 7.36744H6.45134ZM5.02334 11.3678L7.10571 13.2767L2.32634 13.5004L6.13165 15.5601L1.58496 19.3675L6.72565 18.1856L6.51499 22.0658L9.5089 18.4014L10.7426 21.7097L12.0004 17.5883L8.96505 12.3241L5.02334 11.3678Z" fill="currentColor"/>
</svg>
