<svg width="24" height="24" viewBox="0 0 24 24" fill="none" xmlns="http://www.w3.org/2000/svg">
<path d="M5.50273 0.834473L1.0543 5.34854C1.81367 6.24854 3.10273 7.0126 4.15742 7.23291C4.87461 7.37354 5.5918 7.31729 6.18711 7.0126C7.56055 8.36729 8.91523 9.74541 10.2652 11.1329L11.3059 10.0876L7.19961 5.98603C7.49492 5.39541 7.59805 4.67588 7.41055 3.97979C7.02617 2.5501 6.4168 1.74947 5.50273 0.834473ZM11.3668 1.27979C10.9309 1.28447 10.4996 1.32197 10.0777 1.40635C15.5668 4.71104 19.6684 9.12666 22.9027 14.236C23.034 11.461 21.909 8.60166 20.123 6.28135C19.4199 6.53916 18.5527 6.30947 17.948 5.70947C17.348 5.10479 17.1184 4.2376 17.3762 3.53447C15.534 2.13291 13.4246 1.27041 11.3668 1.27979ZM6.01836 2.82197C6.28555 3.26729 6.46367 3.72197 6.54805 4.14854C6.70273 4.92197 6.55742 5.55947 6.14492 5.97197C5.73711 6.37979 5.09961 6.5251 4.32617 6.3751C3.89961 6.29072 3.44492 6.1126 2.99492 5.84541L6.01836 2.82197ZM18.3699 3.56729C18.0324 3.89729 18.0605 4.57979 18.5715 5.08604C19.0777 5.59697 19.7574 5.62041 20.0949 5.2876C20.4277 4.9501 20.4184 4.25635 19.8934 3.76416C19.4855 3.38307 18.8105 3.13275 18.3699 3.56729ZM15.7309 6.90479L1.04492 21.5954C1.2418 22.1345 1.54648 22.5517 2.19336 22.7626L16.8887 8.0626C16.5371 7.65479 16.148 7.27041 15.7309 6.90479ZM13.7059 12.4876L12.623 13.5704C14.1465 15.1642 15.6699 16.772 17.1887 18.3751C16.4574 19.0548 15.7027 19.6501 15.009 20.0673C17.6293 22.6923 20.8637 23.7282 22.6027 22.622C23.6715 20.8735 22.6543 17.6298 20.048 15.0235C19.598 15.7267 19.0168 16.4626 18.384 17.1657L13.7059 12.4876Z" fill="currentColor"/>
</svg>
