<svg width="24" height="24" viewBox="0 0 24 24" fill="none" xmlns="http://www.w3.org/2000/svg">
<path d="M15.9244 2.61914C13.0279 2.61914 10.6802 4.96664 10.6802 7.86328C10.6802 10.7597 13.0277 13.1074 15.9244 13.1074C18.8208 13.1074 21.1699 10.7599 21.1699 7.86328C21.1699 4.96687 18.8209 2.61914 15.9243 2.61914H15.9244ZM15.9244 3.50391C18.3319 3.50391 20.2838 5.45587 20.2838 7.86328C20.2838 10.2709 18.3318 12.2227 15.9244 12.2227C13.5168 12.2227 11.5664 10.2707 11.5664 7.86328C11.5664 6.31481 12.3731 4.95548 13.5894 4.18219C13.3659 4.45069 13.2305 4.79569 13.2305 5.17238C13.2305 6.02817 13.9245 6.72216 14.7803 6.72216C15.6361 6.72216 16.3301 6.02817 16.3301 5.17238C16.3301 4.35375 15.6944 3.68503 14.8901 3.62841C15.2287 3.54585 15.5759 3.50405 15.9244 3.50391H15.9244ZM12.9932 6.55219C12.5986 6.55219 12.2769 6.87211 12.2769 7.26703C12.2769 7.66172 12.5982 7.98187 12.9932 7.98187C13.3879 7.98187 13.708 7.66209 13.708 7.26703C13.708 6.87244 13.3882 6.55219 12.9932 6.55219ZM9.41604 9.97266C9.37638 10.3381 9.30626 10.672 9.2051 10.9761L12.8848 14.6558C13.1869 14.5539 13.5187 14.4808 13.8809 14.439L9.41604 9.9727V9.97266ZM8.8008 11.8111C8.57065 12.1549 8.28152 12.4389 7.93362 12.6651L11.1958 15.9287C11.4228 15.5814 11.7077 15.2922 12.0513 15.0615L8.8008 11.8111ZM7.09277 13.0635C6.79249 13.1636 6.46474 13.2377 6.1099 13.2832C7.6354 14.7697 9.0417 16.215 10.5718 17.7451C10.6188 17.392 10.6934 17.0655 10.7944 16.7666L7.09277 13.0635ZM6.35745 14.77L0.805664 20.3057V21.334L6.86426 15.2768L6.35745 14.77ZM7.48245 15.895L0.805664 22.5717V23.209H3.32379L9.06002 17.4727L7.48245 15.895Z" fill="currentColor"/>
</svg>
