<svg width="24" height="24" viewBox="0 0 24 24" fill="none" xmlns="http://www.w3.org/2000/svg">
<path d="M12.5812 2.29639L1.99449 15.7031H3.85309L7.4109 10.8187L8.09527 11.3156L4.89371 15.7031H6.18277L7.50465 14.2781L7.42965 15.7031H12.9046L22.0734 2.29639H19.7015L12.6703 12.6047L11.9765 12.1265L18.6843 2.29639H17.0484L14.8078 5.41404L14.1234 4.91717L16.0078 2.29639H12.5812ZM22.4531 3.23811L13.5468 16.2562V17.6953L16.7765 12.9703L17.4703 13.4484L13.5468 19.1859V20.7L22.4531 6.99842V6.44998L21.4218 6.72185L22.4531 5.16092V3.23811ZM1.5459 16.5469V21.7031H2.66293L3.15699 19.9172L3.67871 21.7031H5.44215C5.33902 21.4359 5.28277 21.15 5.28277 20.85C5.28277 19.9781 5.77027 19.2094 6.49684 18.6797C7.2234 18.1547 8.19371 17.8453 9.25777 17.8453C10.3218 17.8453 11.2921 18.1547 12.0187 18.6797C12.2812 18.8719 12.5156 19.0969 12.7031 19.3453V16.5469H1.5459ZM9.25777 18.689C8.35777 18.689 7.55152 18.9562 6.99371 19.364C6.43121 19.7719 6.12652 20.2922 6.12652 20.85C6.12652 21.15 6.21559 21.4359 6.38434 21.7031H7.1484C6.99371 21.4828 6.89527 21.2297 6.89527 20.9484C6.89527 20.4234 7.22809 19.9922 7.66871 19.7156C8.10465 19.4344 8.66715 19.2844 9.28121 19.2844C9.89527 19.2844 10.4578 19.4344 10.8937 19.7156C11.3343 19.9922 11.6671 20.4234 11.6671 20.9484C11.6671 21.2297 11.5687 21.4828 11.414 21.7031H12.1312C12.3 21.4359 12.389 21.15 12.389 20.85C12.389 20.2922 12.0843 19.7719 11.5218 19.364C10.964 18.9562 10.1578 18.689 9.25777 18.689ZM9.28121 20.1281C8.81246 20.1281 8.39059 20.2547 8.11871 20.4281C7.84684 20.6015 7.73902 20.7844 7.73902 20.9484C7.73902 21.1125 7.84684 21.2953 8.11871 21.4687C8.2734 21.5672 8.47496 21.6515 8.70465 21.7031H9.85777C10.0875 21.6515 10.289 21.5672 10.4437 21.4687C10.7156 21.2953 10.8234 21.1125 10.8234 20.9484C10.8234 20.7844 10.7156 20.6015 10.4437 20.4281C10.1718 20.2547 9.74996 20.1281 9.28121 20.1281Z" fill="currentColor"/>
</svg>
