<svg width="24" height="24" viewBox="0 0 24 24" fill="none" xmlns="http://www.w3.org/2000/svg">
<path d="M15.524 0.783785C13.6156 0.783691 11.7079 1.50603 10.2535 2.96047C8.19726 5.0166 7.59107 7.9761 8.43412 10.5659L0.797852 18.2022V19.4092L8.77691 11.4302C8.90582 11.704 9.05099 11.9719 9.21491 12.2315L0.797852 20.6485V23.0757H2.99957L11.525 14.5503C11.7818 14.714 12.0484 14.8617 12.3232 14.9927L4.23895 23.0757H5.50598L13.2286 15.353C15.8153 16.1897 18.7697 15.5819 20.8224 13.5293C22.7637 11.5881 23.4004 8.84605 22.7575 6.36622L17.8224 11.3028L13.6021 10.1807L12.4786 5.96052L17.415 1.02393C16.7973 0.864489 16.162 0.783771 15.524 0.783691V0.783785Z" fill="currentColor"/>
</svg>
