<svg width="24" height="24" viewBox="0 0 24 24" fill="none" xmlns="http://www.w3.org/2000/svg">
<path d="M6.44785 10.2407L2.05 16.9391C1.92167 17.1539 2.05417 17.4332 2.29708 17.4607L10.9745 18.409L6.44785 10.2407ZM2.30875 14.5535L5.44578 9.2963L2.2525 7.32062C2.14125 7.25187 2 7.33437 2 7.468V14.4637C2 14.6368 2.22041 14.7013 2.30875 14.5535ZM2.76041 19.2013L10.8603 22.9679C11.0811 23.0732 11.3332 22.9065 11.3332 22.656V19.8342L2.85207 18.8761C2.66666 18.8546 2.59249 19.1162 2.76041 19.2013ZM6.14452 8.12499L9.47489 1.98311C9.65572 1.67976 9.32531 1.32785 9.02573 1.50445L2.74207 5.74154C2.63916 5.81115 2.64249 5.96755 2.74749 6.03286L6.14452 8.12499ZM11.9999 8.5624H16.5502L12.5678 1.32742C12.4373 1.10914 12.2186 1 11.9999 1C11.7811 1 11.5624 1.10914 11.4319 1.32742L7.4495 8.5624H11.9999ZM21.7472 7.32062L18.5539 9.29673L21.691 14.5539C21.7789 14.7017 21.9997 14.6372 21.9997 14.4637V7.468C21.9997 7.33437 21.8585 7.25187 21.7472 7.32062ZM17.8552 8.12499L21.2522 6.03243C21.3576 5.96712 21.3606 5.81072 21.2576 5.74111L14.974 1.50445C14.6744 1.32785 14.344 1.67976 14.5248 1.98311L17.8552 8.12499ZM21.1476 18.8761L12.6665 19.8338V22.6555C12.6665 22.9065 12.9186 23.0728 13.1394 22.9675L21.2393 19.2009C21.4072 19.1162 21.3331 18.8546 21.1476 18.8761ZM17.5519 10.2407L13.0257 18.409L21.703 17.4607C21.946 17.4328 22.0785 17.1539 21.9501 16.9391L17.5519 10.2407ZM11.9999 9.93738H7.81533L11.9999 17.489L16.1844 9.93738H11.9999Z" fill="currentColor"/>
</svg>
