<svg width="24" height="24" viewBox="0 0 24 24" fill="none" xmlns="http://www.w3.org/2000/svg">
<path d="M9.872 2.08087L9.54388 1.87508C8.90169 1.48133 8.10013 1.25258 7.41106 1.46727C6.67044 1.6979 6.07981 2.26837 5.77044 3.12524L5.32981 2.89837C4.57044 2.50743 4.17294 2.50133 3.84341 2.64946C3.58044 2.76712 3.30622 3.05024 2.99544 3.46368L6.85794 6.45008C7.46263 6.64696 8.34856 6.64227 9.2345 6.41258C10.1251 6.1829 11.0111 5.7329 11.6579 5.12821L13.1157 1.52352C11.8314 0.508678 10.6595 1.09649 9.872 2.08087ZM12.3611 5.66727C11.5642 6.47352 10.3783 7.01727 9.45481 7.26102C9.13137 7.3454 8.80794 7.40633 8.49387 7.43915C8.32044 7.72508 8.17513 8.01571 8.06263 8.30633C8.28763 9.45008 8.7095 10.3876 9.34231 11.1563L8.66731 11.7188C8.27825 11.2501 7.93138 10.7438 7.66888 10.1813C7.62669 11.2688 7.87044 12.3938 8.26887 13.5657L7.43919 13.847C6.70794 11.7095 6.4595 9.5204 7.48606 7.4579C7.13919 7.42977 6.81106 7.36415 6.50638 7.25633L6.49231 7.25165C6.29075 7.44383 6.09856 7.6454 5.91575 7.85633C4.43591 9.57196 3.62075 11.8548 4.04731 13.6313C4.27559 14.5829 4.68481 15.4829 5.27356 16.2516C6.13606 16.2329 6.95169 16.2516 7.69231 16.5329C8.04388 16.4954 8.40481 16.472 8.77981 16.472C10.1158 16.472 11.3251 16.7204 12.2392 17.1516C12.5954 17.3204 12.9189 17.522 13.1767 17.7516C13.1767 17.5032 13.2142 17.236 13.2892 17.0391C12.872 16.6454 12.6095 16.1673 12.6095 15.6235C12.6095 14.8688 13.1111 14.2454 13.8376 13.7954C13.8376 13.5798 13.8798 13.3735 13.9548 13.1766C13.4814 12.7688 13.1767 12.2626 13.1767 11.672C13.1767 11.3016 13.2986 10.9641 13.5048 10.6595C13.2986 10.3595 13.1767 10.022 13.1767 9.65165C13.1767 9.46883 13.2048 9.30008 13.2564 9.13602C12.8017 8.7329 12.5158 8.23602 12.5158 7.66415C12.5158 7.09696 12.797 6.60477 13.247 6.20633C12.9704 5.99071 12.6751 5.8079 12.3611 5.66727ZM17.5829 5.77508C16.3642 5.77508 15.2626 6.0329 14.5079 6.41258C13.7486 6.79227 13.3923 7.26102 13.3923 7.66415C13.3923 8.07196 13.7486 8.54071 14.5079 8.9204C15.2626 9.30008 16.3642 9.5579 17.5829 9.5579C18.1126 9.5579 18.6142 9.50633 19.0783 9.42196V8.62508C19.7298 8.52665 20.2689 8.34852 20.6158 8.11883V8.94383C21.2017 8.77508 21.7642 8.15165 21.7783 7.66415C21.7783 7.26102 21.422 6.79227 20.6626 6.41258C19.9033 6.0329 18.8064 5.77508 17.5829 5.77508ZM22.1064 8.94852C21.9517 9.11258 21.7689 9.26727 21.5626 9.4079L21.572 10.7673C22.1626 10.4157 22.4392 10.0079 22.4392 9.65165C22.4392 9.42665 22.3314 9.1829 22.1064 8.94852ZM14.0532 9.6704C14.0673 10.0735 14.4236 10.5282 15.1689 10.9032C15.9283 11.2876 17.0251 11.5407 18.2486 11.5407C19.0126 11.5407 19.7298 11.4376 20.3439 11.2688L20.3767 9.99383C19.5704 10.2751 18.6142 10.4298 17.5829 10.4298C16.247 10.4298 15.0329 10.1626 14.1142 9.70321C14.0908 9.69383 14.072 9.67977 14.0532 9.6704ZM14.147 11.3016C14.0814 11.4282 14.0532 11.5548 14.0532 11.672C14.0532 12.0798 14.4095 12.5485 15.1689 12.9282C15.9283 13.3079 17.0251 13.561 18.2486 13.561C18.8673 13.561 19.4533 13.5001 19.9829 13.3829V12.2579C19.4392 12.361 18.8579 12.4126 18.2486 12.4126C16.9079 12.4126 15.6939 12.1501 14.7751 11.686C14.5454 11.5735 14.3345 11.4423 14.147 11.3016ZM22.3454 11.3016C22.0595 11.5032 21.8111 11.6532 21.5204 11.7798V12.8251C22.1439 12.4641 22.4392 12.0423 22.4392 11.672C22.4392 11.5548 22.4111 11.4282 22.3454 11.3016ZM22.697 13.0266C22.6033 13.1204 22.5001 13.2095 22.3876 13.2985V14.8173C22.8704 14.4891 23.1048 14.1282 23.1048 13.8001C23.1048 13.5516 22.9689 13.2845 22.697 13.0266ZM14.7236 13.6829C14.7189 13.7251 14.7142 13.7626 14.7142 13.8001C14.7142 14.2079 15.0704 14.672 15.8298 15.0516C16.5892 15.436 17.6908 15.6891 18.9095 15.6891C19.6079 15.6891 20.2736 15.6048 20.8501 15.4641V14.0626C20.0861 14.3063 19.2001 14.4376 18.2486 14.4376C16.9079 14.4376 15.6939 14.1704 14.7751 13.711C14.7564 13.7016 14.7423 13.6923 14.7236 13.6829ZM14.0861 14.686C13.6783 14.9907 13.4861 15.3235 13.4861 15.6235C13.4861 16.0313 13.8423 16.4954 14.6017 16.8798C15.3611 17.2595 16.4579 17.5126 17.6814 17.5126C18.1267 17.5126 18.5579 17.4798 18.9611 17.4188V16.5657H18.9095C17.5689 16.5657 16.3548 16.2985 15.4361 15.8345C14.8501 15.5438 14.3626 15.1548 14.0861 14.686ZM21.7033 16.1204C21.3329 16.2516 20.9298 16.3595 20.4986 16.4298V16.997C20.5876 16.9595 20.6767 16.922 20.7611 16.8798C21.2204 16.6454 21.5298 16.3829 21.7033 16.1204ZM22.1345 16.9735C21.9564 17.1516 21.7501 17.311 21.5204 17.4563V18.797C22.1439 18.4407 22.4392 18.0188 22.4392 17.6485C22.4392 17.4329 22.3408 17.1985 22.1345 16.9735ZM5.78919 17.1048C5.31106 17.1095 4.79544 17.1704 4.26106 17.297C3.19184 17.5454 2.27262 18.0001 1.67262 18.5016C1.07262 18.9985 0.838249 19.5048 0.908562 19.8657C0.978874 20.2266 1.34919 20.5595 2.07106 20.7516C2.79059 20.9391 3.797 20.9485 4.86575 20.7001C5.297 20.597 5.70012 20.4657 6.07044 20.311V19.3407C6.75481 19.036 7.26575 18.6704 7.49544 18.3141V19.4579C8.06262 18.9704 8.28294 18.4829 8.21731 18.1266C8.15169 17.7657 7.77669 17.4329 7.05481 17.2454C6.69387 17.1516 6.26262 17.1001 5.78919 17.1048ZM8.81731 17.3485C8.94388 17.5313 9.03294 17.7376 9.07981 17.9673C9.13137 18.2485 9.10794 18.5204 9.02356 18.7876C9.48763 18.9095 9.9095 19.0735 10.2751 19.2798C10.4814 19.3923 10.6736 19.5282 10.8423 19.6688C11.2642 19.5704 11.6204 19.4298 11.8736 19.261V20.2266C12.6283 19.8704 12.9751 19.4345 12.9751 19.0876C12.9751 18.736 12.6283 18.3001 11.8689 17.9438C11.1142 17.5923 10.0267 17.3532 8.81731 17.3485ZM14.0579 17.5829C14.0533 17.6016 14.0532 17.6251 14.0532 17.6485C14.0532 18.0563 14.4095 18.5204 15.1689 18.9048C15.9283 19.2845 17.0251 19.5376 18.2486 19.5376C18.8673 19.5376 19.4533 19.472 19.9829 19.3595V18.0985C19.2892 18.286 18.5064 18.3891 17.6814 18.3891C16.3408 18.3891 15.1267 18.122 14.2079 17.6626C14.1564 17.6345 14.1048 17.6063 14.0579 17.5829ZM14.1892 19.3313C14.0954 19.486 14.0532 19.636 14.0532 19.7813C14.0532 20.1891 14.4095 20.6532 15.1689 21.0376C15.9283 21.4173 17.0251 21.6704 18.2486 21.6704C18.8673 21.6704 19.4533 21.6048 19.9829 21.4923V20.2548C19.4392 20.3579 18.8579 20.4141 18.2486 20.4141C16.9079 20.4141 15.6939 20.147 14.7751 19.6829C14.5642 19.5798 14.3673 19.4626 14.1892 19.3313ZM22.3033 19.3313C22.0314 19.5141 21.7923 19.6595 21.5204 19.7766V20.9298C22.1439 20.5735 22.4392 20.1516 22.4392 19.7813C22.4392 19.636 22.397 19.486 22.3033 19.3313ZM8.58762 19.5845C8.42356 19.7907 8.23138 19.9876 8.01575 20.1657C7.2845 20.7798 6.25325 21.2766 5.06262 21.5532C4.63794 21.6516 4.21606 21.7126 3.81106 21.7454C3.96106 21.9938 4.22497 22.2376 4.61122 22.4532C5.25012 22.8141 6.18762 23.0579 7.22825 23.0579C7.70169 23.0579 8.15169 23.0063 8.56419 22.9173V21.9423C9.21106 21.8438 9.75481 21.6657 10.1017 21.436V22.2985C10.5704 21.9704 10.7954 21.6001 10.7954 21.2485C10.7954 20.8407 10.4908 20.4048 9.84856 20.0438C9.50169 19.8516 9.07044 19.6923 8.58762 19.5845Z" fill="currentColor"/>
</svg>
