<svg width="24" height="24" viewBox="0 0 24 24" fill="none" xmlns="http://www.w3.org/2000/svg">

<path d="M5 20C3.58333 20 2.396 19.521 1.438 18.563C0.480001 17.605 0.000667349 16.4173 6.82594e-07 15C-0.000665984 13.5827 0.487001 12.3953 1.463 11.438C2.439 10.4807 3.618 10.0013 5 10C6.28333 10 7.36267 10.3833 8.238 11.15C9.11333 11.9167 9.66733 12.8667 9.9 14H10.55L8.75 9H8C7.71667 9 7.47933 8.904 7.288 8.712C7.09667 8.52 7.00067 8.28267 7 8C6.99933 7.71733 7.09533 7.48 7.288 7.288C7.48067 7.096 7.718 7 8 7H11C11.2833 7 11.521 7.096 11.713 7.288C11.905 7.48 12.0007 7.71733 12 8C11.9993 8.28267 11.9033 8.52033 11.712 8.713C11.5207 8.90567 11.2833 9.00133 11 9H10.9L11.25 10H16.05L14.6 6H13C12.7167 6 12.4793 5.904 12.288 5.712C12.0967 5.52 12.0007 5.28267 12 5C11.9993 4.71733 12.0953 4.48 12.288 4.288C12.4807 4.096 12.718 4 13 4H14.6C15.0333 4 15.421 4.11667 15.763 4.35C16.105 4.58333 16.3507 4.9 16.5 5.3L18.2 9.95H19C20.3833 9.95 21.5627 10.4377 22.538 11.413C23.5133 12.3883 24.0007 13.5673 24 14.95C24 16.35 23.5167 17.5417 22.55 18.525C21.5833 19.5083 20.4 20 19 20C17.8 20 16.746 19.625 15.838 18.875C14.93 18.125 14.3507 17.1667 14.1 16H9.9C9.66667 17.15 9.1 18.1043 8.2 18.863C7.3 19.6217 6.23333 20.0007 5 20ZM7.8 16V14H6C5.71667 14 5.47933 14.096 5.288 14.288C5.09667 14.48 5.00067 14.7173 5 15C4.99933 15.2827 5.09533 15.5203 5.288 15.713C5.48067 15.9057 5.718 16.0013 6 16H7.8ZM12.7 14H14.1C14.1833 13.6167 14.296 13.2583 14.438 12.925C14.58 12.5917 14.7673 12.2833 15 12H11.95L12.7 14ZM17.05 12.7L17.65 14.4C17.7333 14.6667 17.9043 14.8583 18.163 14.975C18.4217 15.0917 18.684 15.1 18.95 15C19.216 14.9 19.4077 14.725 19.525 14.475C19.6423 14.225 19.6507 13.9667 19.55 13.7L18.9 12L17.05 12.7Z" fill="currentColor"/>
</svg>
