<svg width="24" height="24" viewBox="0 0 24 24" fill="none" xmlns="http://www.w3.org/2000/svg">
<path fill-rule="evenodd" clip-rule="evenodd" d="M9.8569 11.9999H2.27462C2.11175 11.9998 1.95227 11.9533 1.81485 11.8659C1.67743 11.7785 1.56777 11.6537 1.4987 11.5062C1.42962 11.3587 1.40401 11.1946 1.42484 11.0331C1.44567 10.8715 1.5121 10.7193 1.61633 10.5941L10.1878 0.30843C10.2837 0.193352 10.408 0.105415 10.5485 0.0533792C10.689 0.0013438 10.8406 -0.012972 10.9883 0.0118583C11.1689 -0.00997291 11.3521 0.006774 11.5258 0.0609923C11.6995 0.115211 11.8596 0.205666 11.9957 0.32638C12.1318 0.447094 12.2408 0.595319 12.3154 0.761259C12.3899 0.927198 12.4284 1.10707 12.4283 1.289L12.4266 15.4284H23.1409C23.2795 15.4284 23.416 15.462 23.5387 15.5263C23.6614 15.5906 23.7668 15.6837 23.8456 15.7977C23.9245 15.9116 23.9746 16.043 23.9916 16.1805C24.0086 16.318 23.992 16.4576 23.9432 16.5873L22.2066 21.2193C21.9003 22.0359 21.3522 22.7396 20.6354 23.2364C19.9186 23.7333 19.0673 23.9996 18.1952 23.9999H5.80433C4.93219 23.9996 4.08089 23.7333 3.36412 23.2364C2.64734 22.7396 2.0992 22.0359 1.7929 21.2193L0.0529048 16.5873C0.00407818 16.4575 -0.0125093 16.3177 0.00456672 16.1801C0.0216427 16.0424 0.0718719 15.9109 0.150942 15.797C0.230011 15.683 0.335559 15.5899 0.458524 15.5257C0.581488 15.4615 0.718194 15.4282 0.856905 15.4284H9.8569V11.9999ZM16.0815 3.76443C15.9723 3.62286 15.8217 3.51895 15.6506 3.46724C15.4795 3.41553 15.2965 3.4186 15.1272 3.47603C14.9579 3.53346 14.8109 3.64238 14.7066 3.78753C14.6022 3.93269 14.5459 4.10682 14.5455 4.28557V11.1427C14.5455 11.37 14.6358 11.5881 14.7965 11.7488C14.9573 11.9096 15.1753 11.9999 15.4026 11.9999H20.6655C20.8252 11.9995 20.9818 11.9546 21.1173 11.8701C21.2529 11.7855 21.3622 11.6648 21.4328 11.5214C21.5033 11.3781 21.5325 11.2179 21.5169 11.0589C21.5012 10.8999 21.4415 10.7484 21.3443 10.6216L16.0815 3.76443Z" fill="currentColor"/>
</svg>
