<svg width="24" height="24" viewBox="0 0 24 24" fill="none" xmlns="http://www.w3.org/2000/svg">
<path d="M2.69972 2.01562V13.3858L6.44972 14.8169V13.6875C5.39484 13.5367 4.3373 13.2828 3.51863 12.4292L4.15144 11.8228C4.72097 12.4165 5.51231 12.632 6.41456 12.7778L5.187 2.57953C4.37344 2.42461 3.53869 2.25469 2.69972 2.01562ZM21.315 2.01703C18.2597 2.83228 14.8296 2.02181 12.3515 5.33644V15.1245C13.2794 13.7581 14.4817 13.2089 15.6665 12.9434C17.2562 12.587 18.7687 12.6076 19.9556 11.6484L20.5064 12.3295C19.0412 13.5137 17.3071 13.4726 15.8583 13.7974C14.4851 14.1052 13.3281 14.6238 12.4716 16.7593L21.3149 13.3858L21.315 2.01703ZM6.03797 2.31L7.32267 13.0049L7.32548 13.0312V23.1987L8.26017 21.3575L9.21961 23.146V13.9132L7.90139 2.69531L6.03811 2.31H6.03797ZM8.8725 3.44672L10.0722 13.6553C10.2727 13.7653 10.4638 13.8917 10.6435 14.0332C10.9459 14.2721 11.2253 14.5657 11.4755 14.9224V5.13281C10.7491 4.31367 9.86297 3.80498 8.8725 3.44672ZM0.960938 3.48637V14.7276L1.24805 14.8331L6.44977 16.7446V15.8115L1.83694 14.1167V3.48637H0.960938ZM22.1763 3.48778V14.1167L12.0073 17.8522L10.0958 17.1504V18.9448C11.1837 19.3212 12.8182 19.2642 14.1387 18.8262V18.003L22.7651 14.833L23.0522 14.7276V3.48783L22.1763 3.48778ZM10.0957 14.7158V16.2071L11.3877 16.7007C11.0577 15.7235 10.6112 15.1229 10.1016 14.7202C10.0996 14.7188 10.0977 14.7174 10.0957 14.7159L10.0957 14.7158Z" fill="currentColor"/>
</svg>
