<svg width="24" height="24" viewBox="0 0 24 24" fill="none" xmlns="http://www.w3.org/2000/svg">
<path d="M4.80597 1.22168L9.02472 17.4287L22.5819 18.5186L18.3618 2.31293L4.80597 1.22168ZM3.91685 1.28759C2.48997 1.84512 1.30966 3.77524 1.58777 4.81634L1.74011 5.37007C1.77077 5.28935 1.80316 5.20882 1.83682 5.12834C2.30153 4.0166 3.08116 2.93604 4.198 2.36716L3.91675 1.28763L3.91685 1.28759ZM4.42675 3.24312C3.64582 3.71262 3.02444 4.5603 2.6455 5.46673C2.40175 6.04985 2.2705 6.65815 2.23535 7.16594V7.16735L5.27613 18.2109C5.29042 18.1841 5.30392 18.1571 5.31864 18.1303C5.81482 17.2292 6.62196 16.3667 7.71208 15.8613L4.42666 3.24312H4.42675ZM7.21863 5.06098L18.4583 5.81979L18.3983 6.69284L7.16003 5.93557L7.21863 5.06107V5.06098ZM9.37628 6.6738L9.64146 7.08982L10.3065 8.13574L12.1361 7.4209L12.4921 7.28318L12.6782 7.61571L13.4413 8.9809L13.6435 9.34277L13.2948 9.56388C12.8135 9.8697 12.4796 10.1397 12.2753 10.3505C12.1332 10.4973 12.0762 10.5958 12.0453 10.6596C12.11 10.6738 12.2062 10.6867 12.3558 10.6728C13.2121 10.5935 14.9942 9.73694 16.0589 7.78563L16.3153 7.31548L16.7254 7.66113L18.8816 9.48045L19.4222 9.93607L18.7733 10.2173L17.2133 10.8911C17.4686 11.122 17.7493 11.1684 18.0775 11.1445C18.5439 11.1106 19.0818 10.86 19.4427 10.6259L19.9188 11.3599C19.4778 11.6458 18.847 11.9661 18.1405 12.0175C17.4341 12.069 16.6278 11.7693 16.1439 10.9321L15.8978 10.5058L16.349 10.311L17.7759 9.69424L16.5556 8.66299C15.3501 10.5518 13.6174 11.4365 12.4379 11.5458C12.1201 11.5752 11.8311 11.558 11.5663 11.4198C11.3015 11.2815 11.0983 10.9229 11.1445 10.6039C11.1906 10.2849 11.3712 10.0226 11.6455 9.73952C11.851 9.52737 12.1429 9.30045 12.4833 9.06284L12.0995 8.37584L10.2889 9.08201L9.9535 9.21232L9.76014 8.90913L9.18738 8.00974C8.89169 8.34527 8.74277 8.69074 8.7655 9.01315C8.79616 9.44815 9.13366 10.0001 10.1996 10.5924L9.77332 11.3584C8.56919 10.6894 7.95096 9.90457 7.89246 9.07469C7.83396 8.24487 8.33275 7.52721 8.99402 6.98585L9.37633 6.6739L9.37628 6.6738ZM9.09653 12.2139L20.3363 12.9712L20.2777 13.8456L9.03803 13.0868L9.09663 12.2138L9.09653 12.2139ZM7.93638 16.7256C7.10964 17.1508 6.48021 17.8369 6.08632 18.5522C5.87585 18.9344 5.7438 19.3234 5.67757 19.6714L6.22253 21.6475L6.30166 21.6548C6.12241 20.3651 6.83407 18.8244 8.2323 17.8594L7.93638 16.7256ZM9.16544 18.3193C7.64655 19.1293 6.99639 20.771 7.21277 21.7309L20.7962 22.8808C20.5479 22.5179 20.3919 22.0452 20.3935 21.5537L19.3402 21.1304L21.5258 20.7876L20.884 20.1752C21.1443 19.8547 21.5187 19.5698 22.0311 19.3535L9.1653 18.3193L9.16544 18.3193Z" fill="currentColor"/>
</svg>
