<svg width="24" height="24" viewBox="0 0 24 24" fill="none" xmlns="http://www.w3.org/2000/svg">
<path d="M3.64881 0.555176L4.09577 3.8668L0.841797 3.34302L2.78748 5.9713L2.26591 21.0986C1.71691 21.719 1.29484 22.4509 1.05545 23.3445C4.53348 20.7273 8.2217 19.9882 11.537 18.5922L9.85356 16.9087C7.36347 18.0915 4.89541 18.9005 3.17167 20.2531L3.62514 7.10282L4.00295 7.61319L4.10608 7.82272H7.44845L16.8147 18.47C17.5468 17.8312 18.2025 17.1382 18.8144 16.3772L8.03894 7.29378V3.94789L7.483 3.51829L20.3077 3.0186C18.9019 4.72297 18.1121 7.19375 16.9613 9.69435L18.675 11.4081C20.0447 8.1156 20.785 4.46638 23.3748 1.02496C22.5057 1.25793 21.7955 1.63504 21.1902 2.13135L21.1892 2.10763L6.40314 2.68372L3.64881 0.555176ZM4.80255 2.55383L7.16294 4.37802V6.94654H4.65128L4.62283 6.93969L2.82484 4.54963L5.12172 4.91947L4.8025 2.55388L4.80255 2.55383ZM16.4324 10.4045C16.0543 11.0194 15.6381 11.61 15.1862 12.1729L16.6265 13.3871C17.1496 12.977 17.6844 12.582 18.223 12.195L16.4324 10.4044L16.4324 10.4045ZM21.1202 14.611C19.4446 17.2742 17.5863 19.3325 14.8065 20.9843C17.5788 21.9538 20.3606 22.7329 23.1877 23.0459C22.7796 20.2025 22.0638 17.3946 21.1202 14.6112V14.611ZM12.4914 14.8817C11.8623 15.3964 11.1986 15.8748 10.5033 16.3195L12.2597 18.0759C12.6697 17.393 13.1325 16.7656 13.6344 16.1808L12.4914 14.8817Z" fill="currentColor"/>
</svg>
