<svg width="24" height="24" viewBox="0 0 24 24" fill="none" xmlns="http://www.w3.org/2000/svg">
<path d="M12.0515 0.865234C11.2546 1.78305 10.5187 2.52039 9.46871 2.87992C11.414 6.08898 16.0265 8.49367 20.775 5.80305C21.6187 5.14211 22.0265 4.32883 22.4109 3.58398C17.775 3.32852 14.6859 2.65539 12.0515 0.865234ZM10.5468 5.20773C9.6609 7.00305 8.62496 8.59211 7.49527 9.90461C5.58277 12.1312 3.41574 13.5937 1.27637 13.903C1.57965 14.8312 1.76527 16.678 2.48762 17.3062C4.62652 18.1734 8.71402 16.8796 10.2046 15.4921C10.9593 14.7234 11.3296 13.7765 11.8078 12.6374C11.714 14.2874 11.1843 15.2905 10.5093 16.0312C9.64215 16.8843 8.79371 17.4749 7.74371 17.803C8.30152 18.8484 8.53121 20.1327 9.04215 20.9812C9.2484 21.2952 9.41715 21.4265 9.72652 21.4218C11.6953 20.9109 13.214 19.2702 14.925 18.5859C17.5171 17.2124 17.9859 15.1171 18.0656 14.578C18.014 15.9234 17.4703 17.7421 16.5796 18.4968C18.164 19.078 18.8062 21.6515 19.0312 22.7249C19.7437 22.0687 20.5875 21.0655 21.2859 19.9077C22.1718 18.4452 22.8281 16.7437 22.8281 15.1968C22.814 13.378 22.0312 11.6155 21.5859 9.65617C21.3515 8.63898 21.225 7.56086 21.3703 6.40773C15.1968 9.01867 12.4218 6.84836 10.5468 5.20773Z" fill="currentColor"/>
</svg>
