<svg width="24" height="24" viewBox="0 0 24 24" fill="none" xmlns="http://www.w3.org/2000/svg">
<path d="M2.74467 4.17188L1.98141 9.92813H3.70312V4.17188H2.74467ZM4.54688 4.17188V9.92813H6.32812V4.17188H4.54688ZM7.17188 4.17188V9.92813H9.82809V9.10312H14.1719V9.92813H16.8281V4.17188H7.17188ZM17.6719 4.17188V9.92813H19.4531V4.17188H17.6719ZM20.2969 4.17188V9.92813H22.0186L21.2553 4.17188H20.2969ZM10.6718 9.94687V14.8781H13.3282V9.94687H10.6718ZM12 10.4903C12.232 10.4904 12.4546 10.5699 12.6186 10.7114C12.7827 10.8529 12.8749 11.0449 12.875 11.245C12.8748 11.38 12.8327 11.5125 12.753 11.6286C12.6733 11.7448 12.559 11.8404 12.4219 11.9055V13.6499H11.5781V11.9062C11.4409 11.8411 11.3265 11.7454 11.2468 11.6291C11.1671 11.5128 11.125 11.3801 11.125 11.245C11.1251 11.0449 11.2173 10.8529 11.3814 10.7114C11.5454 10.5699 11.768 10.4904 12 10.4903ZM1.92188 10.7719V16.7679L2.82816 17.6224V10.7719H1.92188ZM3.67191 10.7719V18.1781H20.3281V10.7719H14.1719V15.7219H9.82809V10.7719H3.67191ZM21.1718 10.7719V17.6224L22.0781 16.7679V10.7719H21.1718ZM1.92188 17.9276V19.8281H3.93759L1.92188 17.9276V17.9276ZM22.0781 17.9276L20.0624 19.8281H22.0781V17.9276V17.9276ZM4.3125 19.0219L5.1675 19.8281H18.8325L19.6875 19.0219H4.3125Z" fill="currentColor"/>
</svg>
