<svg width="24" height="24" viewBox="0 0 24 24" fill="none" xmlns="http://www.w3.org/2000/svg">
<path d="M11.0102 0.880371C9.78737 0.991324 8.59346 1.28162 7.50043 1.76078C8.2209 3.29654 8.16709 4.88762 7.18543 5.62361C6.20879 6.35565 4.6516 5.99696 3.38274 4.88814C2.62121 5.79995 2.00762 6.82689 1.56048 7.96436C3.14626 8.54246 4.21524 9.7299 4.04204 10.9409C3.8687 12.1519 2.50937 12.9912 0.825195 13.1016C0.934789 14.3108 1.24285 15.4818 1.71287 16.5645C2.54771 16.1809 3.39066 16.0446 4.10795 16.1455C4.71882 16.2332 5.22952 16.4743 5.56838 16.9263C6.3098 17.9152 5.92477 19.491 4.78182 20.7686C5.69663 21.535 6.7607 22.1488 7.90341 22.5982C8.48138 21.0125 9.66849 19.9434 10.88 20.1167C12.0914 20.29 12.9303 21.6493 13.0406 23.3335C14.2635 23.2226 15.4574 22.9325 16.5504 22.4532C15.8114 20.9064 15.882 19.285 16.8712 18.5435C17.323 18.2046 17.929 18.1206 18.5396 18.2095C19.248 18.3108 20.0017 18.69 20.6754 19.2774C21.4295 18.3706 22.0535 17.3316 22.4977 16.2026C20.9119 15.6246 19.8429 14.4377 20.0162 13.2261C20.1895 12.0145 21.5474 11.1743 23.2315 11.064C23.1209 9.84784 22.8203 8.68914 22.3453 7.60112C20.8166 8.30973 19.2206 8.21729 18.4884 7.24079C17.7526 6.25904 18.1484 4.71611 19.2706 3.44392C18.3556 2.67742 17.2902 2.06359 16.1476 1.61429C15.5695 3.19998 14.3824 4.27023 13.171 4.09717C11.9595 3.92406 11.1205 2.56454 11.0103 0.880371H11.0102ZM12.0253 5.3394C15.7578 5.3394 18.7929 8.37465 18.7929 12.107C18.7929 15.8394 15.7578 18.8746 12.0254 18.8746C8.29299 18.8746 5.25784 15.8394 5.25784 12.107C5.25784 8.37465 8.29299 5.3395 12.0254 5.3395L12.0253 5.3394ZM12.0253 6.2154C8.76638 6.2154 6.13379 8.848 6.13379 12.107C6.13379 15.366 8.76638 17.9987 12.0254 17.9987C15.2844 17.9987 17.9171 15.366 17.9171 12.107C17.9171 8.84814 15.2844 6.21545 12.0254 6.21545L12.0253 6.2154ZM12.0269 6.92439C14.8906 6.92439 17.2124 9.2461 17.2124 12.1099C17.2124 14.9737 14.8907 17.2954 12.0269 17.2954C9.16304 17.2954 6.84132 14.9737 6.84132 12.1098C6.84132 9.24601 9.16304 6.92429 12.0269 6.92429V6.92439Z" fill="currentColor"/>
</svg>
