<svg width="24" height="24" viewBox="0 0 24 24" fill="none" xmlns="http://www.w3.org/2000/svg">
<path d="M6.37532 1.17236C5.60188 1.17236 4.90813 1.33174 4.43985 1.56611C3.97579 1.80049 3.79766 2.06299 3.79766 2.25049C3.79766 2.4333 3.97579 2.70096 4.43985 2.93018C4.90813 3.16455 5.60188 3.32861 6.37532 3.32861C7.14875 3.32861 7.8425 3.16455 8.30657 2.93018C8.77532 2.70096 8.95344 2.4333 8.95344 2.25049C8.95344 2.06299 8.77532 1.80049 8.30657 1.56611C7.8425 1.33174 7.14875 1.17236 6.37532 1.17236ZM13.8753 2.67236C13.1019 2.67236 12.4081 2.83174 11.9441 3.06611C11.4753 3.30049 11.2972 3.56299 11.2972 3.75049C11.2972 3.9333 11.4753 4.20096 11.9441 4.43018C12.4081 4.66455 13.1019 4.82814 13.8753 4.82814C14.0909 4.82814 14.2972 4.81408 14.4941 4.79064C14.6956 4.5333 14.9816 4.30502 15.3144 4.15314C15.6988 3.97971 16.1441 3.83908 16.4534 3.75049C16.4534 3.56299 16.2753 3.30049 15.8066 3.06611C15.3425 2.83174 14.6488 2.67236 13.8753 2.67236ZM3.79766 3.53439C3.77891 4.22158 4.52329 4.50189 4.9925 4.64064C5.83157 4.88439 6.91907 4.88439 7.75813 4.64064C8.35813 4.46908 8.94875 4.13814 8.95344 3.53439C8.19875 4.03268 7.09719 4.16674 6.37532 4.17189C5.46125 4.09549 4.50125 4.0008 3.79766 3.53439ZM17.6253 4.51455C16.8519 4.51455 16.1581 4.67393 15.6941 4.91252C15.2253 5.14221 15.0472 5.40939 15.0472 5.59221C15.0472 5.77971 15.2253 6.04221 15.6941 6.27658C16.1581 6.51096 16.8519 6.67033 17.6253 6.67033C18.3988 6.67033 19.0925 6.51096 19.5566 6.27658C20.0253 6.04221 20.2034 5.77971 20.2034 5.59221C20.2034 5.40939 20.0253 5.14221 19.5566 4.91252C19.0925 4.67393 18.3988 4.51455 17.6253 4.51455ZM11.2972 5.03439V5.14689C11.4331 5.19377 11.5644 5.25002 11.6863 5.31096C12.1081 5.52189 12.4738 5.81721 12.6613 6.18752C13.1394 6.30471 13.6784 6.34689 14.2034 6.31408V5.66252C14.0956 5.66721 13.9878 5.67189 13.8753 5.67189C12.9894 5.67189 12.1831 5.49846 11.5644 5.18908C11.4706 5.14221 11.3816 5.09064 11.2972 5.03439ZM3.79766 5.03908C3.78172 5.72346 4.52516 6.00471 4.9925 6.14533C5.31125 6.23439 5.6675 6.29533 6.03313 6.31408C6.12688 6.07033 6.29563 5.85471 6.51125 5.67189C5.91125 5.68596 5.30657 5.61096 4.75813 5.45627C4.39297 5.34846 4.06954 5.21252 3.79766 5.03908ZM9.37532 5.67189C8.60188 5.67189 7.90813 5.83596 7.44407 6.06564C6.97532 6.30002 6.79719 6.56252 6.79719 6.75002C6.79719 6.93752 6.97532 7.20002 7.44407 7.4344C7.90813 7.66877 8.60188 7.82814 9.37532 7.82814C10.1488 7.82814 10.8425 7.66877 11.3066 7.4344C11.7753 7.20002 11.9534 6.93752 11.9534 6.75002C11.9534 6.56252 11.7753 6.30002 11.3066 6.06564C10.8425 5.83596 10.1488 5.67189 9.37532 5.67189ZM3.79766 6.53908C3.78172 7.22346 4.52516 7.50471 4.9925 7.64533C5.28782 7.72971 5.61594 7.78596 5.95344 7.8094V7.16252C5.54094 7.13439 5.13782 7.06408 4.75813 6.95627C4.39297 6.84846 4.06954 6.71252 3.79766 6.53908ZM15.0472 6.88127C15.0378 7.57033 15.7691 7.84689 16.2425 7.98752C17.0816 8.23127 18.1691 8.23127 19.0081 7.98752C19.6034 7.81408 20.1988 7.48596 20.2034 6.88127C20.1191 6.93283 20.03 6.98439 19.9363 7.03127C19.3175 7.34064 18.5113 7.51408 17.6253 7.51408C16.7394 7.51408 15.9331 7.34064 15.3144 7.03127C15.2206 6.98439 15.1316 6.93283 15.0472 6.88127ZM12.7972 7.07814V7.72033C13.2378 7.80939 13.73 7.84221 14.2034 7.81408V7.16721C13.73 7.19064 13.2519 7.16252 12.7972 7.07814ZM6.79719 8.03439C6.77375 8.31564 6.90032 8.54533 7.055 8.68127C7.25188 8.85002 7.57063 9.02346 7.9925 9.14533C8.83157 9.3844 9.91907 9.3844 10.7581 9.14533C11.18 9.02346 11.4988 8.85002 11.6956 8.68127C11.9253 8.48908 11.9534 8.30158 11.9534 8.03439C11.8691 8.09064 11.78 8.14221 11.6863 8.18908C11.0675 8.49846 10.2613 8.67189 9.37532 8.67189C8.48938 8.67189 7.68313 8.49846 7.06438 8.18908C6.97063 8.14221 6.88157 8.09064 6.79719 8.03439ZM3.79766 8.03908C3.78172 8.72346 4.52516 9.00471 4.9925 9.14533C5.28782 9.22971 5.61594 9.28596 5.95344 9.3094V8.66252C5.54094 8.63439 5.13782 8.56408 4.75813 8.45627C4.39297 8.34846 4.06954 8.21252 3.79766 8.03908ZM15.0472 8.38127C15.0378 9.07033 15.7691 9.34689 16.2425 9.48752C17.0816 9.73127 18.1691 9.73127 19.0081 9.48752C19.6034 9.31408 20.1988 8.98596 20.2034 8.38127C19.9316 8.55471 19.6081 8.69064 19.2425 8.79846C18.2253 9.09377 17.0253 9.09377 16.0081 8.79846C15.6425 8.69064 15.3191 8.55471 15.0472 8.38127ZM12.7972 8.57814V9.22033C13.2378 9.30939 13.73 9.34221 14.2034 9.31408V8.66721C13.73 8.69064 13.2519 8.66252 12.7972 8.57814ZM3.79766 9.53908C3.78172 10.2235 4.52516 10.5047 4.9925 10.6453C5.28782 10.7297 5.61594 10.786 5.95344 10.8094V10.1625C5.54094 10.1344 5.13782 10.0641 4.75813 9.95627C4.39297 9.84846 4.06954 9.71252 3.79766 9.53908ZM6.79719 9.53908C6.77375 9.82033 6.90032 10.0453 7.055 10.1813C7.25188 10.35 7.57063 10.5235 7.9925 10.6453C8.83157 10.8844 9.91907 10.8844 10.7581 10.6453C11.18 10.5235 11.4988 10.35 11.6956 10.1813C11.9253 9.98908 11.9534 9.80627 11.9534 9.53908C11.6816 9.71252 11.3581 9.84846 10.9925 9.95627C9.97532 10.2469 8.77532 10.2469 7.75813 9.95627C7.3925 9.84846 7.06907 9.71252 6.79719 9.53908ZM15.0472 9.88127C15.0378 10.5703 15.7691 10.8469 16.2425 10.9875C17.0816 11.2313 18.1691 11.2313 19.0081 10.9875C19.6034 10.8141 20.1988 10.486 20.2034 9.88127C19.9316 10.0547 19.6081 10.1906 19.2425 10.2985C18.2253 10.5938 17.0253 10.5938 16.0081 10.2985C15.6425 10.1906 15.3191 10.0547 15.0472 9.88127ZM12.7972 10.0781V10.7203C13.2378 10.8094 13.73 10.8422 14.2034 10.8141V10.1672C13.73 10.1906 13.2519 10.1625 12.7972 10.0781ZM6.79719 11.0391V11.1469C6.93313 11.1938 7.06438 11.25 7.18625 11.311C7.60813 11.5219 7.97375 11.8172 8.16125 12.1875C8.97219 12.3844 9.97532 12.3703 10.7581 12.1453C11.18 12.0235 11.4988 11.85 11.6956 11.6813C11.9253 11.4891 11.9534 11.3063 11.9534 11.0391C11.6816 11.2125 11.3581 11.3485 10.9925 11.4563C9.97532 11.7469 8.77532 11.7469 7.75813 11.4563C7.3925 11.3485 7.06907 11.2125 6.79719 11.0391ZM15.0472 11.3813C15.0378 12.0703 15.7691 12.3469 16.2425 12.4875C17.0816 12.7313 18.1691 12.7313 19.0081 12.4875C19.6034 12.3141 20.1988 11.986 20.2034 11.3813C19.9316 11.5547 19.6081 11.6906 19.2425 11.7985C18.2253 12.0938 17.0253 12.0938 16.0081 11.7985C15.6425 11.6906 15.3191 11.5547 15.0472 11.3813ZM12.7972 11.5781V12.2203C13.2378 12.3094 13.73 12.3422 14.2034 12.3141V11.6672C13.73 11.6906 13.2519 11.6625 12.7972 11.5781ZM4.87532 11.6719C4.10235 11.6719 3.4086 11.836 2.93985 12.0656C2.47579 12.3 2.29766 12.5625 2.29766 12.75C2.29766 12.9375 2.47579 13.2 2.93985 13.4344C3.4086 13.6688 4.10235 13.8281 4.87532 13.8281C5.64875 13.8281 6.3425 13.6688 6.80657 13.4344C7.27532 13.2 7.45344 12.9375 7.45344 12.75C7.45344 12.5625 7.27532 12.3 6.80657 12.0656C6.3425 11.836 5.64875 11.6719 4.87532 11.6719ZM11.9534 12.5391C11.6816 12.7125 11.3581 12.8485 10.9925 12.9563C10.1488 13.1953 9.18313 13.2375 8.29719 13.0781V13.7203C9.08469 13.8844 10.0175 13.8563 10.7581 13.6453C11.3488 13.4719 11.9488 13.1391 11.9534 12.5391ZM15.0472 12.8813C15.0331 13.5469 15.7363 13.8328 16.2003 13.9735C16.4628 13.7625 16.7019 13.6031 16.9831 13.486C16.6456 13.4485 16.3175 13.3875 16.0081 13.2985C15.6425 13.1906 15.3191 13.0547 15.0472 12.8813ZM20.2034 12.8813C20.0722 12.9656 19.9269 13.0406 19.7675 13.111C19.9128 13.125 20.0581 13.1438 20.1941 13.1672C20.2128 13.0735 20.2034 12.9797 20.2034 12.8813ZM12.7972 13.0781V13.7156C13.3081 13.8141 13.7347 13.8375 14.2034 13.8188V13.1672C13.73 13.1906 13.2519 13.1625 12.7972 13.0781ZM19.1253 13.9219C18.3519 13.9219 17.6581 14.086 17.1941 14.3156C16.7253 14.55 16.5472 14.8125 16.5472 15C16.5472 15.1875 16.7253 15.45 17.1941 15.6844C17.6581 15.9188 18.3519 16.0781 19.1253 16.0781C19.8988 16.0781 20.5925 15.9188 21.0566 15.6844C21.5253 15.45 21.7034 15.1875 21.7034 15C21.7034 14.8125 21.5253 14.55 21.0566 14.3156C20.5925 14.086 19.8988 13.9219 19.1253 13.9219ZM2.29766 14.0344C2.28407 14.7281 3.01532 15.0047 3.49297 15.1453C4.33204 15.3844 5.41907 15.3844 6.25813 15.1453C6.85344 14.9719 7.44875 14.6391 7.45344 14.0344C7.36907 14.0906 7.28 14.1422 7.18625 14.1891C6.5675 14.4985 5.76125 14.6719 4.87532 14.6719C3.9561 14.5969 3.00594 14.5031 2.29766 14.0344ZM11.9534 14.0391C11.6816 14.2125 11.3581 14.3485 10.9925 14.4563C10.1488 14.6953 9.18313 14.7375 8.29719 14.5781V15.2203C9.08469 15.3844 10.0175 15.3563 10.7581 15.1453C11.3488 14.9719 11.9488 14.6391 11.9534 14.0391ZM15.0472 14.3813C15.0284 14.8641 15.4222 15.136 15.6941 15.2766C15.6941 15.2766 15.6988 15.2813 15.7034 15.2813V14.7C15.4597 14.611 15.2394 14.5031 15.0472 14.3813ZM2.29766 15.5391C2.28172 16.2235 3.02516 16.5047 3.49297 16.6453C4.33204 16.8844 5.41907 16.8844 6.25813 16.6453C6.84875 16.4719 7.44875 16.1391 7.45344 15.5391C7.18157 15.7125 6.85813 15.8485 6.4925 15.9563C5.47532 16.2469 4.27579 16.2469 3.2586 15.9563C2.89297 15.8485 2.56954 15.7125 2.29766 15.5391ZM8.29719 16.0781V16.7156C8.52688 16.7672 8.77532 16.8 9.03313 16.8188C9.12688 16.5703 9.29563 16.3547 9.51125 16.1719C9.10344 16.1813 8.69094 16.1485 8.29719 16.0781ZM12.3753 16.1719C11.6019 16.1719 10.9081 16.336 10.4441 16.5656C9.97532 16.8 9.79719 17.0625 9.79719 17.25C9.79719 17.4375 9.97532 17.7 10.4441 17.9344C10.9081 18.1688 11.6019 18.3281 12.3753 18.3281C13.1488 18.3281 13.8425 18.1688 14.3066 17.9344C14.7753 17.7 14.9534 17.4375 14.9534 17.25C14.9534 17.0625 14.7753 16.8 14.3066 16.5656C13.8425 16.336 13.1488 16.1719 12.3753 16.1719ZM16.5472 16.2844C16.5425 16.9781 17.2597 17.2547 17.7425 17.3953C18.5816 17.6344 19.6691 17.6344 20.5081 17.3953C21.1034 17.2219 21.6988 16.8891 21.7034 16.2844C20.9628 16.7344 19.8425 16.9172 19.1253 16.9219C18.2066 16.8469 17.255 16.7531 16.5472 16.2844ZM2.29766 17.0391C2.28172 17.7235 3.02516 18.0047 3.49297 18.1453C4.33204 18.3844 5.41907 18.3844 6.25813 18.1453C6.84875 17.9719 7.44875 17.6391 7.45344 17.0391C7.18157 17.2125 6.85813 17.3485 6.4925 17.4563C5.47532 17.7469 4.27579 17.7469 3.2586 17.4563C2.89297 17.3485 2.56954 17.2125 2.29766 17.0391ZM16.5472 17.7891C16.5378 18.4781 17.2691 18.7547 17.7425 18.8953C18.5816 19.1344 19.6691 19.1344 20.5081 18.8953C21.0988 18.7219 21.6988 18.3891 21.7034 17.7891C21.4316 17.9625 21.1081 18.0985 20.7425 18.2063C19.7253 18.4969 18.5253 18.4969 17.5081 18.2063C17.1425 18.0985 16.8191 17.9625 16.5472 17.7891ZM9.79719 18.5344C9.77375 18.8156 9.90032 19.0453 10.055 19.1813C10.2519 19.35 10.5706 19.5235 10.9925 19.6453C11.8316 19.8844 12.9191 19.8844 13.7581 19.6453C14.18 19.5235 14.4988 19.35 14.6956 19.1813C14.8925 19.0125 14.9534 18.8672 14.9534 18.75V18.5344C14.8691 18.5906 14.78 18.6422 14.6863 18.6891C14.0675 18.9985 13.2613 19.1719 12.3753 19.1719C11.4894 19.1719 10.6831 18.9985 10.0644 18.6891C9.97063 18.6422 9.88157 18.5906 9.79719 18.5344ZM2.29766 18.5391C2.28172 19.2235 3.02516 19.5047 3.49297 19.6453C4.33204 19.8844 5.41907 19.8844 6.25813 19.6453C6.84875 19.4719 7.44875 19.1391 7.45344 18.5391C7.18157 18.7125 6.85813 18.8485 6.4925 18.9563C5.47532 19.2469 4.27579 19.2469 3.2586 18.9563C2.89297 18.8485 2.56954 18.7125 2.29766 18.5391ZM16.5472 19.2891C16.5378 19.9781 17.2691 20.2547 17.7425 20.3953C18.5816 20.6344 19.6691 20.6344 20.5081 20.3953C21.0988 20.2219 21.6988 19.8891 21.7034 19.2891C21.4316 19.4625 21.1081 19.5985 20.7425 19.7063C19.7253 19.9969 18.5253 19.9969 17.5081 19.7063C17.1425 19.5985 16.8191 19.4625 16.5472 19.2891ZM2.29766 20.0391C2.28172 20.7235 3.02516 21.0047 3.49297 21.1453C4.33204 21.3844 5.41907 21.3844 6.25813 21.1453C6.84875 20.9719 7.44875 20.6391 7.45344 20.0391C7.18157 20.2125 6.85813 20.3485 6.4925 20.4563C5.47532 20.7469 4.27579 20.7469 3.2586 20.4563C2.89297 20.3485 2.56954 20.2125 2.29766 20.0391ZM9.79719 20.0391C9.77844 20.5219 10.1722 20.7938 10.4441 20.9344C10.9081 21.1688 11.6019 21.3281 12.3753 21.3281C13.1488 21.3281 13.8425 21.1688 14.3066 20.9344C14.7706 20.6438 14.9534 20.5313 14.9534 20.0391C14.6816 20.2125 14.3581 20.3485 13.9925 20.4563C12.9753 20.7469 11.7753 20.7469 10.7581 20.4563C10.3925 20.3485 10.0691 20.2125 9.79719 20.0391ZM16.5472 20.7891C16.5284 21.2719 16.9222 21.5438 17.1941 21.6844C17.6581 21.9188 18.3519 22.0781 19.1253 22.0781C19.8988 22.0781 20.5925 21.9188 21.0566 21.6844C21.5206 21.3938 21.7034 21.2813 21.7034 20.7891C21.4316 20.9625 21.1081 21.0985 20.7425 21.2063C19.7253 21.4969 18.5253 21.4969 17.5081 21.2063C17.1425 21.0985 16.8191 20.9625 16.5472 20.7891ZM2.29766 21.5391C2.27704 22.0172 2.66704 22.2938 2.93985 22.4344C3.4086 22.6688 4.10235 22.8281 4.87532 22.8281C5.64875 22.8281 6.3425 22.6688 6.80657 22.4344C7.27063 22.1438 7.45344 22.0313 7.45344 21.5391C7.18157 21.7125 6.85813 21.8485 6.4925 21.9563C5.47532 22.2469 4.27579 22.2469 3.2586 21.9563C2.89297 21.8485 2.56954 21.7125 2.29766 21.5391Z" fill="currentColor"/>
</svg>
