<svg width="24" height="24" viewBox="0 0 24 24" fill="none" xmlns="http://www.w3.org/2000/svg">
<path d="M7.07812 1.03125V2.53125H7.92188V1.03125H7.07812ZM9.32812 1.03125V2.53125H10.1719V1.03125H9.32812ZM11.5781 1.03125V2.53125H12.4219V1.03125H11.5781ZM13.8281 1.03125V2.53125H14.6719V1.03125H13.8281ZM16.0781 1.03125V2.53125H16.9219V1.03125H16.0781ZM6.17344 3.42188L3.42188 6.17344V17.8266L6.17344 20.5781H17.8266L20.5781 17.8266V6.17344L17.8266 3.42188H6.17344ZM9 5.57812H15V6.42188H9V5.57812ZM1.03125 7.07812V7.92188H2.53125V7.07812H1.03125ZM21.4688 7.07812V7.92188H22.9688V7.07812H21.4688ZM5.57812 8.57812H18.4219V15.4219H5.57812V8.57812ZM1.03125 9.32812V10.1719H2.53125V9.32812H1.03125ZM21.4688 9.32812V10.1719H22.9688V9.32812H21.4688ZM6.42188 9.42188V14.5781H17.5781V9.42188H6.42188ZM1.03125 11.5781V12.4219H2.53125V11.5781H1.03125ZM21.4688 11.5781V12.4219H22.9688V11.5781H21.4688ZM1.03125 13.8281V14.6719H2.53125V13.8281H1.03125ZM21.4688 13.8281V14.6719H22.9688V13.8281H21.4688ZM1.03125 16.0781V16.9219H2.53125V16.0781H1.03125ZM21.4688 16.0781V16.9219H22.9688V16.0781H21.4688ZM9 17.5781H15V18.4219H9V17.5781ZM7.07812 21.4688V22.9688H7.92188V21.4688H7.07812ZM9.32812 21.4688V22.9688H10.1719V21.4688H9.32812ZM11.5781 21.4688V22.9688H12.4219V21.4688H11.5781ZM13.8281 21.4688V22.9688H14.6719V21.4688H13.8281ZM16.0781 21.4688V22.9688H16.9219V21.4688H16.0781Z" fill="currentColor"/>
</svg>
