<svg width="24" height="24" viewBox="0 0 24 24" fill="none" xmlns="http://www.w3.org/2000/svg">
<path d="M10.4998 1.03125V4.00594C9.00453 4.34578 7.74828 4.9875 6.73578 5.93437C5.15609 7.41094 4.36719 9.43594 4.36719 12.0094C4.36719 14.5547 5.14203 16.5703 6.69359 18.0563C7.72016 19.0359 8.99047 19.6969 10.4998 20.0297V23.0625H13.4998V20.2781C14.5077 20.25 15.4827 20.1281 16.4389 19.9078C17.5405 19.6594 19.078 19.2891 20.1045 18.7875L19.3545 11.1094H14.1561L12.4686 13.8656H15.7311L16.1061 16.9688C15.3467 17.2594 14.4045 17.3016 13.5467 17.3016C11.9764 17.3016 10.7623 16.8422 9.90453 15.9188C9.04672 15 8.62016 13.6969 8.62016 12.0094C8.62016 10.3031 9.06078 8.99531 9.94672 8.08125C10.8373 7.1625 12.103 6.70312 13.7389 6.70312C14.6248 6.70312 15.5061 6.82969 16.3827 7.07812C17.2686 7.32656 17.967 7.70625 18.8577 8.2125L18.4827 4.81406C17.6202 4.42266 17.2639 4.22063 16.2842 4.02C15.3983 3.83531 14.4702 3.73594 13.4998 3.72094V1.03125H10.4998Z" fill="currentColor"/>
</svg>
