<svg width="24" height="24" viewBox="0 0 24 24" fill="none" xmlns="http://www.w3.org/2000/svg">
<path d="M11.8973 0.729492L8.15203 4.67215L8.25984 7.4298L10.6317 9.12668L12.127 17.6579L12.6333 16.397L13.1864 5.36262L14.063 5.40949L13.6364 13.8939L14.963 10.5751L15.3473 5.51262L15.3895 4.67215L11.8973 0.729492ZM18.413 3.09996L16.2286 5.4798L16.0458 7.87512L16.5427 6.64699L17.9677 6.00481C18.1177 5.03918 18.263 4.06887 18.413 3.09996ZM21.2395 5.49855L17.2223 7.29855L12.413 19.2939L13.0973 23.1986H13.463L20.3817 9.45949L21.1645 9.85324L14.4427 23.1986H15.5864L22.4583 9.52043L21.2395 5.49855ZM5.29266 6.38449L2.75625 11.0298L5.99578 23.1986H10.3833L7.98797 10.3173L8.84578 10.1579L11.2739 23.1986H12.2067L9.83016 9.63293L5.29266 6.38449ZM22.088 18.5907L19.0036 18.347L16.6692 22.997L19.9411 21.2767L22.088 18.5907ZM1.65234 17.2782L3.64312 23.2173H5.09578L3.77859 18.2767L1.65234 17.2782Z" fill="currentColor"/>
</svg>
