<svg width="24" height="24" viewBox="0 0 24 24" fill="none" xmlns="http://www.w3.org/2000/svg">
<path d="M12 4.32666C9.50621 4.32666 7.18121 5.02041 5.33434 6.07978L5.99996 7.12979L5.28746 7.57978L4.62043 6.5251C4.51871 6.59072 4.41887 6.66104 4.3209 6.73135C2.50449 8.03916 1.36215 9.71729 1.19434 11.2876C1.33402 11.6017 1.57496 12.1079 1.88527 12.6376C2.38824 13.4954 3.11434 14.3532 3.62855 14.5032C4.46855 14.386 5.22184 13.4673 5.9859 13.5985C7.16246 13.8376 7.77184 14.9298 8.34371 15.8485C8.77965 16.5282 9.33277 17.4751 10.1296 17.5595C10.4203 17.5923 10.6734 17.5032 10.9593 17.3157C11.2453 17.1235 11.5453 16.8282 11.8593 16.5048C12.4781 15.8626 13.1578 15.0563 14.1796 14.9298C14.8968 14.836 15.4734 15.2204 15.9656 15.511C16.4531 15.797 16.8421 15.9892 17.1609 15.9142H17.1656C17.6859 15.661 17.9531 15.2204 18.2015 14.8267L16.5328 13.636L17.0203 12.9517L18.7031 14.1517C18.9421 13.8938 19.2375 13.6829 19.6265 13.5985C20.1656 13.4813 20.5828 13.7767 20.8968 13.9735C21.2062 14.1704 21.4218 14.2688 21.5437 14.2454C21.689 14.2173 22.0968 13.9173 22.3921 13.5985C22.4859 13.4954 22.575 13.3923 22.6453 13.3032C22.7671 12.7923 22.8281 12.2532 22.8281 11.686C22.8281 11.6157 22.8234 11.5454 22.8234 11.4798L21.0609 12.3563L20.6859 11.597L22.6734 10.6032C22.2984 9.24385 21.2343 7.85166 19.6781 6.73135C17.7093 5.31104 14.9765 4.32666 12 4.32666ZM15.239 4.99229L15.5203 5.78916L13.1625 6.6376L12.8812 5.84072L15.239 4.99229ZM8.66715 5.50791L10.2328 5.95791L9.9984 6.76416L8.43277 6.31885L8.66715 5.50791ZM17.3109 6.58604L19.1718 7.87979L18.6937 8.57353L16.8328 7.27979L17.3109 6.58604ZM15.0796 7.18604L15.5859 7.86103L14.039 9.00947L13.5328 8.33447L15.0796 7.18604ZM7.72027 8.77979L7.84215 9.61416L5.70465 9.9376L5.58277 9.10322L7.72027 8.77979ZM12 8.94853C12.8343 8.94853 13.5937 9.09854 14.1796 9.3751C14.7656 9.64697 15.2531 10.0782 15.2531 10.6876C15.2531 11.297 14.7656 11.7282 14.1796 12.0001C13.5937 12.2767 12.8343 12.4267 12 12.4267C11.1656 12.4267 10.4062 12.2767 9.82027 12.0001C9.23434 11.7282 8.74684 11.297 8.74684 10.6876C8.74684 10.0782 9.23434 9.64697 9.82027 9.3751C10.4062 9.09854 11.1656 8.94853 12 8.94853ZM18.8531 9.21104L19.0687 10.0267L16.8562 10.5985L16.6406 9.78291L18.8531 9.21104ZM12 9.79228C11.2687 9.79228 10.6125 9.93291 10.1765 10.1392C9.7359 10.3407 9.59059 10.5704 9.59059 10.6876C9.59059 10.8048 9.7359 11.0345 10.1765 11.236C10.6125 11.4423 11.2687 11.5829 12 11.5829C12.7312 11.5829 13.3875 11.4423 13.8234 11.236C14.264 11.0345 14.4093 10.8048 14.4093 10.6876C14.4093 10.5704 14.264 10.3407 13.8234 10.1392C13.3875 9.93291 12.7312 9.79228 12 9.79228ZM2.88559 10.636L4.7484 11.3579L4.44371 12.1454L2.5809 11.4235L2.88559 10.636ZM1.38559 13.4438C1.81027 15.1126 2.84762 16.4767 4.31762 17.5173C6.27184 18.8954 9.00465 19.6735 12 19.6735C14.9953 19.6735 17.7281 18.8954 19.6828 17.5173C20.6718 16.8188 21.4687 15.9704 22.0078 14.9767C21.914 15.0188 21.8156 15.0517 21.7125 15.0704C21.1734 15.1829 20.7562 14.8829 20.4468 14.686C20.1328 14.4938 19.9218 14.3954 19.8046 14.4235C19.4671 14.4985 19.1765 14.8782 18.839 15.3985C18.4968 15.9142 18.1078 16.5704 17.3484 16.7392C16.6359 16.8985 16.0359 16.5329 15.5343 16.2376C15.0375 15.9423 14.6203 15.722 14.2875 15.7642C13.5 15.9985 12.9187 16.622 12.464 17.0907C12.1453 17.4235 11.8171 17.761 11.4281 18.0188C11.039 18.2767 10.5703 18.4501 10.0453 18.4032C8.78902 18.1735 8.20777 17.236 7.62652 16.2938C7.04996 15.3704 6.52496 14.5688 5.81715 14.4235C4.94059 14.5642 4.33496 15.5673 3.39184 15.3095C2.52793 15.0563 1.89137 14.2548 1.38559 13.4438ZM11.8687 13.5751L11.9906 14.4095L9.62809 14.7563L9.50621 13.922L11.8687 13.5751Z" fill="currentColor"/>
</svg>
