<svg width="24" height="24" viewBox="0 0 24 24" fill="none" xmlns="http://www.w3.org/2000/svg">
<path d="M8.56827 3.75586C8.72609 4.66983 9.06552 6.22477 9.4648 7.73147C9.8457 9.1688 10.2959 10.5497 10.6396 11.25C13.3569 11.2049 17.5871 10.4669 22.4682 9.07763C18.1671 5.7953 13.6329 4.41933 8.56827 3.75586ZM7.71875 3.98438C4.64281 6.38639 2.72984 9.61434 1.22656 13.1836C3.79841 11.3784 6.45988 10.3514 9.16311 9.85987C8.97584 9.26756 8.79373 8.61834 8.61814 7.95558C8.22322 6.46542 7.88905 4.94995 7.7187 3.98433L7.71875 3.98438ZM22.8257 9.88622C19.3512 10.8808 16.1961 11.5587 13.6265 11.8931C14.7523 14.3209 15.335 16.8941 15.6743 19.437C18.9853 16.6826 21.5506 13.8825 22.8257 9.88617L22.8257 9.88622ZM9.44717 10.7006C6.79578 11.1655 4.20748 12.1512 1.68655 13.9306C5.88083 16.8086 10.5886 18.4793 14.8056 19.5483C14.4605 16.9675 13.8633 14.3922 12.708 12C11.846 12.089 11.0611 12.1348 10.3671 12.1348H10.1166L9.98923 11.918C9.80652 11.6044 9.62502 11.1869 9.44722 10.7007L9.44717 10.7006Z" fill="currentColor"/>
</svg>
