<svg width="24" height="24" viewBox="0 0 24 24" fill="none" xmlns="http://www.w3.org/2000/svg">
<path d="M17.5005 1.80469C17.4803 1.80511 16.6177 2.47833 16.6177 2.47833L15.2599 2.20683C15.25 2.20964 14.1282 3.27848 14.1282 3.27848L12.926 3.20634L12.2013 3.99497L10.8854 3.96113L10.0174 4.92745L8.82816 5.0647L8.02552 5.9258L6.74981 6.34533L5.99691 7.40461L4.88503 7.69636L4.27547 8.65622L3.28397 9.18539L2.93705 10.2063L1.82761 10.8602L1.68342 11.9805C2.37305 11.7304 3.01786 12.0135 3.50925 12.3743L4.71511 11.6257L6.35208 11.3655L7.75912 10.0959L9.87834 9.84788L11.4238 8.45536L12.9558 8.07202L13.9052 6.8257C14.3948 6.55195 15.1017 6.35742 15.7266 6.09642L16.1859 4.92947L17.5132 4.42463C17.5204 4.41675 17.5282 4.40864 17.5353 4.40072L17.6798 3.5213L18.6401 2.79173C18.6423 2.78595 18.6445 2.7802 18.6466 2.77448L17.9002 2.49591L17.5005 1.80469ZM12 9.72619L11.967 9.72638C11.8326 9.80598 11.6977 9.88481 11.5624 9.96286C11.1875 10.1784 10.8091 10.3878 10.4274 10.5911C10.9515 10.5769 11.4757 10.5699 12 10.57C14.8792 10.57 17.4869 10.7798 19.3505 11.1126C20.2823 11.279 21.0302 11.4789 21.5107 11.6819C21.7511 11.7833 21.923 11.8877 22.0093 11.963C22.0465 11.9955 22.0586 12.0119 22.0669 12.0231C22.0586 12.0343 22.0465 12.0506 22.0093 12.0831C21.923 12.1584 21.7511 12.2628 21.5107 12.3643C21.0302 12.5672 20.2823 12.7672 19.3505 12.9336C17.4869 13.2664 14.8791 13.4762 12 13.4762C9.17883 13.4762 6.62011 13.2744 4.76484 12.9533C4.71506 12.967 4.66416 12.9818 4.61498 12.995C3.91388 13.182 3.27891 13.3017 2.718 13.3436C3.21572 13.502 3.81225 13.6412 4.50117 13.7642C6.43786 14.11 9.08016 14.3199 12 14.3199C14.9198 14.3199 17.5621 14.11 19.4988 13.7642C20.4672 13.5913 21.2569 13.3873 21.839 13.1415C22.1301 13.0187 22.3707 12.8876 22.5641 12.7187C22.7575 12.55 22.9219 12.3121 22.9219 12.0231C22.9219 11.734 22.7575 11.4961 22.5641 11.3273C22.3707 11.1586 22.13 11.0274 21.839 10.9045C21.2569 10.6588 20.4672 10.4548 19.4988 10.2819C17.5621 9.93609 14.9198 9.72619 12 9.72619ZM22.5 13.5196C21.6616 13.9584 20.5173 14.2557 19.1787 14.5048C17.1037 14.8909 14.554 15.0876 12.0029 15.1055C9.45183 15.1234 6.90291 14.9625 4.83005 14.6219C3.79364 14.4516 2.87653 14.2372 2.12869 13.9703C1.90392 13.8901 1.69406 13.8063 1.5 13.7163V18.9895C4.06533 19.9203 8.03817 20.4137 12 20.4137C15.9618 20.4137 19.9347 19.9203 22.5 18.9895V13.5196ZM1.09472 19.7405C1.08371 19.7923 1.07815 19.8451 1.07812 19.8981C1.07812 20.1871 1.24247 20.4249 1.43592 20.5938C1.62933 20.7626 1.86998 20.8937 2.16103 21.0166C2.74308 21.2623 3.53283 21.4663 4.50117 21.6392C6.43786 21.985 9.08016 22.1949 12 22.1949C14.9198 22.1949 17.5621 21.985 19.4988 21.6392C20.4672 21.4663 21.2569 21.2623 21.839 21.0165C22.1301 20.8937 22.3707 20.7626 22.5641 20.5937C22.7575 20.425 22.9219 20.1871 22.9219 19.8981C22.9219 19.8437 22.916 19.7911 22.9053 19.7405C20.1618 20.7709 16.0873 21.2574 12 21.2574C7.91269 21.2574 3.83817 20.7709 1.09472 19.7405Z" fill="currentColor"/>
</svg>
