<svg width="24" height="24" viewBox="0 0 24 24" fill="none" xmlns="http://www.w3.org/2000/svg">
<path d="M20.2292 1L24 7.6H19.7875L16.9042 1H20.2292ZM14.8958 1L17.7792 7.6H6.22083L9.10417 1H14.8958ZM3.77083 1H7.09583L4.2125 7.6H0L3.77083 1ZM0 8.92H4.19583L9.32083 19.3026C9.38333 19.4305 9.20833 19.546 9.1125 19.4388L0 8.92ZM6.175 8.92H17.825L12.1167 22.0458C12.075 22.1448 11.9292 22.1448 11.8875 22.0458L6.175 8.92ZM14.6792 19.3026L19.8042 8.92H24L14.8875 19.4346C14.7917 19.546 14.6167 19.4305 14.6792 19.3026Z" fill="currentColor"/>
</svg>
