<svg width="24" height="24" viewBox="0 0 24 24" fill="none" xmlns="http://www.w3.org/2000/svg">
<path d="M15.1183 1.74561C15.0338 1.7457 14.9523 1.75658 14.8696 1.76328L12.4437 5.76734C15.3211 6.01676 16.7459 7.33789 17.263 8.6389L16.4789 8.95044C16.1177 8.04153 15.2152 7.03681 13.0891 6.69228C13.9873 7.33508 14.6613 8.07875 15.0076 8.98447L14.2194 9.28573C13.8508 8.32147 12.9477 7.49989 11.6068 6.76198C11.1352 6.95511 8.71886 7.94197 7.88237 8.22528C6.1412 8.81492 5.19282 10.0108 3.38321 12.1112L3.37707 12.1182L3.37075 12.125C3.07721 12.4369 2.95384 12.7182 2.92553 12.9233C2.89721 13.1284 2.94821 13.256 3.0384 13.3513C3.21878 13.5419 3.703 13.6625 4.41981 13.1764L4.42332 13.174L7.94087 10.8878L8.44965 11.5581L6.0377 13.682L1.62686 17.7584C1.06768 18.2751 1.07673 18.7775 1.20732 18.9509C1.27267 19.0377 1.37134 19.1042 1.60965 19.0935C1.84796 19.0827 2.2165 18.9672 2.67751 18.6514C4.07125 17.6967 5.36978 16.7428 6.50954 15.5922L6.50706 15.5818L6.52426 15.5775C6.53239 15.5695 6.54048 15.5614 6.54854 15.5533L6.56495 15.5671C6.72486 15.525 6.88261 15.4751 7.03764 15.4176C7.3195 15.3124 7.62086 15.1204 7.65662 15.0718C7.67181 15.0512 7.75853 14.7581 7.77334 14.5021C7.78815 14.2461 7.77362 14.0285 7.77362 14.0285L8.61536 13.9707C8.61536 13.9707 8.63397 14.2351 8.61573 14.5508C8.59745 14.8665 8.58503 15.2345 8.33556 15.5727C8.06556 15.9388 7.67068 16.0819 7.33281 16.2081C7.23494 16.2444 7.13606 16.2779 7.03628 16.3085C5.89384 17.8406 4.44254 19.0074 3.10065 20.223C2.6364 20.6435 2.44426 21.0053 2.40151 21.2276C2.35871 21.4499 2.40779 21.5279 2.52273 21.611C2.75251 21.7772 3.51479 21.8041 4.30389 21.0771C5.85142 19.6513 7.36117 18.2349 8.51504 16.5433L8.55311 16.566C8.62079 16.5367 8.7504 16.479 8.92637 16.383C9.15934 16.2558 9.41214 16.054 9.44593 16.003C9.47804 15.9546 9.56467 15.6477 9.59068 15.3874C9.6167 15.1271 9.61468 14.909 9.61468 14.909L10.4583 14.9C10.4583 14.9 10.4613 15.1598 10.4302 15.4714C10.399 15.7829 10.3662 16.1419 10.1492 16.4693C9.93043 16.7992 9.60882 16.9718 9.33057 17.1237C9.24573 17.17 9.16759 17.2092 9.09512 17.2445C8.32295 18.6466 7.21295 19.8615 6.0309 21.133C5.77825 21.4048 5.73179 21.6113 5.74675 21.757C5.76175 21.9027 5.84246 22.0274 6.0009 22.1258C6.31778 22.3227 6.92129 22.3538 7.47432 21.783C8.11211 21.1248 8.68979 20.4368 9.19295 19.7066C9.62879 18.9115 10.0719 18.1087 10.4943 17.3068L10.5217 17.3195C10.5628 17.3061 10.7049 17.2588 10.8904 17.1768C11.105 17.082 11.3405 16.9184 11.3617 16.8912C11.3822 16.8648 11.4821 16.5977 11.5209 16.3677C11.5445 16.2271 11.5611 16.0854 11.5706 15.9432L12.4132 15.9896C12.4132 15.9896 12.4003 16.2263 12.3529 16.5079C12.3055 16.7894 12.257 17.1141 12.0279 17.4089C11.7981 17.7046 11.494 17.8325 11.2317 17.9485C11.1914 17.9663 11.1548 17.9809 11.1168 17.9965C10.7823 18.7559 10.3774 19.4688 9.91576 20.1436C9.74832 20.4492 9.57714 20.759 9.41664 21.0577C9.26889 21.3327 9.2597 21.5315 9.29303 21.6655C9.3264 21.7995 9.40168 21.8865 9.51475 21.9439C9.74092 22.0587 10.142 22.046 10.5052 21.5402C13.1977 17.7906 16.4359 14.0272 17.8696 9.119C17.9747 8.75904 18.2043 8.58176 18.4787 8.32705C18.7531 8.07233 19.0872 7.7989 19.4148 7.52755C19.7425 7.25614 20.0636 6.98661 20.2975 6.75926C20.4527 6.60833 20.5515 6.46053 20.6002 6.39303C20.4856 5.94645 20.2985 5.49931 20.0549 5.06872C19.5352 5.40242 18.9703 5.70931 18.5176 5.95733C18.8071 5.2588 18.9828 4.52244 19.0988 3.76611C18.8557 3.50286 18.5934 3.25796 18.3142 3.0334C17.3187 2.23405 16.1563 1.74444 15.1183 1.74561ZM7.31931 1.93283C7.28206 1.93227 7.2448 1.93242 7.20756 1.9333C6.60034 1.94745 5.85737 2.17751 5.14136 2.56484C4.75782 2.77231 4.38531 3.02562 4.04171 3.30805C4.15506 4.20983 4.33834 5.08831 4.68039 5.91383C4.10546 5.59883 3.35012 5.18876 2.73573 4.74945C2.49175 5.13373 2.32304 5.52406 2.25746 5.89559C2.28559 6.02581 2.42317 6.30312 2.67676 6.61109C2.95323 6.94681 3.33582 7.32195 3.72901 7.68528C4.1222 8.04861 4.52542 8.40106 4.85462 8.71161C4.94828 8.79992 5.03518 8.87909 5.11586 8.95578C5.85793 8.27023 6.62322 7.76084 7.61176 7.42611C8.26848 7.20369 10.2478 6.40287 10.9961 6.09865L8.5502 2.50301C8.27214 2.1139 7.86864 1.94126 7.31931 1.93283ZM18.5622 9.74169C18.3474 10.426 18.1003 11.0875 17.8269 11.729L19.1991 12.4901L19.2027 12.4922C19.9517 12.9271 20.4264 12.7729 20.593 12.5701C20.6763 12.4687 20.7182 12.338 20.6757 12.1354C20.6331 11.9327 20.4904 11.6607 20.1758 11.3701L20.1622 11.3574L20.1496 11.3436C19.5732 10.7082 19.0496 10.1825 18.5622 9.74169ZM17.3055 12.8664C16.7346 14.033 16.0842 15.1347 15.3949 16.1897C16.6575 17.7724 18.2452 19.0657 19.8706 20.3655C20.7085 21.0356 21.467 20.9555 21.6846 20.7736C21.7934 20.6827 21.837 20.6015 21.7788 20.3827C21.7206 20.1639 21.5037 19.8164 21.0111 19.4293C19.5217 18.2587 17.9161 17.15 16.6399 15.596L17.2454 15.0121C18.4732 16.0971 19.8498 16.9675 21.3234 17.8321C21.8054 18.1149 22.181 18.2045 22.4195 18.1985C22.658 18.1925 22.7518 18.1193 22.8109 18.0282C22.9291 17.8461 22.903 17.3443 22.3091 16.8679L17.6242 13.1097L17.3055 12.8664ZM14.8787 16.962C14.6208 17.3392 14.3585 17.7135 14.0919 18.0847C14.3597 18.5045 14.6296 18.9233 14.8974 19.3399C15.4505 20.0332 16.0749 20.6792 16.7571 21.2913C17.3487 21.8221 17.9485 21.7487 18.2509 21.5302C18.4021 21.421 18.474 21.291 18.4787 21.1446C18.4834 20.9982 18.4226 20.7955 18.1516 20.542C16.9104 19.3813 15.7419 18.2697 14.8787 16.962ZM13.5167 18.876C13.2358 19.2588 12.9537 19.6406 12.6702 20.0215C13.024 20.4357 13.3742 20.8482 13.7168 21.2609C14.1144 21.7401 14.5153 21.7245 14.7329 21.5943C14.8417 21.5292 14.9108 21.4372 14.9347 21.3012C14.9586 21.1651 14.9355 20.9675 14.7689 20.7035C14.5878 20.4165 14.3952 20.1192 14.2067 19.8259C13.9634 19.5191 13.7332 19.2022 13.5167 18.876Z" fill="currentColor"/>
</svg>
