<svg width="24" height="24" viewBox="0 0 24 24" fill="none" xmlns="http://www.w3.org/2000/svg">
<path d="M13.0909 5.36279L12.9832 5.79329H4.07822V6.63704H12.7723L12.4207 8.04329H14.5795L14.2279 6.63704H22.922V5.79329H14.017L13.9093 5.36279H13.0909ZM1.24805 8.13704L1.93336 12.2491L1.33538 14.0433H2.07525L3.60094 12.5177L9.27853 13.3288L9.37744 13.5265C9.71475 14.201 10.2256 14.7127 10.7341 15.0517C11.2426 15.3906 11.7657 15.5433 12.0001 15.5433H18.0001C19.0782 15.5433 20.1582 15.3568 20.9226 15.0171C21.3047 14.8473 21.6044 14.6405 21.7958 14.4217C21.8776 14.3282 21.9396 14.2345 21.9849 14.137H14.7219L12.4719 8.88704H12.1407L9.14072 11.137H3.48933L1.98933 8.13704H1.24805ZM13.3898 8.88704L15.2783 13.2933H17.3603L15.4719 8.88704H13.3898ZM16.3992 8.90907L18.2783 13.2933H21.9878C21.6235 11.6743 20.8178 10.6269 19.7788 9.9422C18.8097 9.30353 17.6194 8.98932 16.3992 8.90907ZM18.5801 16.3709C18.3875 16.3814 18.1938 16.387 18.0001 16.387H17.696L18.1647 17.7933H14.0855L14.5542 16.387H13.6647L13.196 17.7933H9.32822V18.637H21.1392L22.2651 17.8044L22.6043 17.5536L22.1026 16.8751L21.7634 17.1259L20.861 17.7933H19.0542L18.5801 16.3709Z" fill="currentColor"/>
</svg>
