<svg width="24" height="24" viewBox="0 0 24 24" fill="none" xmlns="http://www.w3.org/2000/svg">
<path d="M9.72555 0.884766L11.4116 8.49023C11.4251 8.54119 11.4519 8.57756 11.5316 8.62209C11.6113 8.66663 11.7394 8.69991 11.8701 8.69972C12.0006 8.69958 12.1299 8.66677 12.2099 8.62209C12.2898 8.57738 12.3166 8.54006 12.3299 8.49023L14.016 0.884766H9.72555ZM13.8944 5.47992L13.181 8.69822L13.1782 8.70853L13.1767 8.7173C13.0948 9.02292 12.8765 9.25317 12.6376 9.38667C12.3987 9.52017 12.1343 9.57539 11.8715 9.57558C11.6087 9.57591 11.3446 9.52167 11.1054 9.38808C10.8661 9.25463 10.6468 9.0232 10.5649 8.7173L10.5634 8.70839L10.5604 8.69817L9.87204 5.5942C8.20352 6.27272 6.89838 7.71375 6.35336 9.51422C6.84864 9.77553 7.35393 10.0174 7.86808 10.2393C9.11154 10.7751 10.7043 11.2963 12.0165 11.2896C13.3292 11.2828 14.9139 10.7477 16.1488 10.2011C16.6737 9.96838 17.1887 9.71426 17.6928 9.43941C17.1011 7.56591 15.6841 6.09258 13.8944 5.47992ZM18.0649 10.2319C17.6728 10.4446 17.1337 10.7235 16.5033 11.0025C15.2133 11.5735 13.5597 12.1591 12.0209 12.1671C10.4816 12.175 8.81969 11.6046 7.52093 11.045C6.88277 10.77 6.33611 10.4945 5.9403 10.2847C5.9164 13.5886 5.76935 16.7834 6.39152 19.1148C6.72597 20.3681 7.26729 21.3589 8.14347 22.0489C8.71029 22.4954 9.42986 22.8263 10.3583 23.004V15.4746C9.01516 16.2302 7.17799 15.6063 6.55844 14.0391C6.97211 12.9927 7.97065 12.4887 8.93875 12.4922C10.0911 12.4963 11.1993 13.2203 11.2298 14.606H11.2342V18.7778H12.9231L12.9232 14.666C12.9227 14.6656 12.9222 14.6651 12.9217 14.6646C12.9217 14.6448 12.9228 14.6255 12.9231 14.606C12.9538 13.2203 14.0635 12.4963 15.2157 12.4922C16.1838 12.4887 17.181 12.9927 17.5946 14.0391C16.9757 15.6048 15.1419 16.2282 13.7991 15.4761V22.9981C14.7153 22.8168 15.421 22.4825 15.9759 22.0327C16.8382 21.3339 17.3634 20.3294 17.681 19.0635C18.2711 16.7112 18.0937 13.5074 18.0648 10.232L18.0649 10.2319Z" fill="currentColor"/>
</svg>
