<svg width="24" height="24" viewBox="0 0 24 24" fill="none" xmlns="http://www.w3.org/2000/svg">
<path d="M23.8969 15.5859L20.6203 7.88435C19.9219 5.9531 18.2578 4.55622 16.2609 4.17185C17.1047 3.67497 18.4313 2.48903 17.8641 0.314035C17.8031 0.0796595 17.5313 -0.056278 17.3016 0.028097L7.82344 3.57653C1.68281 5.78435 0 11.1984 0 18.6937V22.5C0 23.3297 0.670312 24 1.5 24H12.5719C13.6875 24 14.4141 22.8281 13.9125 21.8297L12 18V17.9672C9.8625 17.8031 8.03437 16.5281 7.11094 14.7047C7.03594 14.5593 7.06875 14.3812 7.18594 14.2687L7.75312 13.7015C7.93594 13.5187 8.25 13.575 8.35781 13.814C9.05156 15.3937 10.6172 16.5047 12.4547 16.5047C13.2609 16.5047 14.0016 16.2656 14.6484 15.8859L16.8047 18.8812C17.0859 19.275 17.5406 19.5047 18.0234 19.5047H20.3812C20.7797 19.5047 21.1594 19.3453 21.4406 19.064L23.5641 17.1984C23.9813 16.7718 24.1125 16.139 23.8969 15.5859ZM15.375 10.5C14.7516 10.5 14.25 9.99841 14.25 9.37497C14.25 8.75153 14.7516 8.24997 15.375 8.24997C15.9984 8.24997 16.5 8.75153 16.5 9.37497C16.5 9.99841 15.9984 10.5 15.375 10.5Z" fill="currentColor"/>
</svg>
