<svg width="24" height="24" viewBox="0 0 24 24" fill="none" xmlns="http://www.w3.org/2000/svg">
<path d="M12.2389 1.16228C11.9436 1.16228 11.6436 1.18244 11.3389 1.2176C9.71699 1.40557 8.30137 2.04213 7.30293 2.95478C6.2998 3.86791 5.6998 5.09041 5.8498 6.38416C5.98105 7.53728 6.68418 8.50291 7.68262 9.16853C7.80449 8.87791 7.95918 8.61072 8.11387 8.3951C7.28887 7.85135 6.78262 7.11541 6.68887 6.28572C6.58105 5.36228 7.00293 4.43041 7.85137 3.65416C8.70449 2.87744 9.9748 2.29197 11.442 2.12228C12.9092 1.95213 14.2826 2.2315 15.2904 2.7926C16.2936 3.35416 16.917 4.1665 17.0248 5.08572C17.1279 5.99041 16.7342 6.90447 15.9279 7.66385C15.4294 7.35237 14.8562 7.18074 14.2686 7.16697H14.1654C13.9264 7.17166 13.692 7.19978 13.4482 7.25135C11.6904 7.65916 10.5982 9.38416 11.0014 11.1279C11.2498 12.206 12.0139 13.031 12.9795 13.4013L14.8404 21.4732L17.0436 22.8373L18.4264 20.6482L17.3248 19.9685L18.0186 18.8717L16.917 18.1873L17.6061 17.0951L16.5045 16.4107L17.1982 15.3138L16.5654 12.5763C17.2732 11.8217 17.5967 10.7435 17.3482 9.66072C17.2217 9.11228 16.9639 8.62947 16.6076 8.23572C17.4936 7.3451 18.0045 6.19666 17.8639 4.99197C17.7139 3.70057 16.8514 2.64635 15.6654 1.98682C14.7045 1.4501 13.5186 1.15385 12.2389 1.16228ZM11.292 7.51385C10.0779 7.56541 8.95293 8.30135 8.46074 9.49197C8.03418 10.5185 8.17949 11.6342 8.75137 12.5013L5.57324 20.142L6.57168 22.5326L8.97168 21.5529L8.47012 20.3576L9.67012 19.8701L9.17324 18.6748L10.3732 18.1873L9.87168 16.992L11.0717 16.4998L12.1404 13.931C11.1795 13.392 10.4436 12.4685 10.1764 11.3154C9.85293 9.8951 10.3217 8.47478 11.292 7.51385ZM14.0107 7.85135C14.4279 7.84666 14.8217 8.01541 15.1076 8.29197C14.8498 8.45603 14.5639 8.60135 14.2639 8.7326C14.1889 8.70447 14.1092 8.6951 14.0248 8.6951C13.9967 8.6951 13.9732 8.6951 13.9498 8.69978C13.6217 8.73728 13.3779 8.98572 13.3357 9.2951C13.3264 9.34197 13.3264 9.38885 13.3264 9.43103C13.3311 9.4451 13.3311 9.46385 13.3311 9.47791C13.3779 9.87166 13.7201 10.1435 14.1139 10.0967C14.4326 10.0592 14.6764 9.8201 14.7232 9.5201C15.0139 9.38885 15.2857 9.24353 15.5436 9.07947C15.5529 9.12635 15.5623 9.17322 15.567 9.2201C15.6654 10.0638 15.0514 10.8373 14.2076 10.9357C13.3686 11.0342 12.5904 10.4201 12.4967 9.57635C12.3982 8.7326 13.0123 7.95916 13.8561 7.86072C13.9076 7.85603 13.9592 7.85135 14.0107 7.85135Z" fill="currentColor"/>
</svg>
