<svg width="24" height="24" viewBox="0 0 24 24" fill="none" xmlns="http://www.w3.org/2000/svg">
<path d="M6.88117 1.92188C6.8718 2.40281 6.85305 2.87109 6.82023 3.32812H15.0374C15.0515 2.86734 15.0562 2.39906 15.0468 1.92188H6.88117ZM6.74992 4.17188C6.14523 10.0547 3.59898 13.9641 1.0293 17.2125L6.43586 22.6219C11.2171 16.7391 14.5452 11.4609 14.9999 4.17188H13.6312C13.528 6.46875 12.5999 9.31875 11.353 12.0797C10.0921 14.8688 8.49836 17.5641 7.03117 19.4672L6.43117 18.8672C7.82336 17.0344 9.37023 14.4188 10.5843 11.7328C11.7984 9.04219 12.6796 6.26719 12.7874 4.17188H11.3812C11.278 6.46875 10.3499 9.31875 9.10305 12.0797C8.1093 14.2781 6.9093 16.4203 5.72336 18.1594L5.11867 17.55C6.23898 15.8812 7.38742 13.8281 8.3343 11.7328C9.54836 9.04219 10.4296 6.26719 10.5374 4.17188H9.13117C9.02805 6.46875 8.09992 9.31875 6.85305 12.0797C6.10773 13.7344 5.24523 15.3516 4.3593 16.7906L3.74523 16.1766C4.57023 14.8078 5.38586 13.2844 6.0843 11.7328C7.29836 9.04219 8.17961 6.26719 8.28742 4.17188H6.74992ZM15.7499 11.1562C15.703 11.2688 15.6515 11.4 15.5999 11.5641C15.4359 12.0937 15.2718 12.8344 15.1312 13.5797C14.9437 14.5781 14.8077 15.5391 14.7327 16.0781H16.7671C16.6921 15.5391 16.5562 14.5781 16.3687 13.5797C16.228 12.8344 16.064 12.0937 15.8999 11.5641C15.8484 11.4 15.7968 11.2688 15.7499 11.1562ZM18.7499 11.1562C18.703 11.2688 18.6515 11.4 18.5999 11.5641C18.4359 12.0937 18.2718 12.8344 18.1312 13.5797C17.9437 14.5781 17.8077 15.5391 17.7327 16.0781H19.7671C19.6921 15.5391 19.5562 14.5781 19.3687 13.5797C19.228 12.8344 19.064 12.0937 18.8999 11.5641C18.8484 11.4 18.7968 11.2688 18.7499 11.1562ZM21.7499 11.1562C21.703 11.2688 21.6515 11.4 21.5999 11.5641C21.4359 12.0937 21.2718 12.8344 21.1312 13.5797C20.9437 14.5781 20.8077 15.5391 20.7327 16.0781H22.7671C22.6921 15.5391 22.5562 14.5781 22.3687 13.5797C22.228 12.8344 22.064 12.0937 21.8999 11.5641C21.8484 11.4 21.7968 11.2688 21.7499 11.1562ZM14.6718 16.9219V22.8281H16.828V16.9219H14.6718ZM17.6718 16.9219V22.8281H19.828V16.9219H17.6718ZM20.6718 16.9219V22.8281H22.828V16.9219H20.6718Z" fill="currentColor"/>
</svg>
