<svg width="24" height="24" viewBox="0 0 24 24" fill="none" xmlns="http://www.w3.org/2000/svg">
<path d="M10.1908 1.28564C8.88302 1.30768 7.70177 2.08768 7.1674 3.29377L13.5658 5.22643C13.8471 3.54877 12.8393 1.92221 11.2174 1.42861C10.9268 1.34049 10.6221 1.29221 10.3174 1.28564H10.1908ZM6.92365 4.10189C6.63771 5.78424 7.64553 7.41549 9.27209 7.90768C10.9033 8.39986 12.6424 7.59361 13.3268 6.03268L6.92365 4.10189ZM19.369 6.17799C18.183 6.18268 16.9221 6.75455 15.9705 8.09986L10.1205 16.3921C8.55021 18.6139 9.23459 20.9389 10.7815 22.0358C12.333 23.1374 14.7471 23.0108 16.3174 20.7889L22.1627 12.5014C23.733 10.2749 23.0487 7.95455 21.5018 6.85299C20.9205 6.44049 20.2221 6.20143 19.4862 6.17799H19.369ZM19.2846 6.98893C19.3455 6.98893 19.4065 6.98893 19.4627 6.99361C20.0299 7.01705 20.5643 7.21861 21.0143 7.54205C22.219 8.39518 22.8237 10.0967 21.469 12.0139L18.4455 16.303C16.7674 15.853 14.6111 14.3202 13.6315 12.8811L16.6643 8.58736C17.4565 7.46705 18.3986 7.00768 19.2846 6.98893ZM4.27756 10.5608C3.82662 10.5655 3.38177 10.6592 2.96834 10.8421C1.41631 11.5217 0.608649 13.2561 1.08209 14.8874L7.20959 12.2108C6.59553 11.1749 5.4799 10.5467 4.27756 10.5608ZM7.5424 12.9796L1.41584 15.6608C2.28068 17.1327 4.10177 17.7233 5.66271 17.0436C7.21896 16.3592 8.02521 14.6155 7.5424 12.9796Z" fill="currentColor"/>
</svg>
