<svg width="24" height="24" viewBox="0 0 24 24" fill="none" xmlns="http://www.w3.org/2000/svg">
<path d="M12 20.9999C9.48333 20.9999 7.35433 20.1289 5.613 18.3869C3.87167 16.6449 3.00067 14.5159 3 11.9999C3 9.69992 3.75 7.70392 5.25 6.01192C6.75 4.31992 8.66667 3.33259 11 3.04992C11.2167 3.01659 11.4083 3.04592 11.575 3.13792C11.7417 3.22992 11.875 3.35059 11.975 3.49992C12.075 3.64925 12.1293 3.82425 12.138 4.02492C12.1467 4.22559 12.084 4.41725 11.95 4.59992C11.6667 5.03325 11.454 5.49159 11.312 5.97492C11.17 6.45825 11.0993 6.96659 11.1 7.49992C11.1 8.99992 11.625 10.2749 12.675 11.3249C13.725 12.3749 15 12.8999 16.5 12.8999C17.0167 12.8999 17.5293 12.8249 18.038 12.6749C18.5467 12.5249 19.0007 12.3166 19.4 12.0499C19.5833 11.9333 19.771 11.8793 19.963 11.8879C20.155 11.8966 20.3257 11.9423 20.475 12.0249C20.6417 12.1083 20.771 12.2333 20.863 12.3999C20.955 12.5666 20.984 12.7666 20.95 12.9999C20.7167 15.2999 19.7377 17.2083 18.013 18.7249C16.2883 20.2416 14.284 20.9999 12 20.9999Z" fill="currentColor"/>
</svg>
