<svg width="24" height="24" viewBox="0 0 24 24" fill="none" xmlns="http://www.w3.org/2000/svg">
<path d="M10.4049 2.55034C8.51229 2.55034 6.79488 2.92581 5.5137 3.56111C4.23251 4.19631 3.3252 5.13334 3.3252 6.28131C3.3252 6.40178 3.33518 6.52009 3.35454 6.63582L3.35304 6.91122C3.32702 10.7971 4.11476 14.6274 4.05476 18.3824C4.03732 19.4743 4.72479 20.4406 5.83601 21.0821C6.94723 21.7236 8.49837 22.0899 10.3887 22.0899C12.2805 22.0899 13.7327 21.7138 14.7437 21.0572C15.7548 20.4006 16.3097 19.4301 16.3097 18.3897C16.3097 18.2411 16.3122 18.0923 16.3156 17.943C18.291 17.8907 19.846 16.8437 20.8683 15.4791C21.9106 14.0876 22.4633 12.371 22.4943 10.8091C22.5252 9.24723 22.0263 7.6727 20.6588 7.03126C19.975 6.71054 19.2248 6.72315 18.3502 6.97853C18.0615 7.06281 17.762 7.17775 17.4537 7.32423C17.457 7.18689 17.4596 7.04954 17.4596 6.91407V6.59907C17.475 6.49529 17.483 6.38889 17.483 6.28126C17.483 5.13329 16.5756 4.19636 15.2944 3.56111C14.0133 2.92576 12.2974 2.55034 10.4049 2.55034ZM10.4049 3.42634C12.18 3.42634 13.7839 3.78971 14.9063 4.34626C16.0286 4.90267 16.6069 5.61067 16.6069 6.28126C16.6069 6.95186 16.0286 7.66126 14.9063 8.21781C13.7839 8.77421 12.18 9.13623 10.4049 9.13623C8.62971 9.13623 7.02565 8.77426 5.90337 8.21776C4.78104 7.66136 4.2012 6.95186 4.2012 6.28126C4.2012 5.61067 4.78104 4.90267 5.90337 4.34626C7.02565 3.78967 8.62962 3.42629 10.4048 3.42629L10.4049 3.42634ZM7.1397 5.25587C6.05266 5.57026 5.3628 6.03793 5.3628 6.55965C5.3628 7.5062 7.63146 8.2735 10.4297 8.2735C13.228 8.2735 15.4952 7.50615 15.4952 6.55961C15.4952 6.07848 14.9083 5.64339 13.9644 5.33209C14.2112 5.52451 14.3497 5.73953 14.3497 5.96786C14.3497 6.77345 12.6263 7.42679 10.5 7.42679C8.37377 7.42679 6.65041 6.77345 6.65041 5.96781C6.65041 5.70915 6.82798 5.46653 7.1397 5.25587ZM19.4824 8.45659C19.6859 8.45551 19.8492 8.49376 19.976 8.55329C20.4835 8.79123 20.8388 9.62251 20.8155 10.8091C20.792 11.9957 20.3601 13.4111 19.5572 14.4829C18.7933 15.5025 17.7709 16.1869 16.4106 16.2597C16.6146 13.9233 17.0777 11.5493 17.3144 9.32954C18.2858 8.6807 18.9969 8.45921 19.4824 8.45654L19.4824 8.45659Z" fill="currentColor"/>
</svg>
