<svg width="24" height="24" viewBox="0 0 24 24" fill="none" xmlns="http://www.w3.org/2000/svg">
<path d="M2.98446 13.4492C3.13342 13.5233 3.2863 13.5894 3.44243 13.647C2.8668 14.307 2.20915 14.9126 1.73383 14.9126C1.6676 14.9132 1.60197 14.9 1.54118 14.8737C0.962741 14.6187 0.995553 13.2973 1.15493 12.1081C1.35602 12.311 1.54399 12.476 1.67805 12.5876C2.0792 12.9237 2.51752 13.2128 2.98446 13.4492ZM22.3232 12.5862C21.9221 12.9228 21.4838 13.2124 21.0168 13.4492C20.8678 13.5233 20.715 13.5894 20.5588 13.647C21.1345 14.307 21.7921 14.9126 22.2674 14.9126C22.3337 14.9132 22.3993 14.9 22.4601 14.8737C23.0385 14.6187 23.0057 13.2973 22.8463 12.1081C22.6457 12.3096 22.4577 12.4746 22.3232 12.5862ZM1.82899 7.26963C1.27024 8.85822 4.45399 12.0865 6.08899 12.4793C6.32595 12.5282 6.56754 12.551 6.80946 12.5473C7.4418 12.5473 8.1918 12.4207 8.40321 12.0743C9.18696 10.7778 8.54946 6.98182 7.30774 6.11369C6.96087 5.87088 6.36508 5.76025 5.69008 5.76025C4.13196 5.76025 2.15383 6.349 1.82899 7.26963ZM18.314 5.76447C17.639 5.76447 17.0437 5.87463 16.6954 6.1151C15.449 6.97666 14.7346 10.8317 15.5999 12.0757C15.8343 12.4113 16.5941 12.5712 17.2218 12.5712C17.4956 12.5712 17.7445 12.5407 17.9123 12.4807C19.4976 11.9182 22.731 8.85775 22.1723 7.27103C21.8479 6.349 19.8707 5.76447 18.314 5.76447ZM13.1109 8.90979L14.7281 8.30041C14.8019 7.99365 14.893 7.69129 15.0009 7.39478L12.0398 8.50994L8.97602 7.37182C9.08069 7.66627 9.16911 7.96625 9.24087 8.27041L10.9696 8.9126L9.44758 9.48635C9.47524 9.75354 9.49118 10.016 9.49446 10.2701L12.0421 9.31057L14.4707 10.2129C14.4773 9.93166 14.4988 9.66775 14.526 9.43338L13.1109 8.90979ZM1.5079 9.33166C1.45165 9.22807 1.40055 9.12635 1.35368 9.02557C1.00633 9.40947 0.738678 9.80416 0.770084 10.0863C0.895241 11.2113 3.13305 13.0863 4.4029 13.0863C4.50526 13.0876 4.60721 13.0732 4.70524 13.0437C4.81901 12.9996 4.92013 12.9281 4.99962 12.8356C4.39633 12.506 3.84462 12.056 3.50852 11.7565C2.67274 11.0117 1.94196 10.1276 1.50837 9.33072L1.5079 9.33166ZM22.6349 9.01197C22.3659 9.56744 21.9515 10.1562 21.4016 10.7628C20.6545 11.5873 19.754 12.3317 18.9641 12.7981C19.0743 12.9223 19.1859 13.0113 19.2951 13.046C19.3931 13.0755 19.4951 13.0899 19.5974 13.0887C20.8673 13.0887 23.1056 11.2137 23.2302 10.0887C23.2631 9.79994 22.9884 9.39916 22.6354 9.01104L22.6349 9.01197ZM8.35399 13.0301C8.37274 13.0723 8.39149 13.1149 8.41024 13.1585C8.78524 14.044 8.91883 16.2556 8.75758 18.1878L9.50477 18.2501C9.6843 16.0967 9.49962 13.6863 8.97133 12.5684C8.80796 12.7721 8.59554 12.9309 8.35399 13.0301ZM15.0571 12.5956C14.9816 12.911 14.9071 13.2865 14.8359 13.7342C14.6064 15.2243 14.511 16.7321 14.5509 18.2393L15.3009 18.2145C15.2629 16.7692 15.3531 15.3234 15.5704 13.894C15.6201 13.5762 15.6716 13.2982 15.7232 13.0554C15.4665 12.9576 15.2372 12.7992 15.0548 12.5937L15.0571 12.5956Z" fill="currentColor"/>
</svg>
