<svg width="24" height="24" viewBox="0 0 24 24" fill="none" xmlns="http://www.w3.org/2000/svg">
<path d="M11.228 10.3332C11.5247 10.3332 11.7747 10.2305 11.978 10.0252C12.1813 9.82052 12.283 9.56953 12.283 9.27219C12.283 8.97553 12.1803 8.72553 11.975 8.52219C11.7703 8.31886 11.5193 8.21719 11.222 8.21719C10.9253 8.21719 10.6753 8.31986 10.472 8.52519C10.2687 8.72986 10.167 8.98086 10.167 9.27819C10.167 9.57486 10.2697 9.82486 10.475 10.0282C10.6797 10.2315 10.9307 10.3332 11.228 10.3332ZM20.492 21.2502C20.01 21.2502 19.2127 20.9392 18.1 20.3172C16.9873 19.6952 15.7943 18.9165 14.521 17.9812C14.1277 18.1545 13.7173 18.2845 13.29 18.3712C12.862 18.4572 12.4237 18.5002 11.975 18.5002C10.165 18.5002 8.63334 17.8735 7.38001 16.6202C6.12668 15.3669 5.50001 13.8352 5.50001 12.0252C5.50001 11.5765 5.54434 11.1342 5.63301 10.6982C5.72101 10.2622 5.85168 9.84753 6.02501 9.45419C5.10568 8.19419 4.34368 7.01819 3.73901 5.92619C3.13434 4.83419 2.83234 4.05352 2.83301 3.58419C2.83301 3.36552 2.89368 3.18786 3.01501 3.05119C3.13701 2.91452 3.29301 2.84619 3.48301 2.84619C3.76234 2.84619 4.29901 3.04119 5.09301 3.43119C5.88701 3.82052 6.79634 4.32886 7.82101 4.95619C7.64568 5.04686 7.48301 5.14219 7.33301 5.24219C7.18234 5.34219 7.03601 5.44986 6.89401 5.56519C6.38534 5.26652 5.88801 4.98986 5.40201 4.73519C4.91601 4.47986 4.42934 4.23852 3.94201 4.01119C4.30601 4.79852 4.70368 5.56286 5.13501 6.30419C5.56701 7.04486 6.03234 7.77752 6.53101 8.50219C7.11301 7.60219 7.87634 6.88086 8.82101 6.33819C9.76634 5.79619 10.8177 5.52519 11.975 5.52519C13.7857 5.52519 15.3217 6.15586 16.583 7.41719C17.8443 8.67852 18.475 10.2145 18.475 12.0252C18.475 13.1832 18.203 14.2379 17.659 15.1892C17.1143 16.1405 16.392 16.9072 15.492 17.4892C16.2293 18.0005 16.976 18.4762 17.732 18.9162C18.488 19.3555 19.266 19.7619 20.066 20.1352C19.8427 19.6519 19.6027 19.1672 19.346 18.6812C19.088 18.1952 18.8097 17.6979 18.511 17.1892C18.6377 17.0485 18.752 16.8995 18.854 16.7422C18.9553 16.5849 19.051 16.4229 19.141 16.2562C19.7663 17.2869 20.271 18.1969 20.655 18.9862C21.039 19.7755 21.231 20.3099 21.231 20.5892C21.231 20.7905 21.163 20.9509 21.027 21.0702C20.891 21.1895 20.7127 21.2495 20.492 21.2502ZM13.724 14.7562C13.9307 14.7562 14.1043 14.6862 14.245 14.5462C14.385 14.4062 14.455 14.2329 14.455 14.0262C14.455 13.8195 14.385 13.6459 14.245 13.5052C14.1057 13.3652 13.9323 13.2952 13.725 13.2952C13.5177 13.2952 13.3443 13.3652 13.205 13.5052C13.065 13.6445 12.995 13.8179 12.995 14.0252C12.995 14.2325 13.065 14.4059 13.205 14.5452C13.3443 14.6852 13.5177 14.7552 13.725 14.7552M14.991 11.4292C15.1843 11.4292 15.3453 11.3659 15.474 11.2392C15.6027 11.1125 15.667 10.9525 15.667 10.7592C15.667 10.5659 15.6037 10.4049 15.477 10.2762C15.3503 10.1475 15.1903 10.0832 14.997 10.0832C14.8037 10.0832 14.643 10.1465 14.515 10.2732C14.3857 10.3992 14.321 10.5592 14.321 10.7532C14.321 10.9465 14.3843 11.1072 14.511 11.2352C14.6377 11.3645 14.7977 11.4292 14.991 11.4292Z" fill="currentColor"/>
</svg>
