<svg width="24" height="24" viewBox="0 0 24 24" fill="none" xmlns="http://www.w3.org/2000/svg">
<path d="M4.40892 1.02637L0.890625 4.5448L2.89345 5.65105L1.62877 6.91443L6.67275 9.95559C4.77698 13.2438 5.23275 17.5057 8.0415 20.313C11.398 23.6695 16.8417 23.6686 20.1988 20.313C23.556 16.9574 23.557 11.5167 20.2005 8.16206C17.392 5.35527 13.1273 4.90096 9.83723 6.79438L6.79462 1.75363L6.399 2.14888L5.52769 3.01935L4.40892 1.02637ZM6.62255 3.16377L9.54459 8.00479L9.92419 7.75879C11.9965 6.41521 14.5655 6.16298 16.8226 7.00513C16.7682 7.00388 16.7135 7.00326 16.6584 7.00326C14.8308 7.00326 13.3493 7.69734 13.3493 8.55355C13.3493 9.40996 14.8308 10.1039 16.6584 10.1039C18.1364 10.1039 19.3877 9.65001 19.8125 9.02348C20.5598 9.83629 21.1012 10.7684 21.4367 11.7541C21.0729 11.5953 20.5798 11.4397 19.9882 11.3058C18.5171 10.973 16.4469 10.7614 14.1614 10.7614C11.8759 10.7614 9.80573 10.973 8.33461 11.3058C7.69195 11.4512 7.16288 11.6222 6.79275 11.7951C6.99895 11.1776 7.28275 10.5888 7.63734 10.0428L7.88405 9.6629L3.04045 6.74259L3.69173 6.09196L5.89191 7.3071L7.20038 5.99859L5.97319 3.81257L6.62264 3.16373L6.62255 3.16377ZM6.57159 12.5991C6.59416 12.6122 6.61769 12.6254 6.64219 12.6385C7.01203 12.8363 7.59891 13.0363 8.33452 13.2027C9.80559 13.5355 11.8758 13.7472 14.1613 13.7472C16.4468 13.7472 18.517 13.5356 19.9881 13.2027C20.7234 13.0363 21.3101 12.8365 21.68 12.6387C21.7379 12.9118 21.7808 13.1879 21.8087 13.4657C21.3666 13.6662 20.8148 13.8357 20.1646 13.9828C18.6081 14.335 16.4957 14.547 14.1613 14.547C11.8268 14.547 9.71447 14.335 8.15803 13.9828C7.47037 13.8272 6.89241 13.6467 6.43819 13.4308C6.4675 13.1513 6.51202 12.8736 6.57155 12.599L6.57159 12.5991Z" fill="currentColor"/>
</svg>
