<svg width="24" height="24" viewBox="0 0 24 24" fill="none" xmlns="http://www.w3.org/2000/svg">
<path d="M15.9946 0.843891L15.8521 1.13677L16.1608 1.75425L15.7113 1.42589L15.3218 2.22633L15.6012 2.84072L15.1329 2.61459L14.9663 2.95678L15.7796 4.34817L14.1918 7.61095C14.4768 7.67168 14.7633 7.72602 15.0508 7.77394L16.5378 4.71816L16.5396 4.71792L17.5679 2.60489L17.5661 2.60517L17.9573 1.80112L17.1986 1.43198L16.8078 2.23509L15.9946 0.84375V0.843891ZM2.60561 1.63955C2.57593 1.63961 2.54624 1.6405 2.51655 1.64222C2.27904 1.65609 2.04358 1.72378 1.8289 1.85597C1.61547 1.98741 1.5303 2.17317 1.46201 2.36372C1.39371 2.55427 1.35007 2.77045 1.31693 3.02208C1.25069 3.52542 1.2318 4.16939 1.24727 4.92802C1.27811 6.44536 1.45052 8.41378 1.71241 10.4755C2.12594 13.731 2.74413 17.183 3.42476 19.4658L3.42729 19.4651C3.45283 19.5532 3.48044 19.6479 3.51026 19.7446L3.51072 19.7465C3.52769 19.8003 3.54468 19.8534 3.56168 19.9058C3.64127 20.1472 3.73404 20.3865 3.84091 20.5577C3.92796 20.697 4.0173 20.7808 4.08326 20.8139C4.14911 20.8468 4.19782 20.8613 4.34013 20.8106C4.42249 20.7812 4.42226 20.782 4.45029 20.658C4.47841 20.5339 4.47396 20.3001 4.42582 20.0197C4.37594 19.7295 4.28613 19.3925 4.19013 19.0419C3.57171 16.8627 2.94644 13.4946 2.54941 10.3692C2.29019 8.32842 2.12074 6.37889 2.09083 4.91095C2.07583 4.17698 2.09693 3.56156 2.15346 3.13228C2.18177 2.91759 2.22021 2.74931 2.2563 2.64863C2.27411 2.59894 2.29305 2.57142 2.30036 2.56036C2.49461 2.44992 2.66154 2.44505 2.9208 2.54189C3.19315 2.64361 3.53655 2.88347 3.90274 3.22884C4.63507 3.91955 5.45899 5.00963 6.29397 6.08878C7.12896 7.16798 7.97172 8.23753 8.83966 8.92627C9.11997 9.14878 9.40568 9.33398 9.70357 9.45942C9.82497 9.49102 9.98304 9.52692 10.1456 9.54872C10.3148 9.57131 10.4845 9.57422 10.5882 9.55566C10.6651 9.54192 10.6847 9.52819 10.6874 9.52636C10.8463 9.23747 10.7782 9.1508 10.6232 8.99208C10.4677 8.8328 10.1473 8.7113 10.0403 8.70412L10.0417 8.68383C9.83604 8.59758 9.60691 8.45789 9.36424 8.26533C8.62643 7.67977 7.7914 6.64514 6.96143 5.57236C6.13151 4.49967 5.30355 3.39 4.48174 2.61502C4.07083 2.22745 3.66143 1.91784 3.2163 1.75158C3.02158 1.67873 2.81388 1.63908 2.6059 1.63964L2.60561 1.63955ZM11.5647 1.82986L11.1829 2.95964L11.6188 3.94683L10.9791 3.56292L10.8125 4.05605L11.7956 5.33306L11.3078 6.77681C11.5722 6.87268 11.8383 6.96394 12.1059 7.05056L12.5947 5.604L12.5964 5.60353L13.3488 3.3772L13.3468 3.37777L13.633 2.53064L12.8336 2.26055L12.5477 3.10678L11.5647 1.82977L11.5647 1.82986ZM19.1614 2.38955L18.5725 2.46923L18.0087 3.62752L18.8668 2.99461L19.1613 2.38955H19.1614ZM14.9018 2.96166L14.3277 3.11527L13.5756 5.34159L14.1498 5.18794L14.9018 2.96166ZM19.9079 3.21984L19.4951 3.78938L19.6011 5.12878L19.1486 4.26745L18.5287 5.12245L19.0883 6.6337L18.0693 8.03934C18.4131 8.04375 18.7631 8.04009 19.1201 8.02763L19.7708 7.12978L19.7727 7.12988L21.1519 5.22731L21.1501 5.22722L21.6748 4.50333L20.9917 4.00805L20.4675 4.73119L19.9079 3.21984ZM18.5525 3.64087L17.9239 3.8018L17.5441 4.58227L18.133 4.50258L18.5525 3.64087ZM22.1647 5.26791L21.9395 5.57845L22.5381 5.59561L22.7585 5.29153L22.1646 5.26786L22.1647 5.26791ZM21.8959 5.63845L20.7855 7.17033L21.3793 7.19409L21.6803 6.77892L21.3953 6.61027L21.8395 6.55931L22.3516 5.85281L21.8959 5.63845ZM10.7326 7.45861C10.6528 7.62089 10.5735 7.7797 10.494 7.94072C10.7521 8.02533 11.0062 8.17678 11.2266 8.40263C11.5606 8.74467 11.7396 9.36666 11.4241 9.9375C11.2687 10.2185 10.9808 10.3425 10.7365 10.3862C10.4921 10.4299 10.2537 10.4144 10.0335 10.385C9.74426 10.3463 9.49235 10.2789 9.34549 10.2355C9.27836 10.3676 9.21129 10.4999 9.14393 10.6312C11.5271 11.9006 14.2783 11.6977 16.9926 11.13C17.5559 10.3924 18.1151 9.64186 18.6753 8.87503C15.7224 8.91642 13.1848 8.37863 10.7325 7.45861H10.7326ZM8.75726 11.3812C7.54216 13.7212 6.28319 15.9834 4.85515 18.2642C4.99165 18.7791 5.16663 19.3492 5.25724 19.8769C5.31457 20.2108 5.34424 20.5305 5.27308 20.8444C5.20193 21.1585 4.96905 21.4821 4.6234 21.6054C4.30577 21.7187 3.96743 21.6997 3.70511 21.5682C3.44271 21.4368 3.26262 21.225 3.12508 21.0045C3.11463 20.9879 3.10479 20.9709 3.09476 20.954C2.98497 21.1146 2.87524 21.2751 2.76326 21.4362C3.44102 22.5956 4.62916 23.1801 5.68211 23.1553C9.93461 19.5641 13.1702 16.0249 16.2126 12.1392C13.7108 12.5735 11.103 12.6273 8.7574 11.3812L8.75726 11.3812Z" fill="currentColor"/>
</svg>
