<svg width="24" height="24" viewBox="0 0 24 24" fill="none" xmlns="http://www.w3.org/2000/svg">
<path d="M21 11.0001C21.2652 11.0001 21.5196 11.1055 21.7071 11.293C21.8946 11.4806 22 11.7349 22 12.0001C21.9993 13.7548 21.5368 15.4783 20.6592 16.9977C19.7815 18.5171 18.5196 19.7788 17 20.6561C16.7878 20.7788 16.538 20.8192 16.298 20.7698C16.058 20.7204 15.8445 20.5846 15.698 20.3881L15.634 20.2901L12.634 15.1001C12.5391 14.9358 12.493 14.7478 12.501 14.5581L12.511 14.4481L12.534 14.3421L12.568 14.2361L12.614 14.1361L12.67 14.0421L12.737 13.9531C12.786 13.8954 12.8413 13.8434 12.902 13.7981L13 13.7341C13.2802 13.5723 13.5169 13.3449 13.6898 13.0714C13.8628 12.798 13.9668 12.4866 13.993 12.1641L14 12.0011C13.9998 11.756 14.0896 11.5194 14.2524 11.3361C14.4152 11.1529 14.6396 11.0358 14.883 11.0071L15 11.0001H21ZM7 3.34414C8.52019 2.46646 10.2446 2.00439 12 2.00439C13.7554 2.00439 15.4798 2.46646 17 3.34414C17.2122 3.46673 17.372 3.66298 17.4491 3.89562C17.5261 4.12827 17.5151 4.38111 17.418 4.60614L17.366 4.71014L14.366 9.90014L14.302 9.99814C14.2567 10.0588 14.2047 10.1142 14.147 10.1631L14.058 10.2301C13.997 10.2712 13.9316 10.3054 13.863 10.3321L13.758 10.3661L13.651 10.3881C13.4657 10.4165 13.2762 10.3923 13.104 10.3181L13 10.2661C12.7221 10.1057 12.4096 10.0145 12.089 10.0002C11.7684 9.98594 11.4491 10.049 11.158 10.1841L11 10.2661C10.7878 10.3888 10.538 10.4292 10.298 10.3798C10.058 10.3304 9.84449 10.1946 9.698 9.99814L9.634 9.90014L6.634 4.71014C6.5014 4.48046 6.46546 4.20751 6.5341 3.95134C6.60274 3.69517 6.77033 3.47675 7 3.34414ZM9 11.0001C9.24509 11.0002 9.48162 11.0903 9.66467 11.2532C9.84773 11.4162 9.96457 11.6407 9.993 11.8841L10 12.0011C9.99984 12.3245 10.0781 12.6431 10.228 12.9296C10.378 13.2161 10.5952 13.462 10.861 13.6461L11.098 13.7981C11.1587 13.8434 11.214 13.8954 11.263 13.9531L11.33 14.0421L11.386 14.1371L11.431 14.2361C11.445 14.2715 11.4567 14.3068 11.466 14.3421L11.488 14.4491L11.499 14.5591C11.5054 14.709 11.4781 14.8583 11.419 14.9961L11.366 15.1001L8.366 20.2901C8.23339 20.5198 8.01497 20.6874 7.7588 20.756C7.50263 20.8247 7.22968 20.7887 7 20.6561C5.48043 19.7788 4.21846 18.5171 3.34081 16.9977C2.46316 15.4783 2.00075 13.7548 2 12.0001C2.00003 11.7552 2.08996 11.5188 2.25272 11.3358C2.41547 11.1527 2.63975 11.0358 2.883 11.0071L3 11.0001H9Z" fill="currentColor"/>
</svg>
