<svg width="24" height="24" viewBox="0 0 24 24" fill="none" xmlns="http://www.w3.org/2000/svg">
<path d="M15.1777 7.0125L15.6652 7.65937L23.0527 2.05312L22.5652 1.40625L15.1777 7.0125ZM10.7199 10.3969L11.9059 11.9578L8.68555 14.9906L7.67773 14.5172L8.11367 12.375L10.7199 10.3969ZM0.857422 19.8844L5.50273 15.4172C5.50273 15.4172 6.51992 15.9094 6.7918 15.825C6.81523 15.8156 6.83867 15.8062 6.85742 15.7875C6.9793 15.6937 7.13867 15.4641 7.28398 15.225L7.33555 15.2484L8.22617 15.6609L3.48242 22.5938C3.16367 20.7047 1.06367 19.8984 0.857422 19.8844ZM11.3621 9.90937L14.5355 7.50469L15.3371 8.56406C15.5574 8.85937 15.5199 9.29062 15.2246 9.51094L12.5809 11.5172L12.548 11.4703L11.3621 9.90937ZM8.32461 18.4547C8.69492 18.6797 9.18242 18.5625 9.40742 18.1875L10.0637 17.1047C10.223 16.8375 10.2137 16.5047 10.0355 16.2469C10.0965 16.2141 10.1527 16.1766 10.2043 16.1391C10.4574 15.9516 10.6262 15.675 10.6777 15.3703C10.7293 15.0516 10.6543 14.7234 10.4715 14.4188L10.1715 14.7047C10.2699 14.8875 10.3121 15.0984 10.2793 15.3094C10.2324 15.6094 10.0121 15.8484 9.68398 15.975C9.32305 15.8297 8.91055 15.9656 8.71367 16.2984L8.05742 17.3812C7.83242 17.7469 7.94961 18.2297 8.32461 18.4547ZM8.4043 17.5828L9.06523 16.4953C9.17773 16.3125 9.41211 16.2563 9.59492 16.3641L9.64648 16.4016C9.7918 16.5234 9.82461 16.7344 9.72617 16.8937L9.06523 17.9813C8.95273 18.1641 8.71836 18.225 8.53555 18.1125C8.35273 18.0047 8.2918 17.7656 8.4043 17.5828ZM16.2605 8.72344C16.2371 8.58281 16.1902 8.44687 16.1293 8.31562L22.898 3.18281L23.1418 3.50625L16.2605 8.72344ZM7.22773 12.6844L7.07773 13.4156C6.7168 13.2609 6.59961 12.8484 6.2293 12.9844C6.3418 12.5812 6.99805 12.7359 7.22773 12.6844Z" fill="currentColor"/>
</svg>
