<svg width="24" height="24" viewBox="0 0 24 24" fill="none" xmlns="http://www.w3.org/2000/svg">
<path d="M12.7998 12.0001C12.7998 11.3636 13.0527 10.7531 13.5027 10.303C13.9528 9.85295 14.5633 9.6001 15.1998 9.6001C15.8363 9.6001 16.4468 9.85295 16.8969 10.303C17.3469 10.7531 17.5998 11.3636 17.5998 12.0001C17.5998 12.6366 17.3469 13.2471 16.8969 13.6972C16.4468 14.1472 15.8363 14.4001 15.1998 14.4001C14.5633 14.4001 13.9528 14.1472 13.5027 13.6972C13.0527 13.2471 12.7998 12.6366 12.7998 12.0001Z" fill="currentColor"/>
<path fill-rule="evenodd" clip-rule="evenodd" d="M2.4 0C1.76348 0 1.15303 0.252856 0.702944 0.702944C0.252856 1.15303 0 1.76348 0 2.4L0 20C0 20.6365 0.252856 21.247 0.702944 21.6971C1.15303 22.1471 1.76348 22.4 2.4 22.4H3.2V24H4.8V22.4H19.2V24H20.8V22.4H21.6C22.2365 22.4 22.847 22.1471 23.2971 21.6971C23.7471 21.247 24 20.6365 24 20V2.4C24 1.76348 23.7471 1.15303 23.2971 0.702944C22.847 0.252856 22.2365 0 21.6 0L2.4 0ZM3.2 4.8V9.6H4.8V4.8H3.2ZM15.2 8C14.1391 8 13.1217 8.42143 12.3716 9.17157C11.6214 9.92172 11.2 10.9391 11.2 12C11.2 13.0609 11.6214 14.0783 12.3716 14.8284C13.1217 15.5786 14.1391 16 15.2 16C16.2609 16 17.2783 15.5786 18.0284 14.8284C18.7786 14.0783 19.2 13.0609 19.2 12C19.2 10.9391 18.7786 9.92172 18.0284 9.17157C17.2783 8.42143 16.2609 8 15.2 8ZM3.2 17.6V12.8H4.8V17.6H3.2Z" fill="currentColor"/>

</svg>
