<svg width="24" height="24" viewBox="0 0 24 24" fill="none" xmlns="http://www.w3.org/2000/svg">
<path d="M0.99707 19.1016C0.99707 19.1016 1.29754 14.8064 2.10238 13.1447C2.37941 12.5723 1.90504 11.5547 1.44613 11.2266H6.42004V13.2056C6.74816 13.612 7.38379 13.8825 8.08176 13.8825C9.17066 13.8825 10.0557 13.2375 10.0557 12.4294C10.0557 11.9241 9.70785 11.4605 9.18098 11.2261H9.84191C10.0243 11.3694 10.1719 11.552 10.2737 11.7604C10.3755 11.9688 10.4288 12.1975 10.4297 12.4294C10.4297 13.4438 9.37551 14.2627 8.07988 14.2627C7.34676 14.2627 6.69098 13.9955 6.25973 13.582C5.71645 13.7742 5.25988 14.6775 5.25988 15.2541C5.25988 15.7495 5.3377 19.1006 5.3377 19.1006H0.996133L0.99707 19.1016ZM16.1785 17.1581L14.1319 18.5555C12.6266 16.3501 11.67 13.8169 11.3419 11.167L13.763 10.5202C13.9996 12.9002 14.8301 15.1827 16.1785 17.1581ZM1.65473 6.55219C1.80566 6.55219 1.9532 6.59695 2.0787 6.6808C2.20419 6.76465 2.302 6.88384 2.35976 7.02328C2.41752 7.16272 2.43263 7.31616 2.40319 7.46419C2.37374 7.61222 2.30106 7.7482 2.19434 7.85492C2.08761 7.96165 1.95164 8.03433 1.8036 8.06378C1.65557 8.09322 1.50213 8.07811 1.36269 8.02035C1.22325 7.96259 1.10406 7.86478 1.02021 7.73928C0.936358 7.61379 0.891602 7.46625 0.891602 7.31531C0.891602 7.11292 0.972002 6.91882 1.11512 6.7757C1.25823 6.63259 1.45233 6.55219 1.65473 6.55219ZM1.45691 5.82703C1.53535 5.55881 1.69872 5.32328 1.92246 5.15583C2.1462 4.98838 2.41823 4.89806 2.6977 4.89844H19.2169C20.1118 4.89844 20.8575 5.61703 20.8575 6.51141V9.42375C20.8575 9.66618 20.9538 9.89867 21.1253 10.0701C21.2967 10.2415 21.5292 10.3378 21.7716 10.3378C22.014 10.3378 22.2465 10.2415 22.4179 10.0701C22.5894 9.89867 22.6857 9.66618 22.6857 9.42375V6.16078C22.6857 6.10484 22.7079 6.05119 22.7474 6.01163C22.787 5.97207 22.8407 5.94984 22.8966 5.94984C22.9525 5.94984 23.0062 5.97207 23.0458 6.01163C23.0853 6.05119 23.1075 6.10484 23.1075 6.16078V9.42375C23.1075 9.77806 22.9668 10.1179 22.7163 10.3684C22.4657 10.6189 22.1259 10.7597 21.7716 10.7597C21.4173 10.7597 21.0775 10.6189 20.827 10.3684C20.5764 10.1179 20.4357 9.77806 20.4357 9.42375V6.51141C20.4357 5.84906 19.8797 5.32031 19.2169 5.32031H2.6977C2.52952 5.31937 2.36474 5.3677 2.22371 5.45933C2.08268 5.55096 1.97157 5.68188 1.9041 5.83594C1.75632 5.81058 1.60555 5.80774 1.45691 5.8275V5.82703ZM21.6075 7.61719V6.86719H21.9357V7.61719H21.6075ZM19.6857 8.13281H19.1232V6.30469H19.6172C19.6633 6.36358 19.6875 6.43665 19.6857 6.51141V8.13281ZM15.0919 7.21969C15.1652 7.21969 15.2368 7.24141 15.2977 7.2821C15.3585 7.32279 15.406 7.38062 15.434 7.44829C15.4621 7.51595 15.4694 7.59041 15.4551 7.66225C15.4408 7.73408 15.4056 7.80006 15.3538 7.85185C15.302 7.90364 15.236 7.93891 15.1642 7.9532C15.0923 7.96749 15.0179 7.96015 14.9502 7.93212C14.8825 7.9041 14.8247 7.85663 14.784 7.79574C14.7433 7.73484 14.7216 7.66324 14.7216 7.59C14.7216 7.49179 14.7606 7.3976 14.8301 7.32815C14.8995 7.2587 14.9937 7.21969 15.0919 7.21969ZM1.19863 10.4766H11.115L15.3118 9.34359C15.8696 8.66109 16.6243 8.27859 18.1899 8.27859C18.2485 8.27859 18.3263 8.27344 18.3732 8.27438V6.30469L18.2452 6.07031H2.6977C2.67466 6.06909 2.65181 6.07506 2.63232 6.08741C2.61283 6.09976 2.59767 6.11786 2.58895 6.13922C2.79244 6.29784 2.95166 6.50618 3.05129 6.74418C3.15092 6.98219 3.1876 7.24183 3.15779 7.49811C3.12797 7.7544 3.03268 7.99869 2.88109 8.20747C2.72949 8.41624 2.52669 8.58248 2.29223 8.69016C2.29223 9.14484 2.28801 9.51469 2.28051 9.63469C2.25379 10.0594 1.19863 10.4766 1.19863 10.4766ZM6.79504 7.59281C6.79504 7.38563 6.98254 7.24219 7.18785 7.24219H14.0358C14.1905 6.82031 14.6054 6.48375 15.0914 6.48375C15.2381 6.48313 15.3835 6.51146 15.5193 6.5671C15.655 6.62274 15.7785 6.70461 15.8825 6.80802C15.9866 6.91143 16.0692 7.03435 16.1257 7.16974C16.1822 7.30513 16.2115 7.45033 16.2118 7.59703C16.2133 7.86113 16.1217 8.11732 15.9531 8.32057C15.7845 8.52382 15.5496 8.66111 15.2897 8.7083C15.0299 8.75549 14.7617 8.70956 14.5324 8.57858C14.303 8.44761 14.1272 8.23997 14.0358 7.99219H7.18785C7.08401 7.98716 6.98588 7.94315 6.91307 7.86894C6.84025 7.79474 6.7981 7.6958 6.79504 7.59188V7.59281ZM15.0919 7.96266C15.0187 7.96266 14.9471 7.94094 14.8862 7.90025C14.8253 7.85956 14.7778 7.80172 14.7498 7.73406C14.7218 7.66639 14.7144 7.59193 14.7287 7.5201C14.743 7.44827 14.7783 7.38228 14.8301 7.33049C14.8819 7.27871 14.9478 7.24344 15.0197 7.22915C15.0915 7.21486 15.166 7.22219 15.2336 7.25022C15.3013 7.27825 15.3591 7.32571 15.3998 7.38661C15.4405 7.44751 15.4622 7.5191 15.4622 7.59235C15.4622 7.69056 15.4232 7.78475 15.3538 7.8542C15.2843 7.92364 15.1901 7.96266 15.0919 7.96266ZM7.82348 11.2266H7.2141C7.2141 11.2266 7.04395 12.75 8.08082 13.2975C7.26098 12.4045 7.82348 11.2266 7.82348 11.2266Z" fill="currentColor"/>
</svg>
