<svg width="24" height="24" viewBox="0 0 24 24" fill="none" xmlns="http://www.w3.org/2000/svg">
<path d="M22.3467 2.4082C22.0992 3.82312 16.4877 7.46602 18.4809 3.19922C14.7208 5.32641 13.4392 4.29703 14.7998 2.93409C12.2299 3.06534 11.8583 7.0672 12.2055 8.20312L13.0229 9.09961C12.9226 7.63627 13.0419 6.82875 13.937 5.74945C14.5822 6.71573 14.804 7.32923 16.3774 6.07617C15.9371 8.58492 18.9372 6.95494 20.5376 6.58889C19.8228 7.24739 18.8898 8.12278 18.7153 9.18895C18.6572 9.54459 19.0063 10.0292 19.3774 10.3902C18.9348 10.495 17.4333 10.8078 17.5698 11.6192C17.7063 12.4306 18.1388 12.1763 17.7338 12.3355C17.1524 12.4651 16.7421 12.597 15.8779 12.233L16.7626 13.2041C18.0934 13.8974 20.2269 13.5465 20.6811 12.5068C19.9884 12.4496 19.4096 12.2877 19.1342 11.9663C21.1977 11.5754 22.2638 10.1268 23.1552 8.44922C21.5784 9.3375 21.179 9.28284 20.5302 9.21389C22.1949 8.54053 22.7275 4.10719 22.3466 2.4082H22.3467ZM11.5727 8.7217L8.91111 12.0088L12.623 16.0825L16.143 13.7388L11.5727 8.72175L11.5727 8.7217ZM8.6503 12.9463L1.01562 21.9199L2.02053 23.0229L11.6651 16.2554L8.65039 12.9464L8.6503 12.9463Z" fill="currentColor"/>
</svg>
